<svg width="226.772" height="453.543" viewBox="0 0 6000 12000" xmlns="http://www.w3.org/2000/svg" xmlns:xlink="http://www.w3.org/1999/xlink" stroke-width="28.222" stroke-linejoin="round" xml:space="preserve" overflow="hidden"><path d="M3001 1001 1 1001 1 1 6001 1 6001 1001 3001 1001Z" stroke="#000000" fill="none"/><path d="M3001 3001 1 3001 1 2001 6001 2001 6001 3001 3001 3001Z" stroke="#000000" fill="none"/><path d="M3001 5001 1 5001 1 4001 6001 4001 6001 5001 3001 5001Z" stroke="#000000" fill="none"/><path d="M3001 7001 1 7001 1 6001 6001 6001 6001 7001 3001 7001Z" stroke="#000000" fill="none"/><text><tspan><tspan x="1244" y="477"><tspan font-family="Noto Sans SC,Arial" font-weight="400" font-size="353">判断是否需要隔离掩码</tspan></tspan></tspan></text><text><tspan><tspan x="626" y="2477"><tspan font-family="Noto Sans SC,Arial" font-weight="400" font-size="353">创建</tspan><tspan font-family="Liberation Sans,Arial" font-weight="400" font-size="353">rcu_nocb_mask</tspan><tspan font-family="Noto Sans SC,Arial" font-weight="400" font-size="353">隔离掩码</tspan></tspan></tspan></text><text><tspan><tspan x="333" y="4477"><tspan font-family="Noto Sans SC,Arial" font-weight="400" font-size="353">合并隔离掩码，将引导参数</tspan><tspan font-family="Liberation Sans,Arial" font-weight="400" font-size="353">no_hz</tspan></tspan><tspan x="616" y="4904"><tspan font-family="Noto Sans SC,Arial" font-weight="400" font-size="353">指定的</tspan><tspan font-family="Liberation Sans,Arial" font-weight="400" font-size="353">CPU</tspan><tspan font-family="Noto Sans SC,Arial" font-weight="400" font-size="353">自动加入隔离掩码</tspan></tspan></tspan></text><text><tspan><tspan x="480" y="6477"><tspan font-family="Noto Sans SC,Arial" font-weight="400" font-size="353">有效性检查，剔除不存在的</tspan><tspan font-family="Liberation Sans,Arial" font-weight="400" font-size="353">CPU</tspan></tspan></tspan></text><text><tspan><tspan x="282" y="8512"><tspan font-family="Noto Sans SC,Arial" font-weight="400" font-size="353">激活卸载，遍历</tspan><tspan font-family="Liberation Sans,Arial" font-weight="400" font-size="353">CPU</tspan><tspan font-family="Noto Sans SC,Arial" font-weight="400" font-size="353">，初始化回调</tspan></tspan><tspan x="370" y="8939"><tspan font-family="Noto Sans SC,Arial" font-weight="400" font-size="353">列表， 标记</tspan><tspan font-family="Liberation Sans,Arial" font-weight="400" font-size="353">CPU </tspan><tspan font-family="Noto Sans SC,Arial" font-weight="400" font-size="353">的回调由内核线</tspan></tspan><tspan x="2100" y="9366"><tspan font-family="Noto Sans SC,Arial" font-weight="400" font-size="353">程异步处理 </tspan></tspan></tspan></text><path d="M3001 9501 1 9501 1 8001 6001 8001 6001 9501 3001 9501Z" stroke="#000000" fill="none"/><path d="M3001 1001 3001 1701" stroke="#000000" fill="none"/><path d="M3151 1701 3001 2001 2851 1701 3151 1701Z"/><path d="M3001 3001 3001 3701" stroke="#000000" fill="none"/><path d="M3151 3701 3001 4001 2851 3701 3151 3701Z"/><path d="M3001 5001 3001 5701" stroke="#000000" fill="none"/><path d="M3151 5701 3001 6001 2851 5701 3151 5701Z"/><path d="M3001 7001 3001 7701" stroke="#000000" fill="none"/><path d="M3151 7701 3001 8001 2851 7701 3151 7701Z"/><text><tspan><tspan x="626" y="2477"><tspan font-family="Noto Sans SC,Arial" font-weight="400" font-size="353">创建</tspan><tspan font-family="Liberation Sans,Arial" font-weight="400" font-size="353">rcu_nocb_mask</tspan><tspan font-family="Noto Sans SC,Arial" font-weight="400" font-size="353">隔离掩码</tspan></tspan></tspan></text><path d="M3001 12001 1 12001 1 10501 6001 10501 6001 12001 3001 12001Z" stroke="#000000" fill="none"/><text><tspan><tspan x="151" y="11102"><tspan font-family="Noto Sans SC,Arial" font-weight="400" font-size="353">组织线程， 创建和绑定负责处理这些</tspan></tspan><tspan x="1221" y="11525"><tspan font-family="Noto Sans SC,Arial" font-weight="400" font-size="353">回调的 </tspan><tspan font-family="Liberation Sans,Arial" font-weight="400" font-size="353">rcuo </tspan><tspan font-family="Noto Sans SC,Arial" font-weight="400" font-size="353">内核线程 </tspan></tspan></tspan></text><path d="M3001 9501 3001 10201" stroke="#000000" fill="none"/><path d="M3151 10201 3001 10501 2851 10201 3151 10201Z"/></svg>