<svg width="377.953" height="642.52" viewBox="0 0 10000 17000" xmlns="http://www.w3.org/2000/svg" xmlns:xlink="http://www.w3.org/1999/xlink" stroke-width="28.222" stroke-linejoin="round" xml:space="preserve" overflow="hidden"><path d="M3042 1001 1042 1001 1042 1 5042 1 5042 1001 3042 1001Z" stroke="#000000" fill="none"/><text><tspan><tspan x="2238" y="600"><tspan font-family="Liberation Sans,Arial" font-weight="400" font-size="282">parse_args()</tspan></tspan></tspan></text><path d="M3042 3001 1042 3001 1042 2001 5042 2001 5042 3001 3042 3001Z" stroke="#000000" fill="none"/><text><tspan><tspan x="2278" y="2600"><tspan font-family="Liberation Sans,Arial" font-weight="400" font-size="282">parse_one()</tspan></tspan></tspan></text><path d="M3042 5001 1042 5001 1042 4001 5042 4001 5042 5001 3042 5001Z" stroke="#000000" fill="none"/><text><tspan><tspan x="1471" y="4611"><tspan font-family="Liberation Sans,Arial" font-weight="400" font-size="318">unknown_bootoption()</tspan></tspan></tspan></text><path d="M3042 1001 3042 1701" stroke="#000000" fill="none"/><path d="M3192 1701 3042 2001 2892 1701 3192 1701Z"/><path d="M3042 3001 3042 3701" stroke="#000000" fill="none"/><path d="M3192 3701 3042 4001 2892 3701 3192 3701Z"/><path d="M3042 5001 3042 5701" stroke="#000000" fill="none"/><path d="M3192 5701 3042 6001 2892 5701 3192 5701Z"/><path d="M3042 8001 5042 9001 3042 10002 1042 9001 3042 8001 3042 8001Z" stroke="#000000" fill="none"/><text><tspan><tspan x="2475" y="9116"><tspan font-family="Noto Sans SC,Arial" font-weight="400" font-size="282">旧格式？</tspan></tspan></tspan></text><path d="M3042 7001 1042 7001 1042 6001 5042 6001 5042 7001 3042 7001Z" stroke="#000000" fill="none"/><text><tspan><tspan x="2090" y="6628"><tspan font-family="Noto Sans SC,Arial" font-weight="400" font-size="318">恢复变量格式</tspan></tspan></tspan></text><path d="M3042 11001 5042 12001 3042 13002 1042 12001 3042 11001 3042 11001Z" stroke="#000000" fill="none"/><text><tspan><tspan x="2333" y="12116"><tspan font-family="Noto Sans SC,Arial" font-weight="400" font-size="282">环境变量？</tspan></tspan></tspan></text><path d="M3042 15001 1042 15001 1042 14001 5042 14001 5042 15001 3042 15001Z" stroke="#000000" fill="none"/><text><tspan><tspan x="1539" y="14626"><tspan font-family="Noto Sans SC,Arial" font-weight="400" font-size="318">保存到</tspan><tspan font-family="Liberation Sans,Arial" font-weight="400" font-size="318">envp_init</tspan><tspan font-family="Noto Sans SC,Arial" font-weight="400" font-size="318">数组</tspan></tspan></tspan></text><path d="M8042 15001 6042 15001 6042 14001 10042 14001 10042 15001 8042 15001Z" stroke="#000000" fill="none"/><text><tspan><tspan x="6575" y="14626"><tspan font-family="Noto Sans SC,Arial" font-weight="400" font-size="318">保存到</tspan><tspan font-family="Liberation Sans,Arial" font-weight="400" font-size="318">argv_init</tspan><tspan font-family="Noto Sans SC,Arial" font-weight="400" font-size="318">数组</tspan></tspan></tspan></text><path d="M3042 7001 3042 7701" stroke="#000000" fill="none"/><path d="M3192 7701 3042 8001 2892 7701 3192 7701Z"/><path d="M3042 10001 3042 10701" stroke="#000000" fill="none"/><path d="M3192 10701 3042 11001 2892 10701 3192 10701Z"/><path d="M3042 13001 3042 13701" stroke="#000000" fill="none"/><path d="M3192 13701 3042 14001 2892 13701 3192 13701Z"/><path d="M8042 12001 8042 13701" stroke="#000000" fill="none"/><path d="M8192 13701 8042 14001 7892 13701 8192 13701Z"/><path d="M42 15501 2742 15501" stroke="#000000" fill="none"/><path d="M2742 15351 3042 15501 2742 15651 2742 15351Z"/><path d="M3042 15001 3042 15701" stroke="#000000" fill="none"/><path d="M3192 15701 3042 16001 2892 15701 3192 15701Z"/><path d="M8042 15501 3342 15501" stroke="#000000" fill="none"/><path d="M3342 15651 3042 15501 3342 15351 3342 15651Z"/><path d="M5042 12001 8042 12001" stroke="#000000" fill="none"/><path d="M1042 9001 42 9001" stroke="#000000" fill="none"/><path d="M42 15501 42 9001" stroke="#000000" fill="none"/><path d="M8042 15001 8042 15501" stroke="#000000" fill="none"/><path d="M3042 17001 1042 17001 1042 16001 5042 16001 5042 17001 3042 17001Z" stroke="#000000" fill="none"/><text><tspan><tspan x="2725" y="16628"><tspan font-family="Noto Sans SC,Arial" font-weight="400" font-size="318">返回</tspan></tspan></tspan></text><text><tspan><tspan x="250" y="8790"><tspan font-family="Liberation Sans,Arial" font-weight="400" font-size="282">y</tspan></tspan></tspan></text><text><tspan><tspan x="3546" y="10520"><tspan font-family="Liberation Sans,Arial" font-weight="400" font-size="282">N</tspan></tspan></tspan></text><text><tspan><tspan x="6042" y="11884"><tspan font-family="Liberation Sans,Arial" font-weight="400" font-size="282">N</tspan></tspan></tspan></text><text><tspan><tspan x="3509" y="13460"><tspan font-family="Liberation Sans,Arial" font-weight="400" font-size="282">y</tspan></tspan></tspan></text></svg>