<svg width="151.181" height="415.748" viewBox="0 0 4000 11000" xmlns="http://www.w3.org/2000/svg" xmlns:xlink="http://www.w3.org/1999/xlink" stroke-width="28.222" stroke-linejoin="round" xml:space="preserve" overflow="hidden"><path d="M2001 1001 1 1001 1 1 4001 1 4001 1001 2001 1001Z" stroke="#000000" fill="none"/><text><tspan><tspan x="685" y="600"><tspan font-family="Liberation Sans,Arial" font-weight="400" font-size="282">parse_early_param()</tspan></tspan></tspan></text><path d="M2001 3001 1 3001 1 2001 4001 2001 4001 3001 2001 3001Z" stroke="#000000" fill="none"/><text><tspan><tspan x="466" y="2611"><tspan font-family="Liberation Sans,Arial" font-weight="400" font-size="317">parse_early_options()</tspan></tspan></tspan></text><path d="M2001 5001 1 5001 1 4001 4001 4001 4001 5001 2001 5001Z" stroke="#000000" fill="none"/><text><tspan><tspan x="1197" y="4600"><tspan font-family="Liberation Sans,Arial" font-weight="400" font-size="282">parse_args()</tspan></tspan></tspan></text><path d="M2001 7001 1 7001 1 6001 4001 6001 4001 7001 2001 7001Z" stroke="#000000" fill="none"/><text><tspan><tspan x="1237" y="6600"><tspan font-family="Liberation Sans,Arial" font-weight="400" font-size="282">parse_one()</tspan></tspan></tspan></text><path d="M2001 9001 1 9001 1 8001 4001 8001 4001 9001 2001 9001Z" stroke="#000000" fill="none"/><text><tspan><tspan x="748" y="8611"><tspan font-family="Liberation Sans,Arial" font-weight="400" font-size="317">do_early_param()</tspan></tspan></tspan></text><path d="M2001 11001 1 11001 1 10001 4001 10001 4001 11001 2001 11001Z" stroke="#000000" fill="none"/><text><tspan><tspan x="1213" y="10600"><tspan font-family="Liberation Sans,Arial" font-weight="400" font-size="282">setup_func()</tspan></tspan></tspan></text><path d="M2001 1001 2001 1701" stroke="#000000" fill="none"/><path d="M2151 1701 2001 2001 1851 1701 2151 1701Z"/><path d="M2001 3001 2001 3701" stroke="#000000" fill="none"/><path d="M2151 3701 2001 4001 1851 3701 2151 3701Z"/><path d="M2001 5001 2001 5701" stroke="#000000" fill="none"/><path d="M2151 5701 2001 6001 1851 5701 2151 5701Z"/><path d="M2001 7001 2001 7701" stroke="#000000" fill="none"/><path d="M2151 7701 2001 8001 1851 7701 2151 7701Z"/><path d="M2001 9001 2001 9701" stroke="#000000" fill="none"/><path d="M2151 9701 2001 10001 1851 9701 2151 9701Z"/></svg>