<svg width="604.724" height="381.732" viewBox="0 0 16000 10100" xmlns="http://www.w3.org/2000/svg" xmlns:xlink="http://www.w3.org/1999/xlink" stroke-width="28.222" stroke-linejoin="round" xml:space="preserve" overflow="hidden"><path d="M1501 2000 1 2000 1 1000 3001 1000 3001 2000 1501 2000Z" stroke="#000000" fill="none"/><path d="M1501 3000 1 3000 1 2000 3001 2000 3001 3000 1501 3000Z" stroke="#000000" fill="none"/><text><tspan><tspan x="613" y="2583"><tspan font-family="Liberation Sans,Arial" font-weight="400" font-size="211">rb_root</tspan><tspan font-family="Noto Sans SC,Arial" font-weight="400" font-size="211">（根节点）</tspan></tspan></tspan></text><text><tspan><tspan x="548" y="828"><tspan font-family="Liberation Sans,Arial" font-weight="400" font-size="211">av</tspan><tspan font-family="Noto Sans SC,Arial" font-weight="400" font-size="211">结构体</tspan></tspan></tspan></text><path d="M5001 5000 4001 5000 4001 4000 6001 4000 6001 5000 5001 5000Z" stroke="#000000" fill="none"/><text><tspan><tspan x="4907" y="4572"><tspan font-family="Liberation Sans,Arial" font-weight="400" font-size="211">rb</tspan></tspan></tspan></text><path d="M12001 5000 11001 5000 11001 4000 13001 4000 13001 5000 12001 5000Z" stroke="#000000" fill="none"/><text><tspan><tspan x="11907" y="4572"><tspan font-family="Liberation Sans,Arial" font-weight="400" font-size="211">rb</tspan></tspan></tspan></text><text><tspan><tspan x="3620" y="3838"><tspan font-family="Liberation Sans,Arial" font-weight="400" font-size="211">avc</tspan><tspan font-family="Noto Sans SC,Arial" font-weight="400" font-size="211">结构体</tspan></tspan></tspan></text><path d="M3001 2500 8501 2500" stroke="#000000" fill="none"/><path d="M8501 2500 5277 3882" stroke="#000000" fill="none"/><path d="M5336 4020 5001 4000 5218 3744 5336 4020Z"/><path d="M8501 2500 11725 3882" stroke="#000000" fill="none"/><path d="M11784 3744 12001 4000 11666 4020 11784 3744Z"/><text><tspan><tspan x="12620" y="3828"><tspan font-family="Liberation Sans,Arial" font-weight="400" font-size="211">avc</tspan><tspan font-family="Noto Sans SC,Arial" font-weight="400" font-size="211">结构体</tspan></tspan></tspan></text><path d="M3001 7534 2001 7534 2001 6534 4001 6534 4001 7534 3001 7534Z" stroke="#000000" fill="none"/><text><tspan><tspan x="2907" y="7106"><tspan font-family="Liberation Sans,Arial" font-weight="400" font-size="211">rb</tspan></tspan></tspan></text><path d="M7001 7534 6001 7534 6001 6534 8001 6534 8001 7534 7001 7534Z" stroke="#000000" fill="none"/><text><tspan><tspan x="6907" y="7106"><tspan font-family="Liberation Sans,Arial" font-weight="400" font-size="211">rb</tspan></tspan></tspan></text><path d="M5001 5034 3241 6354" stroke="#000000" fill="none"/><path d="M3331 6474 3001 6534 3151 6234 3331 6474Z"/><path d="M5001 5034 6761 6354" stroke="#000000" fill="none"/><path d="M6851 6234 7001 6534 6671 6474 6851 6234Z"/><text><tspan><tspan x="7495" y="6362"><tspan font-family="Liberation Sans,Arial" font-weight="400" font-size="211">avc</tspan><tspan font-family="Noto Sans SC,Arial" font-weight="400" font-size="211">结构体</tspan></tspan></tspan></text><path d="M10001 7500 9001 7500 9001 6500 11001 6500 11001 7500 10001 7500Z" stroke="#000000" fill="none"/><text><tspan><tspan x="9907" y="7072"><tspan font-family="Liberation Sans,Arial" font-weight="400" font-size="211">rb</tspan></tspan></tspan></text><path d="M14001 7500 13001 7500 13001 6500 15001 6500 15001 7500 14001 7500Z" stroke="#000000" fill="none"/><text><tspan><tspan x="13907" y="7072"><tspan font-family="Liberation Sans,Arial" font-weight="400" font-size="211">rb</tspan></tspan></tspan></text><path d="M12001 5000 10241 6320" stroke="#000000" fill="none"/><path d="M10331 6440 10001 6500 10151 6200 10331 6440Z"/><path d="M12001 5000 13761 6320" stroke="#000000" fill="none"/><path d="M13851 6200 14001 6500 13671 6440 13851 6200Z"/><text><tspan><tspan x="14495" y="6328"><tspan font-family="Liberation Sans,Arial" font-weight="400" font-size="211">avc</tspan><tspan font-family="Noto Sans SC,Arial" font-weight="400" font-size="211">结构体</tspan></tspan></tspan></text><path d="M1030 10059 30 10059 30 9059 2030 9059 2030 10059 1030 10059Z" stroke="#000000" fill="none"/><text><tspan><tspan x="936" y="9631"><tspan font-family="Liberation Sans,Arial" font-weight="400" font-size="211">rb</tspan></tspan></tspan></text><path d="M5030 10059 4030 10059 4030 9059 6030 9059 6030 10059 5030 10059Z" stroke="#000000" fill="none"/><text><tspan><tspan x="4936" y="9631"><tspan font-family="Liberation Sans,Arial" font-weight="400" font-size="211">rb</tspan></tspan></tspan></text><path d="M3030 7559 1270 8879" stroke="#000000" fill="none"/><path d="M1360 8999 1030 9059 1180 8759 1360 8999Z"/><path d="M3030 7559 4790 8879" stroke="#000000" fill="none"/><path d="M4880 8759 5030 9059 4700 8999 4880 8759Z"/><text><tspan><tspan x="5524" y="8887"><tspan font-family="Liberation Sans,Arial" font-weight="400" font-size="211">avc</tspan><tspan font-family="Noto Sans SC,Arial" font-weight="400" font-size="211">结构体</tspan></tspan></tspan></text></svg>