<svg width="623.622" height="642.52" viewBox="0 0 16500 17000" xmlns="http://www.w3.org/2000/svg" xmlns:xlink="http://www.w3.org/1999/xlink" stroke-width="28.222" stroke-linejoin="round" xml:space="preserve" overflow="hidden"><path d="M3265 7009 2015 7009 2015 1009 4515 1009 4515 7009 3265 7009Z" stroke="#000000" fill="none"/><path d="M2015 3009 4515 3009" stroke="#000000" fill="none"/><path d="M2015 4009 4515 4009" stroke="#000000" fill="none"/><path d="M11756 6994 10515 6994 10515 994 12997 994 12997 6994 11756 6994Z" stroke="#000000" fill="none"/><path d="M10515 3009 12997 2994" stroke="#000000" fill="none"/><path d="M10515 4009 12997 3994" stroke="#000000" fill="none"/><path d="M1516 16006 16 16006 16 10006 3016 10006 3016 16006 1516 16006Z" stroke="#000000" fill="none"/><path d="M16 12006 3016 12006" stroke="#000000" fill="none"/><path d="M16 13006 3016 13006" stroke="#000000" fill="none"/><path d="M1 11006 3001 11006" stroke="#000000" fill="none"/><path d="M14509 15992 13009 15992 13009 9992 16009 9992 16009 15992 14509 15992Z" stroke="#000000" fill="none"/><path d="M13009 11992 16009 11992" stroke="#000000" fill="none"/><path d="M13009 12992 16009 12992" stroke="#000000" fill="none"/><path d="M12994 10992 15994 10992" stroke="#000000" fill="none"/><path d="M7530 14009 6030 14009 6030 10009 9030 10009 9030 14009 7530 14009Z" stroke="#000000" fill="none"/><path d="M6030 12009 9030 12009" stroke="#000000" fill="none"/><path d="M6030 13009 9030 13009" stroke="#000000" fill="none"/><path d="M6015 11009 9015 11009" stroke="#000000" fill="none"/><text><tspan><tspan x="2470" y="3592"><tspan font-family="Liberation Sans,Arial" font-weight="400" font-size="211">cset_links(</tspan><tspan font-family="Noto Sans SC,Arial" font-weight="400" font-size="211">表头</tspan><tspan font-family="Liberation Sans,Arial" font-weight="400" font-size="211">)</tspan></tspan></tspan></text><path d="M1516 10006 1516 7007 1515 7007 1515 3509 2015 3509" stroke="#3465A4" fill="none"/><path d="M14515 10009 14515 3509" stroke="#3465A4" fill="none"/><path d="M14515 3509 13015 3509" stroke="#3465A4" fill="none"/><text><tspan><tspan x="10958" y="3592"><tspan font-family="Liberation Sans,Arial" font-weight="400" font-size="211">cgrp_links(</tspan><tspan font-family="Noto Sans SC,Arial" font-weight="400" font-size="211">表头</tspan><tspan font-family="Liberation Sans,Arial" font-weight="400" font-size="211">)</tspan></tspan></tspan></text><text><tspan><tspan x="6273" y="9458"><tspan font-family="Liberation Sans,Arial" font-weight="400" font-size="246">cgrp_cset_links</tspan><tspan font-family="Noto Sans SC,Arial" font-weight="400" font-size="246">结构体</tspan></tspan><tspan x="7269" y="9755"><tspan font-family="Noto Sans SC,Arial" font-weight="400" font-size="246">对象</tspan></tspan></tspan></text><text><tspan><tspan x="421" y="10619"><tspan font-family="Liberation Sans,Arial" font-weight="400" font-size="318">cgrp_cset_links</tspan></tspan></tspan></text><text><tspan><tspan x="421" y="11619"><tspan font-family="Liberation Sans,Arial" font-weight="400" font-size="318">cgrp_cset_links</tspan></tspan></tspan></text><text><tspan><tspan x="421" y="15619"><tspan font-family="Liberation Sans,Arial" font-weight="400" font-size="318">cgrp_cset_links</tspan></tspan></tspan></text><text><tspan><tspan x="13421" y="10619"><tspan font-family="Liberation Sans,Arial" font-weight="400" font-size="318">cgrp_cset_links</tspan></tspan></tspan></text><text><tspan><tspan x="13421" y="12661"><tspan font-family="Liberation Sans,Arial" font-weight="400" font-size="318">cgrp_cset_links</tspan></tspan></tspan></text><text><tspan><tspan x="13391" y="11619"><tspan font-family="Liberation Sans,Arial" font-weight="400" font-size="318">cgrp_cset_links</tspan></tspan></tspan></text><text><tspan><tspan x="13391" y="15619"><tspan font-family="Liberation Sans,Arial" font-weight="400" font-size="318">cgrp_cset_links</tspan></tspan></tspan></text><text><tspan><tspan x="421" y="12619"><tspan font-family="Liberation Sans,Arial" font-weight="400" font-size="318">cgrp_cset_links</tspan></tspan></tspan></text><path d="M15 15009 3015 15009" stroke="#000000" fill="none"/><path d="M13015 15009 16015 15009" stroke="#000000" fill="none"/><text><tspan><tspan x="2341" y="622"><tspan font-family="Liberation Sans,Arial" font-weight="400" font-size="282">cgroup</tspan><tspan font-family="Noto Sans SC,Arial" font-weight="400" font-size="282">结构体对象</tspan></tspan></tspan></text><text><tspan><tspan x="10352" y="622"><tspan font-family="Liberation Sans,Arial" font-weight="400" font-size="282">css_set</tspan><tspan font-family="Noto Sans SC,Arial" font-weight="400" font-size="282">结构体对象</tspan></tspan></tspan></text><path d="M13015 10509 11015 10509" stroke="#000000" fill="none"/><path d="M11015 10509 11015 10009" stroke="#000000" fill="none"/><path d="M11015 10009 9315 10009" stroke="#000000" fill="none"/><path d="M9315 10159 9015 10009 9315 9859 9315 10159Z"/><path d="M3015 12509 5015 12509" stroke="#000000" fill="none"/><path d="M5015 12509 5015 10009" stroke="#000000" fill="none"/><path d="M5015 10009 5715 10009" stroke="#000000" fill="none"/><path d="M5715 9859 6015 10009 5715 10159 5715 9859Z"/><text><tspan><tspan x="7136" y="10644"><tspan font-family="Liberation Sans,Arial" font-weight="400" font-size="388">cgrp</tspan></tspan></tspan></text><text><tspan><tspan x="7096" y="11668"><tspan font-family="Liberation Sans,Arial" font-weight="400" font-size="458">cset</tspan></tspan></tspan></text><text><tspan><tspan x="6963" y="12478"><tspan font-family="Liberation Sans,Arial" font-weight="400" font-size="282">cset_link</tspan></tspan></tspan><tspan><tspan x="6637" y="12750"><tspan font-family="Noto Sans SC,Arial" font-weight="400" font-size="211">用于链接</tspan><tspan font-family="Liberation Sans,Arial" font-weight="400" font-size="211">cset</tspan><tspan font-family="Noto Sans SC,Arial" font-weight="400" font-size="211">链表</tspan></tspan></tspan></text><text><tspan><tspan x="7023" y="13466"><tspan font-family="Liberation Sans,Arial" font-weight="400" font-size="246">cgrp_link</tspan></tspan></tspan><tspan><tspan x="6625" y="13729"><tspan font-family="Noto Sans SC,Arial" font-weight="400" font-size="211">用于链接</tspan><tspan font-family="Liberation Sans,Arial" font-weight="400" font-size="211">cgrp</tspan><tspan font-family="Noto Sans SC,Arial" font-weight="400" font-size="211">链表</tspan></tspan></tspan></text><path d="M6015 10509 5515 10509" stroke="#000000" fill="none"/><path d="M5515 10509 5515 1009" stroke="#000000" fill="none"/><path d="M5515 1009 4815 1009" stroke="#000000" fill="none"/><path d="M4815 1159 4515 1009 4815 859 4815 1159Z"/><path d="M9515 11509 9500 965" stroke="#000000" fill="none"/><path d="M9015 11509 9515 11509" stroke="#000000" fill="none"/><path d="M9515 1009 10215 1009" stroke="#000000" fill="none"/><path d="M10215 859 10515 1009 10215 1159 10215 859Z"/><text><tspan><tspan x="14265" y="16704"><tspan font-family="Liberation Sans,Arial" font-weight="400" font-size="246">cset</tspan><tspan font-family="Noto Sans SC,Arial" font-weight="400" font-size="246">链表</tspan></tspan></tspan></text><text><tspan><tspan x="1128" y="16732"><tspan font-family="Liberation Sans,Arial" font-weight="400" font-size="246">cgrp</tspan><tspan font-family="Noto Sans SC,Arial" font-weight="400" font-size="246">链表</tspan></tspan></tspan></text></svg>