<svg width="264.567" height="566.929" viewBox="0 0 7000 15000" xmlns="http://www.w3.org/2000/svg" xmlns:xlink="http://www.w3.org/1999/xlink" stroke-width="28.222" stroke-linejoin="round" xml:space="preserve" overflow="hidden"><path d="M3501 6001 1 6001 1 3001 7001 3001 7001 6001 3501 6001Z" stroke="#000000" fill="none"/><path d="M3501 10000 1 10000 1 7749 7001 7749 7001 10000 3501 10000Z" stroke="#000000" fill="none"/><path d="M3501 15001 1 15001 1 12001 7001 12001 7001 15001 3501 15001Z" stroke="#000000" fill="none"/><path d="M3501 2001 1 2001 1 1 7001 1 7001 2001 3501 2001Z" stroke="#000000" fill="none"/><text><tspan><tspan x="1596" y="761"><tspan font-family="Noto Sans SC,Arial" font-weight="400" font-size="635">驱动程序调用</tspan></tspan></tspan><tspan><tspan x="1228" y="1523"><tspan font-family="Liberation Sans,Arial" font-weight="400" font-size="370">request_irq/free_irq</tspan><tspan font-family="Noto Sans SC,Arial" font-weight="400" font-size="635">函数</tspan></tspan></tspan></text><text><tspan><tspan x="320" y="4011"><tspan font-family="Noto Sans SC,Arial" font-weight="400" font-size="635">通用中断层利</tspan><tspan font-family="Liberation Sans,Arial" font-weight="400" font-size="635">irq_desc</tspan></tspan></tspan><tspan><tspan x="1154" y="4722"><tspan font-family="Liberation Sans,Arial" font-weight="400" font-size="635">irq_chip/irq_data</tspan></tspan></tspan><tspan><tspan x="960" y="5492"><tspan font-family="Liberation Sans,Arial" font-weight="400" font-size="635">irqaction</tspan><tspan font-family="Noto Sans SC,Arial" font-weight="400" font-size="635">提供接口</tspan></tspan></tspan></text><text><tspan><tspan x="1278" y="8745"><tspan font-family="Noto Sans SC,Arial" font-weight="400" font-size="635">中断控制器驱动</tspan></tspan><tspan x="1783" y="9507"><tspan font-family="Noto Sans SC,Arial" font-weight="400" font-size="635">（</tspan><tspan font-family="Liberation Sans,Arial" font-weight="400" font-size="635">irqchip</tspan><tspan font-family="Noto Sans SC,Arial" font-weight="400" font-size="635">）</tspan></tspan></tspan></text><text><tspan><tspan x="359" y="12985"><tspan font-family="Noto Sans SC,Arial" font-weight="400" font-size="635">    中断控制器（硬件，</tspan></tspan><tspan x="433" y="13747"><tspan font-family="Noto Sans SC,Arial" font-weight="400" font-size="635">有</tspan><tspan font-family="Liberation Sans,Arial" font-weight="400" font-size="635">GIC</tspan><tspan font-family="Noto Sans SC,Arial" font-weight="400" font-size="635">、</tspan><tspan font-family="Liberation Sans,Arial" font-weight="400" font-size="635">APIC</tspan><tspan font-family="Noto Sans SC,Arial" font-weight="400" font-size="635">、</tspan><tspan font-family="Liberation Sans,Arial" font-weight="400" font-size="635">IO-</tspan></tspan><tspan x="2054" y="14517"><tspan font-family="Liberation Sans,Arial" font-weight="400" font-size="635">APIC</tspan><tspan font-family="Noto Sans SC,Arial" font-weight="400" font-size="635">等）</tspan></tspan></tspan></text><path d="M3501 2301 3501 2701" stroke="#000000" fill="none"/><path d="M3351 2301 3501 2001 3651 2301 3351 2301Z"/><path d="M3651 2701 3501 3001 3351 2701 3651 2701Z"/><path d="M3251 6301 3251 7451" stroke="#000000" fill="none"/><path d="M3101 6301 3251 6001 3401 6301 3101 6301Z"/><path d="M3401 7451 3251 7751 3101 7451 3401 7451Z"/><path d="M3501 10301 3501 11701" stroke="#000000" fill="none"/><path d="M3351 10301 3501 10001 3651 10301 3351 10301Z"/><path d="M3651 11701 3501 12001 3351 11701 3651 11701Z"/></svg>