<svg width="245.669" height="737.008" viewBox="0 0 6500 19500" xmlns="http://www.w3.org/2000/svg" xmlns:xlink="http://www.w3.org/1999/xlink" stroke-width="28.222" stroke-linejoin="round" xml:space="preserve" overflow="hidden"><path d="M3034 3002 34 3002 34 2002 6034 2002 6034 3002 3034 3002Z" stroke="#000000" fill="none"/><path d="M3034 5002 34 5002 34 4002 6034 4002 6034 5002 3034 5002Z" stroke="#000000" fill="none"/><path d="M3034 7002 34 7002 34 6002 6034 6002 6034 7002 3034 7002Z" stroke="#000000" fill="none"/><path d="M3034 9002 34 9002 34 8002 6034 8002 6034 9002 3034 9002Z" stroke="#000000" fill="none"/><path d="M3034 11002 34 11002 34 10002 6034 10002 6034 11002 3034 11002Z" stroke="#000000" fill="none"/><path d="M3034 13002 34 13002 34 12002 6034 12002 6034 13002 3034 13002Z" stroke="#000000" fill="none"/><path d="M3034 15002 34 15002 34 14002 6034 14002 6034 15002 3034 15002Z" stroke="#000000" fill="none"/><path d="M3034 17002 34 17002 34 16002 6034 16002 6034 17002 3034 17002Z" stroke="#000000" fill="none"/><path d="M3034 19002 34 19002 34 18002 6034 18002 6034 19002 3034 19002Z" stroke="#000000" fill="none"/><path d="M3001 1001 1 1001 1 1 6001 1 6001 1001 3001 1001Z" stroke="#000000" fill="none"/><text><tspan><tspan x="446" y="623"><tspan font-family="Liberation Sans,Arial" font-weight="400" font-size="353">kernel_thread(kernel_init,NULL,,)</tspan></tspan></tspan></text><text><tspan><tspan x="1867" y="2631"><tspan font-family="Liberation Sans,Arial" font-weight="400" font-size="370">kernel_clone()</tspan></tspan></tspan></text><text><tspan><tspan x="1765" y="4631"><tspan font-family="Liberation Sans,Arial" font-weight="400" font-size="370">copy_process()</tspan></tspan></tspan></text><text><tspan><tspan x="1898" y="6631"><tspan font-family="Liberation Sans,Arial" font-weight="400" font-size="370">copy_thread()</tspan></tspan></tspan></text><text><tspan><tspan x="284" y="8464"><tspan font-family="Liberation Sans,Arial" font-weight="400" font-size="282">copy_thread()</tspan><tspan font-family="Noto Sans SC,Arial" font-weight="400" font-size="282">在新任务内核栈中伪造首次运</tspan></tspan><tspan x="2609" y="8807"><tspan font-family="Noto Sans SC,Arial" font-weight="400" font-size="282">行现场</tspan></tspan></tspan></text><text><tspan><tspan x="528" y="10452"><tspan font-family="Liberation Sans,Arial" font-weight="400" font-size="282">wake_up_new_task()</tspan><tspan font-family="Noto Sans SC,Arial" font-weight="400" font-size="282">唤醒新创建的任务</tspan></tspan><tspan x="1235" y="10795"><tspan font-family="Noto Sans SC,Arial" font-weight="400" font-size="282">（入口函数位</tspan><tspan font-family="Liberation Sans,Arial" font-weight="400" font-size="282">kernel_init()</tspan><tspan font-family="Noto Sans SC,Arial" font-weight="400" font-size="282">）</tspan></tspan></tspan></text><text><tspan><tspan x="1474" y="12617"><tspan font-family="Noto Sans SC,Arial" font-weight="400" font-size="282">调度器第一次选中新任务</tspan></tspan></tspan></text><text><tspan><tspan x="1757" y="14617"><tspan font-family="Noto Sans SC,Arial" font-weight="400" font-size="282">上下文切换到该任务</tspan></tspan></tspan></text><text><tspan><tspan x="959" y="16615"><tspan font-family="Noto Sans SC,Arial" font-weight="400" font-size="282">从</tspan><tspan font-family="Liberation Sans,Arial" font-weight="400" font-size="282">copy_thread()</tspan><tspan font-family="Noto Sans SC,Arial" font-weight="400" font-size="282">伪造的现场返回</tspan></tspan></tspan></text><text><tspan><tspan x="1613" y="18615"><tspan font-family="Noto Sans SC,Arial" font-weight="400" font-size="282">调用</tspan><tspan font-family="Liberation Sans,Arial" font-weight="400" font-size="282">kernel_init(NULL)</tspan></tspan></tspan></text><path d="M3034 1002 3034 1702" stroke="#000000" fill="none"/><path d="M3184 1702 3034 2002 2884 1702 3184 1702Z"/><path d="M3034 3002 3034 3702" stroke="#000000" fill="none"/><path d="M3184 3702 3034 4002 2884 3702 3184 3702Z"/><path d="M3034 5002 3034 5702" stroke="#000000" fill="none"/><path d="M3184 5702 3034 6002 2884 5702 3184 5702Z"/><path d="M3034 7002 3034 7702" stroke="#000000" fill="none"/><path d="M3184 7702 3034 8002 2884 7702 3184 7702Z"/><path d="M3034 9002 3034 9702" stroke="#000000" fill="none"/><path d="M3184 9702 3034 10002 2884 9702 3184 9702Z"/><path d="M3034 11002 3034 11702" stroke="#000000" fill="none"/><path d="M3184 11702 3034 12002 2884 11702 3184 11702Z"/><path d="M3034 13002 3034 13702" stroke="#000000" fill="none"/><path d="M3184 13702 3034 14002 2884 13702 3184 13702Z"/><path d="M3034 15002 3034 15702" stroke="#000000" fill="none"/><path d="M3184 15702 3034 16002 2884 15702 3184 15702Z"/><path d="M3034 17002 3034 17702" stroke="#000000" fill="none"/><path d="M3184 17702 3034 18002 2884 17702 3184 17702Z"/><path d="M6534 18002 6534 19502" stroke="#000000" fill="none"/></svg>