<svg width="453.543" height="340.157" viewBox="0 0 12000 9000" xmlns="http://www.w3.org/2000/svg" xmlns:xlink="http://www.w3.org/1999/xlink" stroke-width="28.222" stroke-linejoin="round" xml:space="preserve" overflow="hidden"><path d="M6001 1001 4001 1001 4001 1 8001 1 8001 1001 6001 1001Z" stroke="#000000" fill="none"/><path d="M6001 3001 2001 3001 2001 2001 10001 2001 10001 3001 6001 3001Z" stroke="#000000" fill="none"/><path d="M6001 5001 1 5001 1 4001 12001 4001 12001 5001 6001 5001Z" stroke="#000000" fill="none"/><text><tspan><tspan x="996" y="4442"><tspan font-family="Noto Sans SC,Arial" font-weight="400" font-size="353">调用</tspan><tspan font-family="Liberation Sans,Arial" font-weight="400" font-size="353">twd_local_timer_of_register</tspan><tspan font-family="Noto Sans SC,Arial" font-weight="400" font-size="353">，函数位于</tspan><tspan font-family="Liberation Sans,Arial" font-weight="400" font-size="353">git/arch/arm/kernel/</tspan></tspan><tspan x="5162" y="4836"><tspan font-family="Liberation Sans,Arial" font-weight="400" font-size="353">smp_twd.c</tspan></tspan></tspan></text><path d="M6001 7001 1 7001 1 6001 12001 6001 12001 7001 6001 7001Z" stroke="#000000" fill="none"/><text><tspan><tspan x="509" y="6442"><tspan font-family="Noto Sans SC,Arial" font-weight="400" font-size="353">调用</tspan><tspan font-family="Liberation Sans,Arial" font-weight="400" font-size="353">twd_local_timer_common_register</tspan><tspan font-family="Noto Sans SC,Arial" font-weight="400" font-size="353">，</tspan><tspan font-family="Noto Sans SC,Arial" font-weight="400" font-size="353">函数位于</tspan><tspan font-family="Liberation Sans,Arial" font-weight="400" font-size="353">git/arch/arm/kerne/</tspan></tspan><tspan x="5162" y="6836"><tspan font-family="Liberation Sans,Arial" font-weight="400" font-size="353">smp_twd.c</tspan></tspan></tspan></text><text><tspan><tspan x="4836" y="639"><tspan font-family="Noto Sans SC,Arial" font-weight="400" font-size="353">执行</tspan><tspan font-family="Liberation Sans,Arial" font-weight="400" font-size="353">time_init()</tspan></tspan></tspan></text><text><tspan><tspan x="3093" y="2462"><tspan font-family="Noto Sans SC,Arial" font-weight="400" font-size="318">调用</tspan><tspan font-family="Liberation Sans,Arial" font-weight="400" font-size="318">timer_probe()</tspan><tspan font-family="Noto Sans SC,Arial" font-weight="400" font-size="318">，函数位于</tspan><tspan font-family="Liberation Sans,Arial" font-weight="400" font-size="318">git/drivers/</tspan></tspan><tspan x="4184" y="2818"><tspan font-family="Liberation Sans,Arial" font-weight="400" font-size="318">clocksource/timer-probe.c</tspan></tspan></tspan></text><path d="M6001 9001 3001 9001 3001 8001 9001 8001 9001 9001 6001 9001Z" stroke="#000000" fill="none"/><text><tspan><tspan x="3919" y="8639"><tspan font-family="Noto Sans SC,Arial" font-weight="400" font-size="353">为 </tspan><tspan font-family="Liberation Sans,Arial" font-weight="400" font-size="353">late_time_init </tspan><tspan font-family="Noto Sans SC,Arial" font-weight="400" font-size="353">指针赋值</tspan></tspan></tspan></text><path d="M6001 1001 6001 1701" stroke="#000000" fill="none"/><path d="M6151 1701 6001 2001 5851 1701 6151 1701Z"/><path d="M6001 3001 6001 3701" stroke="#000000" fill="none"/><path d="M6151 3701 6001 4001 5851 3701 6151 3701Z"/><path d="M6001 5001 6001 5701" stroke="#000000" fill="none"/><path d="M6151 5701 6001 6001 5851 5701 6151 5701Z"/><path d="M6001 7001 6001 7701" stroke="#000000" fill="none"/><path d="M6151 7701 6001 8001 5851 7701 6151 7701Z"/></svg>