<svg width="151.181" height="491.339" viewBox="0 0 4000 13000" xmlns="http://www.w3.org/2000/svg" xmlns:xlink="http://www.w3.org/1999/xlink" stroke-width="28.222" stroke-linejoin="round" xml:space="preserve" overflow="hidden"><path d="M2001 1001 1 1001 1 1 4001 1 4001 1001 2001 1001Z" stroke="#000000" fill="none"/><path d="M2001 3001 1 3001 1 2001 4001 2001 4001 3001 2001 3001Z" stroke="#000000" fill="none"/><path d="M2001 5001 1 5001 1 4001 4001 4001 4001 5001 2001 5001Z" stroke="#000000" fill="none"/><path d="M2001 7001 1 7001 1 6001 4001 6001 4001 7001 2001 7001Z" stroke="#000000" fill="none"/><path d="M2001 9001 1 9001 1 8001 4001 8001 4001 9001 2001 9001Z" stroke="#000000" fill="none"/><path d="M2001 11001 1 11001 1 10001 4001 10001 4001 11001 2001 11001Z" stroke="#000000" fill="none"/><path d="M2001 13001 1 13001 1 12001 4001 12001 4001 13001 2001 13001Z" stroke="#000000" fill="none"/><path d="M2001 1001 2001 1701" stroke="#000000" fill="none"/><path d="M2151 1701 2001 2001 1851 1701 2151 1701Z"/><path d="M2001 3001 2001 3701" stroke="#000000" fill="none"/><path d="M2151 3701 2001 4001 1851 3701 2151 3701Z"/><path d="M2001 5001 2001 5701" stroke="#000000" fill="none"/><path d="M2151 5701 2001 6001 1851 5701 2151 5701Z"/><path d="M2001 7001 2001 7701" stroke="#000000" fill="none"/><path d="M2151 7701 2001 8001 1851 7701 2151 7701Z"/><path d="M2001 9001 2001 9701" stroke="#000000" fill="none"/><path d="M2151 9701 2001 10001 1851 9701 2151 9701Z"/><path d="M2001 11001 2001 11701" stroke="#000000" fill="none"/><path d="M2151 11701 2001 12001 1851 11701 2151 11701Z"/><text><tspan><tspan x="402" y="598"><tspan font-family="Noto Sans SC,Arial" font-weight="400" font-size="246">内核</tspan><tspan font-family="Liberation Sans,Arial" font-weight="400" font-size="246">kernel_execve(/sbin/init)</tspan></tspan></tspan></text><text><tspan><tspan x="1009" y="2599"><tspan font-family="Noto Sans SC,Arial" font-weight="400" font-size="246">加载</tspan><tspan font-family="Liberation Sans,Arial" font-weight="400" font-size="246">systemd ELF</tspan></tspan></tspan></text><text><tspan><tspan x="1085" y="4614"><tspan font-family="Noto Sans SC,Arial" font-weight="400" font-size="282">加载</tspan><tspan font-family="Liberation Sans,Arial" font-weight="400" font-size="282">ld.so ELF</tspan></tspan></tspan></text><text><tspan><tspan x="594" y="6614"><tspan font-family="Noto Sans SC,Arial" font-weight="400" font-size="282">从</tspan><tspan font-family="Liberation Sans,Arial" font-weight="400" font-size="282">ld.so</tspan><tspan font-family="Noto Sans SC,Arial" font-weight="400" font-size="282">入口运行</tspan><tspan font-family="Liberation Sans,Arial" font-weight="400" font-size="282">ld.so</tspan></tspan></tspan></text><text><tspan><tspan x="368" y="8442"><tspan font-family="Liberation Sans,Arial" font-weight="400" font-size="282">ld.so</tspan><tspan font-family="Noto Sans SC,Arial" font-weight="400" font-size="282">初始化</tspan><tspan font-family="Liberation Sans,Arial" font-weight="400" font-size="282">systemd</tspan><tspan font-family="Noto Sans SC,Arial" font-weight="400" font-size="282">，加</tspan></tspan><tspan x="557" y="8785"><tspan font-family="Noto Sans SC,Arial" font-weight="400" font-size="282">载</tspan><tspan font-family="Liberation Sans,Arial" font-weight="400" font-size="282">systemd</tspan><tspan font-family="Noto Sans SC,Arial" font-weight="400" font-size="282">的依赖组件</tspan></tspan></tspan></text><text><tspan><tspan x="801" y="10614"><tspan font-family="Noto Sans SC,Arial" font-weight="400" font-size="282">跳转</tspan><tspan font-family="Liberation Sans,Arial" font-weight="400" font-size="282">systemd_start</tspan></tspan></tspan></text><text><tspan><tspan x="666" y="12626"><tspan font-family="Noto Sans SC,Arial" font-weight="400" font-size="317">执行</tspan><tspan font-family="Liberation Sans,Arial" font-weight="400" font-size="317">systemd main</tspan></tspan></tspan></text></svg>