<svg width="351.496" height="313.701" viewBox="0 0 9300 8300" xmlns="http://www.w3.org/2000/svg" xmlns:xlink="http://www.w3.org/1999/xlink" stroke-width="28.222" stroke-linejoin="round" xml:space="preserve" overflow="hidden"><path d="M1126 8250 1 8250 1 1500 2251 1500 2251 8250 1126 8250Z" stroke="#000000" fill="none"/><path d="M6991 2741 4731 2741 4731 2241 9250 2241 9250 2741 6991 2741Z" stroke="#000000" fill="none"/><path d="M7001 3500 4751 3500 4751 3000 9251 3000 9251 3500 7001 3500Z" stroke="#000000" fill="none"/><path d="M7001 1000 4751 1000 4751 500 9251 500 9251 1000 7001 1000Z" stroke="#000000" fill="none"/><path d="M7001 6750 4751 6750 4751 6250 9251 6250 9251 6750 7001 6750Z" stroke="#000000" fill="none"/><text><tspan><tspan x="316" y="1252"><tspan font-family="Liberation Sans,Arial" font-weight="400" font-size="190">key_types_list</tspan><tspan font-family="Noto Sans SC,Arial" font-weight="400" font-size="190">链表</tspan></tspan></tspan></text><path d="M1126 3500 1 3500 1 1500 2251 1500 2251 3500 1126 3500Z" stroke="#000000" fill="none"/><path d="M1126 5000 1 5000 1 4000 2251 4000 2251 5000 1126 5000Z" stroke="#000000" fill="none"/><path d="M1126 6250 1 6250 1 5250 2251 5250 2251 6250 1126 6250Z" stroke="#000000" fill="none"/><text><tspan><tspan x="450" y="2560"><tspan font-family="Liberation Sans,Arial" font-weight="400" font-size="172">key_type_keyring</tspan></tspan></tspan></text><text><tspan><tspan x="570" y="4574"><tspan font-family="Liberation Sans,Arial" font-weight="400" font-size="172">key_type_user</tspan></tspan></tspan></text><text><tspan><tspan x="518" y="6810"><tspan font-family="Liberation Sans,Arial" font-weight="400" font-size="172">key_type_logon</tspan></tspan></tspan></text><path d="M7001 7500 4751 7500 4751 7000 9251 7000 9251 7500 7001 7500Z" stroke="#000000" fill="none"/><path d="M7001 8250 4751 8250 4751 7750 9251 7750 9251 8250 7001 8250Z" stroke="#000000" fill="none"/><path d="M3251 500 3251 3250" stroke="#000000" fill="none"/><path d="M4751 750 3551 750" stroke="#000000" fill="none"/><path d="M3551 900 3251 750 3551 600 3551 900Z"/><path d="M4751 2500 3551 2500" stroke="#000000" fill="none"/><path d="M3551 2650 3251 2500 3551 2350 3551 2650Z"/><path d="M4751 3250 3551 3250" stroke="#000000" fill="none"/><path d="M3551 3400 3251 3250 3551 3100 3551 3400Z"/><path d="M3251 2500 2551 2500" stroke="#000000" fill="none"/><path d="M2551 2650 2251 2500 2551 2350 2551 2650Z"/><path d="M3251 6500 3251 8250" stroke="#000000" fill="none"/><path d="M4751 6500 3551 6500" stroke="#000000" fill="none"/><path d="M3551 6650 3251 6500 3551 6350 3551 6650Z"/><path d="M4751 7250 3551 7250" stroke="#000000" fill="none"/><path d="M3551 7400 3251 7250 3551 7100 3551 7400Z"/><path d="M4751 8000 3551 8000" stroke="#000000" fill="none"/><path d="M3551 8150 3251 8000 3551 7850 3551 8150Z"/><path d="M3251 7250 2551 7250" stroke="#000000" fill="none"/><path d="M2551 7400 2251 7250 2551 7100 2551 7400Z"/><text><tspan><tspan x="5399" y="775"><tspan font-family="Liberation Sans,Arial" font-weight="400" font-size="172">thread_keyring-&gt;type=&amp;</tspan><tspan font-family="Liberation Sans,Arial" font-weight="400" font-size="173">key_type_keyring</tspan></tspan></tspan></text><text><tspan><tspan x="5351" y="2560"><tspan font-family="Liberation Sans,Arial" font-weight="400" font-size="172">session_keyring-&gt;type</tspan><tspan font-family="Liberation Sans,Arial" font-weight="400" font-size="173">=&amp;</tspan><tspan font-family="Liberation Sans,Arial" font-weight="400" font-size="173">key_type_keyring</tspan></tspan></tspan></text><text><tspan><tspan x="6100" y="3344"><tspan font-family="Liberation Sans,Arial" font-weight="400" font-size="155">process_keyring-&gt;type=...</tspan></tspan></tspan></text><text><tspan><tspan x="5687" y="6549"><tspan font-family="Liberation Sans,Arial" font-weight="400" font-size="141">userA:1000@tty1-&gt;type=&amp;key_type_logon</tspan></tspan></tspan></text><text><tspan><tspan x="6155" y="7314"><tspan font-family="Liberation Sans,Arial" font-weight="400" font-size="141">userB:1000@tty2</tspan><tspan font-family="Liberation Sans,Arial" font-weight="400" font-size="141">-&gt;type=...</tspan></tspan></tspan></text><text><tspan><tspan x="6161" y="8049"><tspan font-family="Liberation Sans,Arial" font-weight="400" font-size="141">userC:1000@tty3</tspan><tspan font-family="Liberation Sans,Arial" font-weight="400" font-size="141">-&gt;type=...</tspan></tspan></tspan></text><text><tspan><tspan x="925" y="5816"><tspan font-family="Liberation Sans,Arial" font-weight="400" font-size="190">•</tspan><tspan font-family="Liberation Sans,Arial" font-weight="400" font-size="190">••••</tspan><tspan font-family="Liberation Sans,Arial" font-weight="400" font-size="190">•</tspan></tspan></tspan></text><path d="M7001 4250 4751 4250 4751 3750 9251 3750 9251 4250 7001 4250Z" stroke="#000000" fill="none"/><path d="M7001 5000 4751 5000 4751 4500 9251 4500 9251 5000 7001 5000Z" stroke="#000000" fill="none"/><path d="M7001 5750 4751 5750 4751 5250 9251 5250 9251 5750 7001 5750Z" stroke="#000000" fill="none"/><path d="M3251 4000 3251 5750" stroke="#000000" fill="none"/><path d="M4751 4000 3551 4000" stroke="#000000" fill="none"/><path d="M3551 4150 3251 4000 3551 3850 3551 4150Z"/><path d="M4751 4750 3551 4750" stroke="#000000" fill="none"/><path d="M3551 4900 3251 4750 3551 4600 3551 4900Z"/><path d="M4751 5500 3551 5500" stroke="#000000" fill="none"/><path d="M3551 5650 3251 5500 3551 5350 3551 5650Z"/><path d="M3251 4750 2551 4750" stroke="#000000" fill="none"/><path d="M2551 4900 2251 4750 2551 4600 2551 4900Z"/><text><tspan><tspan x="5889" y="4060"><tspan font-family="Liberation Sans,Arial" font-weight="400" font-size="141">mytoken-&gt;type=&amp;</tspan><tspan font-family="Liberation Sans,Arial" font-weight="400" font-size="173">key_type_user</tspan></tspan></tspan></text><text><tspan><tspan x="5761" y="4810"><tspan font-family="Liberation Sans,Arial" font-weight="400" font-size="141">mypasscode-&gt;type=&amp;</tspan><tspan font-family="Liberation Sans,Arial" font-weight="400" font-size="173">key_type_user</tspan></tspan></tspan></text><text><tspan><tspan x="6504" y="5549"><tspan font-family="Liberation Sans,Arial" font-weight="400" font-size="141">mykey</tspan><tspan font-family="Liberation Sans,Arial" font-weight="400" font-size="141">-&gt;type=...</tspan></tspan></tspan></text><text><tspan><tspan x="6477" y="282"><tspan font-family="Liberation Sans,Arial" font-weight="400" font-size="172">Struct key</tspan></tspan></tspan></text></svg>