<svg width="529.134" height="491.339" viewBox="0 0 14000 13000" xmlns="http://www.w3.org/2000/svg" xmlns:xlink="http://www.w3.org/1999/xlink" stroke-width="28.222" stroke-linejoin="round" xml:space="preserve" overflow="hidden"><path d="M4001 1001 2001 1001 2001 1 6001 1 6001 1001 4001 1001Z" stroke="#000000" fill="none"/><text><tspan><tspan x="3196" y="584"><tspan font-family="Liberation Sans,Arial" font-weight="400" font-size="211">Linux</tspan><tspan font-family="Noto Sans SC,Arial" font-weight="400" font-size="211">内核初始化</tspan></tspan></tspan></text><path d="M4001 3001 2001 3001 2001 2001 6001 2001 6001 3001 4001 3001Z" stroke="#000000" fill="none"/><text><tspan><tspan x="3130" y="2584"><tspan font-family="Noto Sans SC,Arial" font-weight="400" font-size="211">解压</tspan><tspan font-family="Liberation Sans,Arial" font-weight="400" font-size="211">initramfs</tspan><tspan font-family="Noto Sans SC,Arial" font-weight="400" font-size="211">文件</tspan></tspan></tspan></text><path d="M4001 4001 8002 5001 4001 6002 1 5001 4001 4001 4001 4001Z" stroke="#000000" fill="none"/><text><tspan><tspan x="2312" y="4954"><tspan font-family="Liberation Sans,Arial" font-weight="400" font-size="211">ramdisk_execute_command</tspan><tspan font-family="Noto Sans SC,Arial" font-weight="400" font-size="211">指定的</tspan></tspan><tspan x="3101" y="5213"><tspan font-family="Liberation Sans,Arial" font-weight="400" font-size="211">init</tspan><tspan font-family="Noto Sans SC,Arial" font-weight="400" font-size="211">文件是否存在？</tspan></tspan></tspan></text><path d="M4001 10001 2001 10001 2001 7001 6001 7001 6001 10001 4001 10001Z" stroke="#000000" fill="none"/><text><tspan><tspan x="2311" y="7944"><tspan font-family="Noto Sans SC,Arial" font-weight="400" font-size="211">执行</tspan><tspan font-family="Liberation Sans,Arial" font-weight="400" font-size="211">initramfs</tspan><tspan font-family="Noto Sans SC,Arial" font-weight="400" font-size="211">内的</tspan><tspan font-family="Liberation Sans,Arial" font-weight="400" font-size="211">init</tspan><tspan font-family="Noto Sans SC,Arial" font-weight="400" font-size="211">程序，进行：</tspan></tspan></tspan><tspan><tspan x="3155" y="8203"><tspan font-family="Noto Sans SC,Arial" font-weight="400" font-size="211">挂载基础文件系统</tspan></tspan></tspan><tspan><tspan x="2837" y="8457"><tspan font-family="Noto Sans SC,Arial" font-weight="400" font-size="211">加载存储控制器驱动程序</tspan></tspan></tspan><tspan><tspan x="3155" y="8711"><tspan font-family="Noto Sans SC,Arial" font-weight="400" font-size="211">查找并激活根分区</tspan></tspan></tspan><tspan><tspan x="2481" y="8965"><tspan font-family="Noto Sans SC,Arial" font-weight="400" font-size="211">运行磁盘上的</tspan><tspan font-family="Liberation Sans,Arial" font-weight="400" font-size="211">/sbin/init</tspan><tspan font-family="Noto Sans SC,Arial" font-weight="400" font-size="211">（一般为</tspan></tspan><tspan x="3478" y="9224"><tspan font-family="Liberation Sans,Arial" font-weight="400" font-size="211">systemd</tspan><tspan font-family="Noto Sans SC,Arial" font-weight="400" font-size="211">）</tspan></tspan></tspan></text><path d="M12001 10001 10001 10001 10001 7001 14001 7001 14001 10001 12001 10001Z" stroke="#000000" fill="none"/><text><tspan><tspan x="10276" y="7989"><tspan font-family="Noto Sans SC,Arial" font-weight="400" font-size="211">调用</tspan><tspan font-family="Liberation Sans,Arial" font-weight="400" font-size="211">prepare_namespace()</tspan><tspan font-family="Noto Sans SC,Arial" font-weight="400" font-size="211">，进行：</tspan></tspan></tspan><tspan><tspan x="11155" y="8227"><tspan font-family="Liberation Sans,Arial" font-weight="400" font-size="211">处理内核启动参数</tspan></tspan></tspan><tspan><tspan x="10819" y="8465"><tspan font-family="Liberation Sans,Arial" font-weight="400" font-size="211">检查并加载</tspan><tspan font-family="Liberation Sans,Arial" font-weight="400" font-size="211">initrd/ramdisk</tspan></tspan></tspan><tspan><tspan x="11260" y="8703"><tspan font-family="Liberation Sans,Arial" font-weight="400" font-size="211">挂载根文件系统</tspan></tspan></tspan><tspan><tspan x="11472" y="8941"><tspan font-family="Liberation Sans,Arial" font-weight="400" font-size="211">切换根目录</tspan></tspan></tspan><tspan><tspan x="10955" y="9179"><tspan font-family="Liberation Sans,Arial" font-weight="400" font-size="211">运行磁盘上的</tspan><tspan font-family="Liberation Sans,Arial" font-weight="400" font-size="211">/sbin/init</tspan></tspan></tspan></text><path d="M4001 13001 2001 13001 2001 12001 6001 12001 6001 13001 4001 13001Z" stroke="#000000" fill="none"/><text><tspan><tspan x="2336" y="12584"><tspan font-family="Noto Sans SC,Arial" font-weight="400" font-size="211">运行用户态</tspan><tspan font-family="Liberation Sans,Arial" font-weight="400" font-size="211">init</tspan><tspan font-family="Noto Sans SC,Arial" font-weight="400" font-size="211">，加载各种服务程序</tspan></tspan></tspan></text><path d="M4001 1001 4001 1701" stroke="#000000" fill="none"/><path d="M4151 1701 4001 2001 3851 1701 4151 1701Z"/><path d="M4001 3001 4001 3701" stroke="#000000" fill="none"/><path d="M4151 3701 4001 4001 3851 3701 4151 3701Z"/><path d="M4001 6001 4001 6701" stroke="#000000" fill="none"/><path d="M4151 6701 4001 7001 3851 6701 4151 6701Z"/><path d="M12001 5001 12001 6701" stroke="#000000" fill="none"/><path d="M12151 6701 12001 7001 11851 6701 12151 6701Z"/><path d="M4001 10001 4001 11701" stroke="#000000" fill="none"/><path d="M4151 11701 4001 12001 3851 11701 4151 11701Z"/><path d="M12001 11001 4301 11001" stroke="#000000" fill="none"/><path d="M4301 11151 4001 11001 4301 10851 4301 11151Z"/><path d="M8001 5001 12001 5001" stroke="#000000" fill="none"/><path d="M12001 10001 12001 11001" stroke="#000000" fill="none"/><text><tspan><tspan x="4468" y="6451"><tspan font-family="Liberation Sans,Arial" font-weight="400" font-size="246">y</tspan></tspan></tspan></text><text><tspan><tspan x="9501" y="4817"><tspan font-family="Liberation Sans,Arial" font-weight="400" font-size="211">N</tspan></tspan></tspan></text></svg>