<svg width="604.724" height="566.929" viewBox="0 0 16000 15000" xmlns="http://www.w3.org/2000/svg" xmlns:xlink="http://www.w3.org/1999/xlink" stroke-width="28.222" stroke-linejoin="round" xml:space="preserve" overflow="hidden"><path d="M2001 2000 1 2000 1 1000 4001 1000 4001 2000 2001 2000Z" stroke="#000000" fill="none"/><text><tspan><tspan x="868" y="1560"><tspan font-family="Liberation Sans,Arial" font-weight="400" font-size="173">0xFFFEF000 – 32*(7-i) &lt;&lt; 12</tspan></tspan></tspan></text><text><tspan><tspan x="379" y="613"><tspan font-family="Liberation Sans,Arial" font-weight="400" font-size="282">slot_virt[i]</tspan><tspan font-family="Noto Sans SC,Arial" font-weight="400" font-size="282">（</tspan><tspan font-family="Liberation Sans,Arial" font-weight="400" font-size="282">0 &lt;= I &lt; 7 </tspan><tspan font-family="Noto Sans SC,Arial" font-weight="400" font-size="282">）</tspan></tspan></tspan></text><path d="M9001 8000 7001 8000 7001 1000 11001 1000 11001 8000 9001 8000Z" stroke="#000000" fill="none"/><path d="M7001 2000 11001 2000" stroke="#000000" fill="none"/><path d="M7001 3000 11001 3000" stroke="#000000" fill="none"/><path d="M7001 4000 11001 4000" stroke="#000000" fill="none"/><path d="M7001 5000 11001 5000" stroke="#000000" fill="none"/><path d="M7001 6000 11001 6000" stroke="#000000" fill="none"/><path d="M7001 7000 11001 7000" stroke="#000000" fill="none"/><path d="M6001 8000 6701 8000" stroke="#000000" fill="none"/><path d="M6701 7850 7001 8000 6701 8150 6701 7850Z"/><path d="M6001 1000 6701 1000" stroke="#000000" fill="none"/><path d="M6701 850 7001 1000 6701 1150 6701 850Z"/><text><tspan><tspan x="4251" y="8066"><tspan font-family="Liberation Sans,Arial" font-weight="400" font-size="212">FIXADDR_TOP</tspan></tspan></tspan></text><text><tspan><tspan x="4324" y="1081"><tspan font-family="Liberation Sans,Arial" font-weight="400" font-size="212">FIXADDR_END</tspan></tspan></tspan></text><text><tspan><tspan x="8013" y="4583"><tspan font-family="Liberation Sans,Arial" font-weight="400" font-size="212">32</tspan><tspan font-family="Noto Sans SC,Arial" font-weight="400" font-size="212">个内存页物理地址</tspan></tspan></tspan></text><path d="M15001 5000 14001 5000 14001 2000 16001 2000 16001 5000 15001 5000Z" stroke="#000000" fill="none"/><path d="M11001 4250 12001 4250" stroke="#000000" fill="none"/><path d="M12001 4250 12001 2000" stroke="#000000" fill="none"/><path d="M12001 2000 13701 2000" stroke="#000000" fill="none"/><path d="M13701 1850 14001 2000 13701 2150 13701 1850Z"/><path d="M11001 4793 12001 4793" stroke="#000000" fill="none"/><path d="M12001 4750 12001 7000" stroke="#000000" fill="none"/><path d="M12001 7000 13701 7000" stroke="#000000" fill="none"/><path d="M13701 6850 14001 7000 13701 7150 13701 6850Z"/><path d="M15001 10000 14001 10000 14001 7000 16001 7000 16001 10000 15001 10000Z" stroke="#000000" fill="none"/><text><tspan><tspan x="14683" y="1838"><tspan font-family="Noto Sans SC,Arial" font-weight="400" font-size="212">内存页</tspan></tspan></tspan></text><text><tspan><tspan x="14683" y="6836"><tspan font-family="Noto Sans SC,Arial" font-weight="400" font-size="212">内存页</tspan></tspan></tspan></text><path d="M4001 1500 5001 1500" stroke="#000000" fill="none"/><path d="M5001 1500 5001 6000" stroke="#000000" fill="none"/><path d="M5001 6000 6701 6000" stroke="#000000" fill="none"/><path d="M6701 5850 7001 6000 6701 6150 6701 5850Z"/><text><tspan><tspan x="8689" y="817"><tspan font-family="Liberation Sans,Arial" font-weight="400" font-size="212">fixmap</tspan></tspan></tspan></text><path d="M15001 15000 14001 15000 14001 12000 16001 12000 16001 15000 15001 15000Z" stroke="#000000" fill="none"/><path d="M11001 8000 12001 8000" stroke="#000000" fill="none"/><path d="M12001 8000 12001 12000" stroke="#000000" fill="none"/><path d="M12001 12000 13701 12000" stroke="#000000" fill="none"/><path d="M13701 11850 14001 12000 13701 12150 13701 11850Z"/><text><tspan><tspan x="12502" y="11884"><tspan font-family="Liberation Sans,Arial" font-weight="400" font-size="282">bm_bte</tspan></tspan></tspan></text><text><tspan><tspan x="6080" y="7588"><tspan font-family="Noto Sans SC,Arial" font-weight="400" font-size="211">槽位</tspan><tspan font-family="Liberation Sans,Arial" font-weight="400" font-size="211">0</tspan></tspan></tspan></text><text><tspan><tspan x="6080" y="6588"><tspan font-family="Noto Sans SC,Arial" font-weight="400" font-size="211">槽位</tspan><tspan font-family="Liberation Sans,Arial" font-weight="400" font-size="211">1</tspan></tspan></tspan></text><text><tspan><tspan x="6080" y="1588"><tspan font-family="Noto Sans SC,Arial" font-weight="400" font-size="211">槽位</tspan><tspan font-family="Liberation Sans,Arial" font-weight="400" font-size="211">6</tspan></tspan></tspan></text></svg>