<svg width="623.622" height="306.142" viewBox="0 0 16500 8100" xmlns="http://www.w3.org/2000/svg" xmlns:xlink="http://www.w3.org/1999/xlink" stroke-width="28.222" stroke-linejoin="round" xml:space="preserve" overflow="hidden"><path d="M6501 1018 1 1018 1 18 13001 18 13001 1018 6501 1018Z" stroke="#000000" fill="none"/><path d="M3001 18 3001 1018" stroke="#000000" fill="none"/><path d="M10000 1 10000 1001" stroke="#000000" fill="none"/><path d="M6001 18 6001 1018" stroke="#000000" fill="none"/><path d="M1501 3018 1 3018 1 2018 3001 2018 3001 3018 1501 3018Z" stroke="#000000" fill="none"/><path d="M1501 4018 1 4018 1 3018 3001 3018 3001 4018 1501 4018Z" stroke="#000000" fill="none"/><path d="M1501 5018 1 5018 1 4018 3001 4018 3001 5018 1501 5018Z" stroke="#000000" fill="none"/><path d="M1501 8018 1 8018 1 7018 3001 7018 3001 8018 1501 8018Z" stroke="#000000" fill="none"/><path d="M11496 3022 9996 3022 9996 2022 12996 2022 12996 3022 11496 3022Z" stroke="#000000" fill="none"/><path d="M11501 4018 10001 4018 10001 3018 13001 3018 13001 4018 11501 4018Z" stroke="#000000" fill="none"/><path d="M11500 7017 10000 7017 10000 6017 13000 6017 13000 7017 11500 7017Z" stroke="#000000" fill="none"/><text><tspan><tspan x="13969" y="628"><tspan font-family="Liberation Sans,Arial" font-weight="400" font-size="317">page_wait_table</tspan></tspan></tspan></text><text><tspan><tspan x="1075" y="633"><tspan font-family="Noto Sans SC,Arial" font-weight="400" font-size="282">队列头</tspan></tspan></tspan></text><text><tspan><tspan x="4075" y="633"><tspan font-family="Noto Sans SC,Arial" font-weight="400" font-size="282">队列头</tspan></tspan></tspan></text><text><tspan><tspan x="11075" y="628"><tspan font-family="Noto Sans SC,Arial" font-weight="400" font-size="282">队列头</tspan></tspan></tspan></text><text><tspan><tspan x="7511" y="677"><tspan font-family="Liberation Sans,Arial" font-weight="400" font-size="458">•••</tspan></tspan></tspan></text><text><tspan><tspan x="1261" y="6177"><tspan font-family="Liberation Sans,Arial" font-weight="400" font-size="459">•••</tspan></tspan></tspan></text><text><tspan><tspan x="11261" y="5177"><tspan font-family="Liberation Sans,Arial" font-weight="400" font-size="459">•••</tspan></tspan></tspan></text><text><tspan><tspan x="381" y="2617"><tspan font-family="Liberation Sans,Arial" font-weight="400" font-size="282">wait_queue_entry</tspan></tspan></tspan></text><text><tspan><tspan x="273" y="3581"><tspan font-family="Liberation Sans,Arial" font-weight="400" font-size="282">wait_queue_entry</tspan></tspan></tspan></text><text><tspan><tspan x="251" y="4581"><tspan font-family="Liberation Sans,Arial" font-weight="400" font-size="282">wait_queue_entry</tspan></tspan></tspan></text><text><tspan><tspan x="273" y="7401"><tspan font-family="Liberation Sans,Arial" font-weight="400" font-size="282">wait_queue_entry</tspan></tspan></tspan><tspan><tspan x="273" y="7719"><tspan font-family="Liberation Sans,Arial" font-weight="400" font-size="282">*private</tspan></tspan></tspan></text><text><tspan><tspan x="10381" y="2617"><tspan font-family="Liberation Sans,Arial" font-weight="400" font-size="282">wait_queue_entry</tspan></tspan></tspan></text><text><tspan><tspan x="10370" y="3617"><tspan font-family="Liberation Sans,Arial" font-weight="400" font-size="282">wait_queue_entry</tspan></tspan></tspan></text><text><tspan><tspan x="10370" y="6617"><tspan font-family="Liberation Sans,Arial" font-weight="400" font-size="282">wait_queue_entry</tspan></tspan></tspan></text><path d="M1 5018 1 7018" stroke="#000000" fill="none"/><path d="M3001 5018 3001 7018" stroke="#000000" fill="none"/><path d="M10001 4018 10001 6018" stroke="#000000" fill="none"/><path d="M13006 4039 13006 6005" stroke="#000000" fill="none"/><text><tspan><tspan x="4251" y="2401"><tspan font-family="Liberation Sans,Arial" font-weight="400" font-size="282">struct wait_queue_entry {</tspan></tspan></tspan><tspan><tspan x="4251" y="2719"><tspan font-family="Liberation Sans,Arial" font-weight="400" font-size="282">    unsigned int flags;</tspan></tspan></tspan><tspan><tspan x="4251" y="3037"><tspan font-family="Liberation Sans,Arial" font-weight="400" font-size="282">    void *private;</tspan></tspan></tspan><tspan><tspan x="4251" y="3355"><tspan font-family="Liberation Sans,Arial" font-weight="400" font-size="282">    wait_queue_func_t func;</tspan></tspan></tspan><tspan><tspan x="4251" y="3673"><tspan font-family="Liberation Sans,Arial" font-weight="400" font-size="282">    struct list_head entry;</tspan></tspan></tspan><tspan><tspan x="4251" y="3991"><tspan font-family="Liberation Sans,Arial" font-weight="400" font-size="282">} </tspan></tspan></tspan></text><path d="M3001 7768 3951 7768" stroke="#000000" fill="none"/><path d="M3951 7618 4251 7768 3951 7918 3951 7618Z"/><text><tspan><tspan x="4488" y="7908"><tspan font-family="Liberation Sans,Arial" font-weight="400" font-size="352">task_struct</tspan></tspan></tspan></text><path d="M1501 2026 1 2026 1 1026 3001 1026 3001 2026 1501 2026Z" stroke="#000000" fill="none"/><text><tspan><tspan x="381" y="1625"><tspan font-family="Liberation Sans,Arial" font-weight="400" font-size="282">wait_queue_entry</tspan></tspan></tspan></text><path d="M11501 2018 10001 2018 10001 1018 13001 1018 13001 2018 11501 2018Z" stroke="#000000" fill="none"/><text><tspan><tspan x="10381" y="1617"><tspan font-family="Liberation Sans,Arial" font-weight="400" font-size="282">wait_queue_entry</tspan></tspan></tspan></text></svg>