<svg width="226.772" height="321.26" viewBox="0 0 6000 8500" xmlns="http://www.w3.org/2000/svg" xmlns:xlink="http://www.w3.org/1999/xlink" stroke-width="28.222" stroke-linejoin="round" xml:space="preserve" overflow="hidden"><path d="M3001 1001 1001 1001 1001 1 5001 1 5001 1001 3001 1001Z" stroke="#000000" fill="none"/><path d="M3001 3001 1 3001 1 2001 6001 2001 6001 3001 3001 3001Z" stroke="#000000" fill="none"/><path d="M3001 6001 1 6001 1 4001 6001 4001 6001 6001 3001 6001Z" stroke="#000000" fill="none"/><path d="M3001 8501 1 8501 1 7001 6001 7001 6001 8501 3001 8501Z" stroke="#000000" fill="none"/><text><tspan><tspan x="1335" y="639"><tspan font-family="Liberation Sans,Arial" font-weight="400" font-size="353">printk()</tspan><tspan font-family="Noto Sans SC,Arial" font-weight="400" font-size="353">写到</tspan><tspan font-family="Liberation Sans,Arial" font-weight="400" font-size="353">log </tspan><tspan font-family="Liberation Sans,Arial" font-weight="400" font-size="318">buffer</tspan></tspan></tspan></text><text><tspan><tspan x="894" y="2649"><tspan font-family="Noto Sans SC,Arial" font-weight="400" font-size="282">调用</tspan><tspan font-family="Liberation Sans,Arial" font-weight="400" font-size="423">console_unlock</tspan><tspan font-family="Noto Sans SC,Arial" font-weight="400" font-size="282">函数</tspan></tspan></tspan></text><text><tspan><tspan x="251" y="4936"><tspan font-family="Noto Sans SC,Arial" font-weight="400" font-size="370">调用控制台</tspan><tspan font-family="Liberation Sans,Arial" font-weight="400" font-size="370">write</tspan><tspan font-family="Noto Sans SC,Arial" font-weight="400" font-size="370">函数，</tspan><tspan font-family="Liberation Sans,Arial" font-weight="400" font-size="353">write</tspan><tspan font-family="Noto Sans SC,Arial" font-weight="400" font-size="353">函</tspan></tspan><tspan x="544" y="5363"><tspan font-family="Noto Sans SC,Arial" font-weight="400" font-size="353">数指针指向驱动程序的写操作</tspan></tspan></tspan></text><text><tspan><tspan x="275" y="7674"><tspan font-family="Noto Sans SC,Arial" font-weight="400" font-size="388">驱动程序的写操作完成向控制台</tspan></tspan><tspan x="2028" y="8140"><tspan font-family="Noto Sans SC,Arial" font-weight="400" font-size="388">设备的输出</tspan></tspan></tspan></text><path d="M3001 1001 3001 1701" stroke="#000000" fill="none"/><path d="M3151 1701 3001 2001 2851 1701 3151 1701Z"/><path d="M3001 3001 3001 3701" stroke="#000000" fill="none"/><path d="M3151 3701 3001 4001 2851 3701 3151 3701Z"/><path d="M3001 6001 3001 6701" stroke="#000000" fill="none"/><path d="M3151 6701 3001 7001 2851 6701 3151 6701Z"/></svg>