<svg width="737.008" height="944.882" viewBox="0 0 19500 25000" xmlns="http://www.w3.org/2000/svg" xmlns:xlink="http://www.w3.org/1999/xlink" stroke-width="28.222" stroke-linejoin="round" xml:space="preserve" overflow="hidden"><path d="M7501 1001 5501 1001 5501 1 9501 1 9501 1001 7501 1001Z" stroke="#000000" fill="none"/><text><tspan><tspan x="7255" y="599"><tspan font-family="Noto Sans SC,Arial" font-weight="400" font-size="247">开始</tspan></tspan></tspan></text><path d="M7501 3001 5501 3001 5501 2001 9501 2001 9501 3001 7501 3001Z" stroke="#000000" fill="none"/><path d="M7501 9001 5501 9001 5501 8001 9501 8001 9501 9001 7501 9001Z" stroke="#000000" fill="none"/><text><tspan><tspan x="6650" y="2457"><tspan font-family="Noto Sans SC,Arial" font-weight="400" font-size="282">存储引导参数</tspan></tspan></tspan><tspan><tspan x="6200" y="2770"><tspan font-family="Liberation Sans,Arial" font-weight="400" font-size="282">(save_boot_params)</tspan></tspan></tspan></text><path d="M7501 1001 7501 1701" stroke="#000000" fill="none"/><path d="M7651 1701 7501 2001 7351 1701 7651 1701Z"/><path d="M7451 2968 7451 7668" stroke="#000000" stroke-linecap="round" stroke-dasharray="54 54" fill="none"/><path d="M7601 7668 7451 7968 7301 7668 7601 7668Z"/><path d="M2501 7001 501 7001 501 6001 4501 6001 4501 7001 2501 7001Z" stroke="#000000" fill="none"/><path d="M2502 4001 4502 4501 2502 5002 502 4501 2502 4001 2502 4001Z" stroke="#000000" fill="none"/><text><tspan><tspan x="1530" y="4614"><tspan font-family="Noto Sans SC,Arial" font-weight="400" font-size="282">支持</tspan><tspan font-family="Liberation Sans,Arial" font-weight="400" font-size="282">hypervisor</tspan></tspan></tspan></text><path d="M7501 3501 2501 3501" stroke="#000000" fill="none"/><path d="M2501 3501 2501 3701" stroke="#000000" fill="none"/><path d="M2651 3701 2501 4001 2351 3701 2651 3701Z"/><path d="M2376 8001 1 8001 1 2001 4751 2001 4751 8001 2376 8001Z" stroke="#3465A4" stroke-linecap="round" stroke-dasharray="189 108" fill="none"/><path d="M4501 4501 7201 4501" stroke="#000000" fill="none"/><path d="M7201 4351 7501 4501 7201 4651 7201 4351Z"/><path d="M2501 5001 2501 5701" stroke="#000000" fill="none"/><path d="M2651 5701 2501 6001 2351 5701 2651 5701Z"/><text><tspan><tspan x="5751" y="4372"><tspan font-family="Noto Sans SC,Arial" font-weight="400" font-size="247">否</tspan></tspan></tspan></text><text><tspan><tspan x="3018" y="5490"><tspan font-family="Noto Sans SC,Arial" font-weight="400" font-size="247">是</tspan></tspan></tspan></text><text><tspan><tspan x="1366" y="6457"><tspan font-family="Noto Sans SC,Arial" font-weight="400" font-size="282">设置超级镜像模式</tspan></tspan></tspan><tspan><tspan x="1082" y="6770"><tspan font-family="Liberation Sans,Arial" font-weight="400" font-size="282">(switch_to_hypervisor)</tspan></tspan></tspan></text><path d="M4501 6501 7201 6501" stroke="#000000" fill="none"/><path d="M7201 6351 7501 6501 7201 6651 7201 6351Z"/><text><tspan><tspan x="1610" y="1278"><tspan font-family="Noto Sans SC,Arial" font-weight="400" font-size="247">如果没有定义</tspan></tspan><tspan x="350" y="1575"><tspan font-family="Liberation Sans,Arial" font-weight="400" font-size="247">CONFIG_ARMV7_LAPE,</tspan><tspan font-family="Noto Sans SC,Arial" font-weight="400" font-size="247">就没有该模</tspan></tspan><tspan x="2253" y="1872"><tspan font-family="Noto Sans SC,Arial" font-weight="400" font-size="247">块</tspan></tspan></tspan></text><text><tspan><tspan x="6071" y="8442"><tspan font-family="Noto Sans SC,Arial" font-weight="400" font-size="282">设置</tspan><tspan font-family="Liberation Sans,Arial" font-weight="400" font-size="282">CPU</tspan><tspan font-family="Noto Sans SC,Arial" font-weight="400" font-size="282">为</tspan><tspan font-family="Liberation Sans,Arial" font-weight="400" font-size="282">SVC</tspan><tspan font-family="Noto Sans SC,Arial" font-weight="400" font-size="282">模式</tspan></tspan></tspan><tspan><tspan x="6489" y="8785"><tspan font-family="Noto Sans SC,Arial" font-weight="400" font-size="282">禁止</tspan><tspan font-family="Liberation Sans,Arial" font-weight="400" font-size="282">FIQ</tspan><tspan font-family="Noto Sans SC,Arial" font-weight="400" font-size="282">和</tspan><tspan font-family="Liberation Sans,Arial" font-weight="400" font-size="282">IRQ</tspan></tspan></tspan></text><path d="M13501 11001 11501 11001 11501 10001 15501 10001 15501 11001 13501 11001Z" stroke="#000000" fill="none"/><text><tspan><tspan x="11774" y="10442"><tspan font-family="Noto Sans SC,Arial" font-weight="400" font-size="282">将向量表基地址</tspan><tspan font-family="Liberation Sans,Arial" font-weight="400" font-size="282">VBAR</tspan><tspan font-family="Noto Sans SC,Arial" font-weight="400" font-size="282">设置</tspan></tspan><tspan x="12971" y="10785"><tspan font-family="Noto Sans SC,Arial" font-weight="400" font-size="282">为</tspan><tspan font-family="Liberation Sans,Arial" font-weight="400" font-size="282">_start</tspan></tspan></tspan></text><path d="M13501 13001 10501 13001 10501 8001 16501 8001 16501 13001 13501 13001Z" stroke="#3465A4" stroke-linecap="round" stroke-dasharray="189 108" fill="none"/><text><tspan><tspan x="10799" y="7449"><tspan font-family="Noto Sans SC,Arial" font-weight="400" font-size="247">如果没有设置了</tspan><tspan font-family="Liberation Sans,Arial" font-weight="400" font-size="247">CONFIG_HAS_VBA</tspan><tspan font-family="Liberation Sans,Arial" font-weight="400" font-size="282">R</tspan><tspan font-family="Noto Sans SC,Arial" font-weight="400" font-size="282">，该模块</tspan></tspan><tspan x="10881" y="7792"><tspan font-family="Noto Sans SC,Arial" font-weight="400" font-size="282">不存在。</tspan><tspan font-family="Liberation Sans,Arial" font-weight="400" font-size="282">solo</tspan><tspan font-family="Noto Sans SC,Arial" font-weight="400" font-size="282">有</tspan><tspan font-family="Liberation Sans,Arial" font-weight="400" font-size="282">VBAR</tspan><tspan font-family="Noto Sans SC,Arial" font-weight="400" font-size="282">，通常会开启此项</tspan></tspan></tspan></text><path d="M7501 9001 7501 23701" stroke="#000000" stroke-linecap="round" stroke-dasharray="54 54" fill="none"/><path d="M7651 23701 7501 24001 7351 23701 7651 23701Z"/><path d="M7501 9501 13501 9501" stroke="#000000" fill="none"/><path d="M13501 9501 13501 9701" stroke="#000000" fill="none"/><path d="M13651 9701 13501 10001 13351 9701 13651 9701Z"/><path d="M13501 11001 13501 11501" stroke="#3465A4" fill="none"/><path d="M13501 11501 7801 11501" stroke="#000000" fill="none"/><path d="M7801 11651 7501 11501 7801 11351 7801 11651Z"/><path d="M2376 8001 1 8001 1 2001 4751 2001 4751 8001 2376 8001Z" stroke="#3465A4" stroke-linecap="round" stroke-dasharray="189 108" fill="none"/><path d="M7501 25001 5501 25001 5501 24001 9501 24001 9501 25001 7501 25001Z" stroke="#000000" fill="none"/><text><tspan><tspan x="6655" y="24614"><tspan font-family="Noto Sans SC,Arial" font-weight="400" font-size="282">跳转到</tspan><tspan font-family="Liberation Sans,Arial" font-weight="400" font-size="282">_main</tspan></tspan></tspan></text><path d="M17018 18001 15518 18001 15518 17001 18518 17001 18518 18001 17018 18001Z" stroke="#000000" fill="none"/><path d="M17001 22001 15501 22001 15501 21001 18501 21001 18501 22001 17001 22001Z" stroke="#000000" fill="none"/><path d="M14626 24001 10501 24001 10501 15501 18751 15501 18751 24001 14626 24001Z" stroke="#3465A4" stroke-linecap="round" stroke-dasharray="189 108" fill="none"/><text><tspan><tspan x="13934" y="14525"><tspan font-family="Noto Sans SC,Arial" font-weight="400" font-size="282">如果定义 </tspan></tspan><tspan x="11759" y="14864"><tspan font-family="Liberation Sans,Arial" font-weight="400" font-size="282">CONFIG_SKIP_LOWLEVEL_INIT</tspan><tspan font-family="Noto Sans SC,Arial" font-weight="400" font-size="282">，该模块</tspan></tspan><tspan x="14076" y="15207"><tspan font-family="Noto Sans SC,Arial" font-weight="400" font-size="282">不存在</tspan></tspan></tspan></text><text><tspan><tspan x="16021" y="17611"><tspan font-family="Liberation Sans,Arial" font-weight="400" font-size="317">cpu_init_cp15</tspan></tspan></tspan></text><path d="M16876 18251 15001 18251 15001 16751 18751 16751 18751 18251 16876 18251Z" stroke="#3465A4" stroke-linecap="round" stroke-dasharray="189 108" fill="none"/><text><tspan><tspan x="15975" y="15645"><tspan font-family="Noto Sans SC,Arial" font-weight="400" font-size="282">如果没有定义</tspan></tspan><tspan x="15409" y="15984"><tspan font-family="Liberation Sans,Arial" font-weight="400" font-size="282">CONFIG_CPU_V7A</tspan><tspan font-family="Noto Sans SC,Arial" font-weight="400" font-size="282">，</tspan></tspan></tspan><tspan><tspan x="15583" y="16327"><tspan font-family="Noto Sans SC,Arial" font-weight="400" font-size="282">虚线框内模块不存在</tspan></tspan></tspan></text><path d="M16376 24001 14001 24001 14001 20501 18751 20501 18751 24001 16376 24001Z" stroke="#3465A4" stroke-linecap="round" stroke-dasharray="189 108" fill="none"/><text><tspan><tspan x="13603" y="19938"><tspan font-family="Noto Sans SC,Arial" font-weight="400" font-size="282">如果定义</tspan><tspan font-family="Liberation Sans,Arial" font-weight="400" font-size="282">CONFIG_SKIP_LOWLEVEL</tspan></tspan></tspan><tspan><tspan x="13750" y="20281"><tspan font-family="Liberation Sans,Arial" font-weight="400" font-size="282">_INIT_ONLY</tspan><tspan font-family="Noto Sans SC,Arial" font-weight="400" font-size="282">，虚线框内模块不存在</tspan></tspan></tspan></text><path d="M7501 14001 13501 14001" stroke="#000000" fill="none"/><path d="M13468 14001 13501 23501" stroke="#000000" stroke-dasharray="53 34" fill="none"/><path d="M13501 23501 7801 23501" stroke="#000000" fill="none"/><path d="M7801 23651 7501 23501 7801 23351 7801 23651Z"/><path d="M13501 16501 17001 16501" stroke="#000000" fill="none"/><path d="M17001 16501 17001 16701" stroke="#000000" fill="none"/><path d="M17151 16701 17001 17001 16851 16701 17151 16701Z"/><path d="M17001 18001 17001 20701" stroke="#000000" fill="none"/><path d="M17151 20701 17001 21001 16851 20701 17151 20701Z"/><path d="M17018 19332 7818 19332" stroke="#000000" fill="none"/><path d="M7818 19482 7518 19332 7818 19182 7818 19482Z"/><path d="M16251 22000 17750 22000" stroke="#3465A4" fill="none"/><path d="M17001 22001 17001 23501" stroke="#000000" fill="none"/><path d="M17001 23501 13501 23501" stroke="#000000" fill="none"/><text><tspan><tspan x="16063" y="21622"><tspan font-family="Liberation Sans,Arial" font-weight="400" font-size="352">cpu_init_crit</tspan></tspan></tspan></text></svg>