<svg width="661.417" height="566.929" viewBox="0 0 17500 15000" xmlns="http://www.w3.org/2000/svg" xmlns:xlink="http://www.w3.org/1999/xlink" stroke-width="28.222" stroke-linejoin="round" xml:space="preserve" overflow="hidden"><path d="M1501 4000 1 4000 1 3000 3001 3000 3001 4000 1501 4000Z" stroke="#000000" fill="none"/><text><tspan><tspan x="1056" y="3572"><tspan font-family="Liberation Sans,Arial" font-weight="400" font-size="212">*anon_vma_chain</tspan></tspan></tspan></text><path d="M2501 10984 1001 10984 1001 10000 4001 10000 4001 10984 2501 10984Z" stroke="#000000" fill="none"/><text><tspan><tspan x="2056" y="10564"><tspan font-family="Liberation Sans,Arial" font-weight="400" font-size="212">*anon_vma_chain</tspan></tspan></tspan></text><path d="M6001 4000 5001 4000 5001 3000 7001 3000 7001 4000 6001 4000Z" stroke="#000000" fill="none"/><text><tspan><tspan x="5413" y="3453"><tspan font-family="Liberation Sans,Arial" font-weight="400" font-size="212">                     </tspan></tspan><tspan x="5484" y="3691"><tspan font-family="Liberation Sans,Arial" font-weight="400" font-size="212">same_vma</tspan></tspan></tspan></text><path d="M10001 4000 9001 4000 9001 3000 11001 3000 11001 4000 10001 4000Z" stroke="#000000" fill="none"/><text><tspan><tspan x="9325" y="3453"><tspan font-family="Liberation Sans,Arial" font-weight="400" font-size="212">                        </tspan></tspan><tspan x="9484" y="3691"><tspan font-family="Liberation Sans,Arial" font-weight="400" font-size="212">same_vma</tspan></tspan></tspan></text><text><tspan><tspan x="5836" y="1828"><tspan font-family="Liberation Sans,Arial" font-weight="400" font-size="212">avc</tspan></tspan></tspan></text><text><tspan><tspan x="9836" y="1828"><tspan font-family="Liberation Sans,Arial" font-weight="400" font-size="212">avc</tspan></tspan></tspan></text><path d="M16001 4000 15001 4000 15001 3000 17001 3000 17001 4000 16001 4000Z" stroke="#000000" fill="none"/><text><tspan><tspan x="15325" y="3453"><tspan font-family="Liberation Sans,Arial" font-weight="400" font-size="212">                        </tspan></tspan><tspan x="15484" y="3691"><tspan font-family="Liberation Sans,Arial" font-weight="400" font-size="212">same_vma</tspan></tspan></tspan></text><path d="M3001 3500 4701 3500" stroke="#000000" fill="none"/><path d="M4701 3350 5001 3500 4701 3650 4701 3350Z"/><path d="M8001 3000 8701 3000" stroke="#000000" fill="none"/><path d="M8701 2850 9001 3000 8701 3150 8701 2850Z"/><text><tspan><tspan x="12859" y="3599"><tspan font-family="Liberation Sans,Arial" font-weight="400" font-size="282">…</tspan></tspan></tspan></text><text><tspan><tspan x="511" y="828"><tspan font-family="Noto Sans SC,Arial" font-weight="400" font-size="212">父进程的</tspan><tspan font-family="Liberation Sans,Arial" font-weight="400" font-size="212">vma</tspan><tspan font-family="Noto Sans SC,Arial" font-weight="400" font-size="212">结构体</tspan></tspan></tspan></text><text><tspan><tspan x="15836" y="1828"><tspan font-family="Liberation Sans,Arial" font-weight="400" font-size="212">avc</tspan></tspan></tspan></text><path d="M7001 10000 6001 10000 6001 9010 8001 9010 8001 10000 7001 10000Z" stroke="#000000" fill="none"/><text><tspan><tspan x="6251" y="9577"><tspan font-family="Liberation Sans,Arial" font-weight="400" font-size="212">*vma</tspan></tspan></tspan></text><path d="M7001 11000 6001 11000 6001 10000 8001 10000 8001 11000 7001 11000Z" stroke="#000000" fill="none"/><text><tspan><tspan x="6680" y="10572"><tspan font-family="Liberation Sans,Arial" font-weight="400" font-size="212">*anon_vma</tspan></tspan></tspan></text><text><tspan><tspan x="6364" y="8848"><tspan font-family="Noto Sans SC,Arial" font-weight="400" font-size="212">子进程的</tspan><tspan font-family="Liberation Sans,Arial" font-weight="400" font-size="212">avc</tspan></tspan></tspan></text><path d="M2501 10010 1001 10010 1001 8500 4001 8500 4001 10010 2501 10010Z" stroke="#000000" fill="none"/><text><tspan><tspan x="1840" y="8328"><tspan font-family="Noto Sans SC,Arial" font-weight="400" font-size="212">子进程的</tspan><tspan font-family="Liberation Sans,Arial" font-weight="400" font-size="212">vma</tspan></tspan></tspan></text><path d="M6001 5000 5001 5000 5001 4000 7001 4000 7001 5000 6001 5000Z" stroke="#000000" fill="none"/><text><tspan><tspan x="5680" y="4572"><tspan font-family="Liberation Sans,Arial" font-weight="400" font-size="212">*anon_vma</tspan></tspan></tspan></text><path d="M6501 7000 5001 7000 5001 6000 8001 6000 8001 7000 6501 7000Z" stroke="#000000" fill="none"/><path d="M7001 4500 8501 4500" stroke="#000000" fill="none"/><path d="M8501 4500 8501 6000" stroke="#000000" fill="none"/><path d="M8501 6000 8301 6000" stroke="#000000" fill="none"/><path d="M8301 6150 8001 6000 8301 5850 8301 6150Z"/><path d="M8001 10500 8501 10500" stroke="#000000" fill="none"/><path d="M8501 10500 8501 7000" stroke="#000000" fill="none"/><path d="M8501 7000 8301 7000" stroke="#000000" fill="none"/><path d="M8301 7150 8001 7000 8301 6850 8301 7150Z"/><path d="M4001 10500 5001 10500" stroke="#000000" fill="none"/><path d="M5001 10500 5001 11000" stroke="#000000" fill="none"/><path d="M5001 11000 5701 11000" stroke="#000000" fill="none"/><path d="M5701 10850 6001 11000 5701 11150 5701 10850Z"/><text><tspan><tspan x="5381" y="5816"><tspan font-family="Liberation Sans,Arial" font-weight="400" font-size="282">anon_vma</tspan><tspan font-family="Noto Sans SC,Arial" font-weight="400" font-size="282">结构体</tspan></tspan></tspan></text><path d="M11001 10000 10001 10000 10001 9000 12001 9000 12001 10000 11001 10000Z" stroke="#000000" fill="none"/><text><tspan><tspan x="10251" y="9572"><tspan font-family="Liberation Sans,Arial" font-weight="400" font-size="212">*vma</tspan></tspan></tspan></text><path d="M11001 11000 10001 11000 10001 10000 12001 10000 12001 11000 11001 11000Z" stroke="#000000" fill="none"/><text><tspan><tspan x="10680" y="10572"><tspan font-family="Liberation Sans,Arial" font-weight="400" font-size="212">*anon_vma</tspan></tspan></tspan></text><text><tspan><tspan x="10349" y="8815"><tspan font-family="Noto Sans SC,Arial" font-weight="400" font-size="212">子进程的</tspan><tspan font-family="Liberation Sans,Arial" font-weight="400" font-size="212">avc</tspan></tspan></tspan></text><path d="M10001 5000 9001 5000 9001 4000 11001 4000 11001 5000 10001 5000Z" stroke="#000000" fill="none"/><text><tspan><tspan x="9680" y="4572"><tspan font-family="Liberation Sans,Arial" font-weight="400" font-size="212">*anon_vma</tspan></tspan></tspan></text><path d="M10501 7000 9001 7000 9001 6000 12001 6000 12001 7000 10501 7000Z" stroke="#000000" fill="none"/><path d="M11001 4500 12486 4467" stroke="#000000" fill="none"/><path d="M12486 4467 12486 5967" stroke="#000000" fill="none"/><path d="M12486 5967 12286 5967" stroke="#000000" fill="none"/><path d="M12286 6117 11986 5967 12286 5817 12286 6117Z"/><path d="M11986 10467 12486 10467" stroke="#000000" fill="none"/><path d="M12486 10467 12486 6967" stroke="#000000" fill="none"/><path d="M12486 6967 12286 6967" stroke="#000000" fill="none"/><path d="M12286 7117 11986 6967 12286 6817 12286 7117Z"/><text><tspan><tspan x="9366" y="5783"><tspan font-family="Liberation Sans,Arial" font-weight="400" font-size="282">anon_vma</tspan><tspan font-family="Noto Sans SC,Arial" font-weight="400" font-size="282">结构体</tspan></tspan></tspan></text><path d="M15989 9999 14989 9999 14989 8992 16989 8992 16989 9999 15989 9999Z" stroke="#000000" fill="none"/><text><tspan><tspan x="15239" y="9568"><tspan font-family="Liberation Sans,Arial" font-weight="400" font-size="212">*vma</tspan></tspan></tspan></text><path d="M15989 10992 14989 10992 14989 9999 16989 9999 16989 10992 15989 10992Z" stroke="#000000" fill="none"/><text><tspan><tspan x="15668" y="10568"><tspan font-family="Liberation Sans,Arial" font-weight="400" font-size="212">*anon_vma</tspan></tspan></tspan></text><text><tspan><tspan x="15376" y="8831"><tspan font-family="Noto Sans SC,Arial" font-weight="400" font-size="212">子进程的</tspan><tspan font-family="Liberation Sans,Arial" font-weight="400" font-size="212">avc</tspan></tspan></tspan></text><path d="M16001 5000 15001 5000 15001 4000 17001 4000 17001 5000 16001 5000Z" stroke="#000000" fill="none"/><text><tspan><tspan x="15680" y="4572"><tspan font-family="Liberation Sans,Arial" font-weight="400" font-size="212">*anon_vma</tspan></tspan></tspan></text><path d="M15513 7000 14013 7000 14013 6000 17013 6000 17013 7000 15513 7000Z" stroke="#000000" fill="none"/><path d="M17013 4483 17513 4483" stroke="#000000" fill="none"/><path d="M17513 4483 17513 5983" stroke="#000000" fill="none"/><path d="M17513 5983 17313 5983" stroke="#000000" fill="none"/><path d="M17313 6133 17013 5983 17313 5833 17313 6133Z"/><path d="M17013 10483 17513 10483" stroke="#000000" fill="none"/><path d="M17513 10483 17513 6983" stroke="#000000" fill="none"/><path d="M17513 6983 17313 6983" stroke="#000000" fill="none"/><path d="M17313 7133 17013 6983 17313 6833 17313 7133Z"/><text><tspan><tspan x="14393" y="5799"><tspan font-family="Liberation Sans,Arial" font-weight="400" font-size="282">anon_vma</tspan><tspan font-family="Noto Sans SC,Arial" font-weight="400" font-size="282">结构体</tspan></tspan></tspan></text><path d="M7001 11986 6001 11986 6001 11000 8001 11000 8001 11986 7001 11986Z" stroke="#000000" fill="none"/><text><tspan><tspan x="6633" y="11565"><tspan font-family="Liberation Sans,Arial" font-weight="400" font-size="212">*same_vma</tspan></tspan></tspan></text><path d="M11001 12000 10001 12000 10001 11000 12001 11000 12001 12000 11001 12000Z" stroke="#000000" fill="none"/><text><tspan><tspan x="10633" y="11572"><tspan font-family="Liberation Sans,Arial" font-weight="400" font-size="212">*same_vma</tspan></tspan></tspan></text><path d="M16001 11986 15001 11986 15001 11000 17001 11000 17001 11986 16001 11986Z" stroke="#000000" fill="none"/><text><tspan><tspan x="15633" y="11565"><tspan font-family="Liberation Sans,Arial" font-weight="400" font-size="212">*same_vma</tspan></tspan></tspan></text><path d="M8001 11500 9001 11500" stroke="#000000" fill="none"/><path d="M12001 11500 13001 11500" stroke="#000000" fill="none"/><path d="M9001 11500 9001 11000" stroke="#000000" fill="none"/><path d="M13001 11500 13001 11000" stroke="#000000" fill="none"/><path d="M9001 11000 9701 11000" stroke="#000000" fill="none"/><path d="M9701 10850 10001 11000 9701 11150 9701 10850Z"/><path d="M13001 11000 13201 11000" stroke="#000000" fill="none"/><path d="M13201 10850 13501 11000 13201 11150 13201 10850Z"/><path d="M14501 11000 14701 11000" stroke="#000000" fill="none"/><path d="M14701 10850 15001 11000 14701 11150 14701 10850Z"/><path d="M6001 9500 5001 9500" stroke="#000000" fill="none"/><path d="M14501 8500 4301 8500" stroke="#000000" fill="none"/><path d="M4301 8650 4001 8500 4301 8350 4301 8650Z"/><path d="M2501 12000 1001 12000 1001 11000 4001 11000 4001 12000 2501 12000Z" stroke="#000000" fill="none"/><text><tspan><tspan x="2509" y="11587"><tspan font-family="Liberation Sans,Arial" font-weight="400" font-size="247">*anon_vma</tspan></tspan></tspan></text><path d="M4001 11500 5001 11500" stroke="#000000" fill="none"/><path d="M5001 11500 5001 14000" stroke="#000000" fill="none"/><path d="M2501 15000 1001 15000 1001 14000 4001 14000 4001 15000 2501 15000Z" stroke="#000000" fill="none"/><path d="M5001 14000 4301 14000" stroke="#000000" fill="none"/><path d="M4301 14150 4001 14000 4301 13850 4301 14150Z"/><text><tspan><tspan x="2002" y="13828"><tspan font-family="Liberation Sans,Arial" font-weight="400" font-size="212">anon_vma</tspan></tspan></tspan></text><path d="M5001 9500 5001 8800" stroke="#000000" fill="none"/><path d="M4851 8800 5001 8500 5151 8800 4851 8800Z"/><path d="M9501 9500 9501 8800" stroke="#000000" fill="none"/><path d="M9351 8800 9501 8500 9651 8800 9351 8800Z"/><path d="M10001 9500 9501 9500" stroke="#000000" fill="none"/><path d="M15001 9500 14501 9500" stroke="#000000" fill="none"/><path d="M14501 9500 14501 8800" stroke="#000000" fill="none"/><path d="M14351 8800 14501 8500 14651 8800 14351 8800Z"/><path d="M7001 3500 8001 3500" stroke="#000000" fill="none"/><path d="M8001 3000 8001 3500" stroke="#000000" fill="none"/><path d="M11001 3500 11501 3500" stroke="#000000" fill="none"/><path d="M11501 3000 11501 3500" stroke="#000000" fill="none"/><path d="M11501 3000 11951 3000" stroke="#000000" fill="none"/><path d="M11951 2850 12251 3000 11951 3150 11951 2850Z"/><path d="M14251 3000 14701 3000" stroke="#000000" fill="none"/><path d="M14701 2850 15001 3000 14701 3150 14701 2850Z"/><path d="M1501 2992 1 2992 1 1000 3001 1000 3001 2992 1501 2992Z" stroke="#000000" fill="none"/><path d="M6001 3000 5001 3000 5001 2000 7001 2000 7001 3000 6001 3000Z" stroke="#000000" fill="none"/><text><tspan><tspan x="5413" y="2453"><tspan font-family="Liberation Sans,Arial" font-weight="400" font-size="212">                     </tspan></tspan><tspan x="5760" y="2691"><tspan font-family="Liberation Sans,Arial" font-weight="400" font-size="212">*vma</tspan></tspan></tspan></text><path d="M10001 2991 9001 2991 9001 1991 11001 1991 11001 2991 10001 2991Z" stroke="#000000" fill="none"/><text><tspan><tspan x="9325" y="2444"><tspan font-family="Liberation Sans,Arial" font-weight="400" font-size="212">                        </tspan></tspan><tspan x="9760" y="2682"><tspan font-family="Liberation Sans,Arial" font-weight="400" font-size="212">*vma</tspan></tspan></tspan></text><path d="M16001 3024 15001 3024 15001 2024 17001 2024 17001 3024 16001 3024Z" stroke="#000000" fill="none"/><text><tspan><tspan x="15325" y="2477"><tspan font-family="Liberation Sans,Arial" font-weight="400" font-size="212">                        </tspan></tspan><tspan x="15760" y="2715"><tspan font-family="Liberation Sans,Arial" font-weight="400" font-size="212">*vma</tspan></tspan></tspan></text><path d="M14001 1000 3301 1000" stroke="#000000" fill="none"/><path d="M3301 1150 3001 1000 3301 850 3301 1150Z"/><path d="M15001 2500 14001 2500" stroke="#000000" fill="none"/><path d="M14001 2500 14001 1300" stroke="#000000" fill="none"/><path d="M13851 1300 14001 1000 14151 1300 13851 1300Z"/><path d="M9001 2500 8001 2500" stroke="#000000" fill="none"/><path d="M5001 2500 4001 2500" stroke="#000000" fill="none"/><path d="M8001 2500 8001 1300" stroke="#000000" fill="none"/><path d="M7851 1300 8001 1000 8151 1300 7851 1300Z"/><path d="M4001 2500 4001 1300" stroke="#000000" fill="none"/><path d="M3851 1300 4001 1000 4151 1300 3851 1300Z"/></svg>