<svg width="340.157" height="869.291" viewBox="0 0 9000 23000" xmlns="http://www.w3.org/2000/svg" xmlns:xlink="http://www.w3.org/1999/xlink" stroke-width="28.222" stroke-linejoin="round" xml:space="preserve" overflow="hidden"><path d="M4501 1000 1501 1000 1501 1 7501 1 7501 1000 4501 1000Z" stroke="#000000" fill="none"/><path d="M4501 3000 1501 3000 1501 2001 7501 2001 7501 3000 4501 3000Z" stroke="#000000" fill="none"/><path d="M4501 5027 1 5027 1 4028 9001 4028 9001 5027 4501 5027Z" stroke="#000000" fill="none"/><path d="M4501 7000 501 7000 501 6001 8501 6001 8501 7000 4501 7000Z" stroke="#000000" fill="none"/><path d="M4501 9000 1 9000 1 8001 9001 8001 9001 9000 4501 9000Z" stroke="#000000" fill="none"/><path d="M4501 11000 1501 11000 1501 10001 7501 10001 7501 11000 4501 11000Z" stroke="#000000" fill="none"/><text><tspan><tspan x="3252" y="761"><tspan font-family="Noto Sans SC,Arial" font-weight="400" font-size="635">硬件中断</tspan></tspan></tspan></text><text><tspan><tspan x="2596" y="2761"><tspan font-family="Noto Sans SC,Arial" font-weight="400" font-size="635">架构中断入口</tspan></tspan></tspan></text><text><tspan><tspan x="383" y="4740"><tspan font-family="Noto Sans SC,Arial" font-weight="400" font-size="635">执行</tspan><tspan font-family="Liberation Sans,Arial" font-weight="400" font-size="635">generic_handle_irq</tspan><tspan font-family="Noto Sans SC,Arial" font-weight="400" font-size="635">函数</tspan></tspan></tspan></text><text><tspan><tspan x="836" y="6691"><tspan font-family="Noto Sans SC,Arial" font-weight="400" font-size="635">执行</tspan><tspan font-family="Liberation Sans,Arial" font-weight="400" font-size="635">handle_irq_desc</tspan><tspan font-family="Noto Sans SC,Arial" font-weight="400" font-size="635">函数</tspan></tspan></tspan></text><text><tspan><tspan x="621" y="8735"><tspan font-family="Noto Sans SC,Arial" font-weight="400" font-size="635">执行</tspan><tspan font-family="Liberation Sans,Arial" font-weight="400" font-size="635">handle_irq_event</tspan><tspan font-family="Noto Sans SC,Arial" font-weight="400" font-size="635">函数</tspan></tspan></tspan></text><text><tspan><tspan x="1989" y="10740"><tspan font-family="Noto Sans SC,Arial" font-weight="400" font-size="635">执行设备驱动</tspan><tspan font-family="Liberation Sans,Arial" font-weight="400" font-size="635">ISR</tspan></tspan></tspan></text><path d="M4501 12999 1501 12999 1501 12000 7501 12000 7501 12999 4501 12999Z" stroke="#000000" fill="none"/><path d="M4501 15000 1501 15000 1501 14001 7501 14001 7501 15000 4501 15000Z" stroke="#000000" fill="none"/><path d="M4501 16999 1501 16999 1501 16000 7501 16000 7501 16999 4501 16999Z" stroke="#000000" fill="none"/><path d="M4501 18999 1501 18999 1501 18000 7501 18000 7501 18999 4501 18999Z" stroke="#000000" fill="none"/><path d="M4501 21000 1001 21000 1001 20001 8001 20001 8001 21000 4501 21000Z" stroke="#000000" fill="none"/><text><tspan><tspan x="2030" y="12740"><tspan font-family="Noto Sans SC,Arial" font-weight="400" font-size="635">调用</tspan><tspan font-family="Liberation Sans,Arial" font-weight="400" font-size="635">raise_softisr</tspan></tspan></tspan></text><text><tspan><tspan x="2060" y="14740"><tspan font-family="Noto Sans SC,Arial" font-weight="400" font-size="635">调用</tspan><tspan font-family="Liberation Sans,Arial" font-weight="400" font-size="635">irq_exit</tspan><tspan font-family="Noto Sans SC,Arial" font-weight="400" font-size="635">函数</tspan></tspan></tspan></text><text><tspan><tspan x="1809" y="16758"><tspan font-family="Noto Sans SC,Arial" font-weight="400" font-size="635">调用</tspan><tspan font-family="Liberation Sans,Arial" font-weight="400" font-size="635">invoke_softirq</tspan></tspan></tspan></text><text><tspan><tspan x="2264" y="18810"><tspan font-family="Noto Sans SC,Arial" font-weight="400" font-size="635">调用</tspan><tspan font-family="Liberation Sans,Arial" font-weight="400" font-size="635">_do_softirq</tspan></tspan></tspan></text><path d="M4501 23000 1 23000 1 22001 9001 22001 9001 23000 4501 23000Z" stroke="#000000" fill="none"/><text><tspan><tspan x="1643" y="20761"><tspan font-family="Noto Sans SC,Arial" font-weight="400" font-size="635">执行软中断处理函数</tspan></tspan></tspan></text><text><tspan><tspan x="614" y="22761"><tspan font-family="Noto Sans SC,Arial" font-weight="400" font-size="635">必要时，执行</tspan><tspan font-family="Liberation Sans,Arial" font-weight="400" font-size="635">ksoftirqd</tspan><tspan font-family="Noto Sans SC,Arial" font-weight="400" font-size="635">线程</tspan></tspan></tspan></text><path d="M4501 1001 4501 1701" stroke="#000000" fill="none"/><path d="M4651 1701 4501 2001 4351 1701 4651 1701Z"/><path d="M4501 3001 4501 3701" stroke="#000000" fill="none"/><path d="M4651 3701 4501 4001 4351 3701 4651 3701Z"/><path d="M4501 5001 4501 5701" stroke="#000000" fill="none"/><path d="M4651 5701 4501 6001 4351 5701 4651 5701Z"/><path d="M4501 7001 4501 7701" stroke="#000000" fill="none"/><path d="M4651 7701 4501 8001 4351 7701 4651 7701Z"/><path d="M4501 9001 4501 9701" stroke="#000000" fill="none"/><path d="M4651 9701 4501 10001 4351 9701 4651 9701Z"/><path d="M4501 11001 4501 11701" stroke="#000000" fill="none"/><path d="M4651 11701 4501 12001 4351 11701 4651 11701Z"/><path d="M4501 13001 4501 13701" stroke="#000000" fill="none"/><path d="M4651 13701 4501 14001 4351 13701 4651 13701Z"/><path d="M4501 15001 4501 15701" stroke="#000000" fill="none"/><path d="M4651 15701 4501 16001 4351 15701 4651 15701Z"/><path d="M4501 17001 4501 17701" stroke="#000000" fill="none"/><path d="M4651 17701 4501 18001 4351 17701 4651 17701Z"/><path d="M4501 19001 4501 19701" stroke="#000000" fill="none"/><path d="M4651 19701 4501 20001 4351 19701 4651 19701Z"/><path d="M4501 21001 4501 21701" stroke="#000000" fill="none"/><path d="M4651 21701 4501 22001 4351 21701 4651 21701Z"/></svg>