<svg width="691.654" height="325.039" viewBox="0 0 18300 8600" xmlns="http://www.w3.org/2000/svg" xmlns:xlink="http://www.w3.org/1999/xlink" stroke-width="28.222" stroke-linejoin="round" xml:space="preserve" overflow="hidden"><path d="M4247 6578 2247 6578 2247 578 6247 578 6247 6578 4247 6578Z" stroke="#000000" fill="none"/><path d="M2247 1578 6247 1578" stroke="#000000" fill="none"/><path d="M2247 2578 6247 2578" stroke="#000000" fill="none"/><path d="M2247 3578 6247 3578" stroke="#000000" fill="none"/><path d="M2247 4578 6247 4578" stroke="#000000" fill="none"/><path d="M2247 5578 6247 5578" stroke="#000000" fill="none"/><text><tspan><tspan x="2520" y="1177"><tspan font-family="Liberation Sans,Arial" font-weight="400" font-size="282">in_lookup_hashtable[0].first</tspan></tspan></tspan></text><text><tspan><tspan x="1587" y="1142"><tspan font-family="Liberation Sans,Arial" font-weight="400" font-size="282">0</tspan></tspan></tspan></text><text><tspan><tspan x="1587" y="2142"><tspan font-family="Liberation Sans,Arial" font-weight="400" font-size="282">1</tspan></tspan></tspan></text><text><tspan><tspan x="1497" y="6142"><tspan font-family="Liberation Sans,Arial" font-weight="400" font-size="282">N</tspan></tspan></tspan></text><text><tspan><tspan x="3929" y="4299"><tspan font-family="Liberation Sans,Arial" font-weight="400" font-size="635">…</tspan></tspan></tspan></text><path d="M6247 1147 7947 1147" stroke="#000000" fill="none"/><path d="M7947 997 8247 1147 7947 1297 7947 997Z"/><text><tspan><tspan x="8716" y="677"><tspan font-family="Liberation Sans,Arial" font-weight="400" font-size="282">struct dentry</tspan></tspan></tspan></text><path d="M9497 3141 8247 3141 8247 1141 10747 1141 10747 3141 9497 3141Z" stroke="#000000" fill="none"/><text><tspan><tspan x="2497" y="6177"><tspan font-family="Liberation Sans,Arial" font-weight="400" font-size="282">in_lookup_hashtable[N].first</tspan></tspan></tspan></text><path d="M6247 6147 7931 6161" stroke="#000000" fill="none"/><path d="M7932 6011 8231 6164 7930 6311 7932 6011Z"/><text><tspan><tspan x="9064" y="1997"><tspan font-family="Liberation Sans,Arial" font-weight="400" font-size="282">d_hash</tspan></tspan></tspan></text><path d="M9497 8078 8247 8078 8247 6078 10747 6078 10747 8078 9497 8078Z" stroke="#000000" fill="none"/><text><tspan><tspan x="9031" y="6997"><tspan font-family="Liberation Sans,Arial" font-weight="400" font-size="282">d_hash</tspan></tspan></tspan></text><path d="M13247 8397 12247 8397 12247 6397 14247 6397 14247 8397 13247 8397Z" stroke="#000000" fill="none"/><text><tspan><tspan x="12781" y="7212"><tspan font-family="Liberation Sans,Arial" font-weight="400" font-size="282">d_hash</tspan></tspan></tspan></text><path d="M17247 8647 16247 8647 16247 6647 18247 6647 18247 8647 17247 8647Z" stroke="#000000" fill="none"/><text><tspan><tspan x="16831" y="7483"><tspan font-family="Liberation Sans,Arial" font-weight="400" font-size="282">d_hash</tspan></tspan></tspan></text><path d="M10747 6397 11913 6382" stroke="#000000" fill="none"/><path d="M11911 6232 12213 6378 11915 6532 11911 6232Z"/><path d="M14247 6628 15947 6644" stroke="#000000" fill="none"/><path d="M15948 6494 16247 6647 15946 6794 15948 6494Z"/><path d="M8247 6397 6547 6397" stroke="#000000" fill="none"/><path d="M6547 6547 6247 6397 6547 6247 6547 6547Z"/><path d="M12231 6647 11047 6647" stroke="#000000" fill="none"/><path d="M11047 6797 10747 6647 11047 6497 11047 6797Z"/><path d="M16247 6897 14547 6897" stroke="#000000" fill="none"/><path d="M14547 7047 14247 6897 14547 6747 14547 7047Z"/><path d="M8247 1397 6547 1397" stroke="#000000" fill="none"/><path d="M6547 1547 6247 1397 6547 1247 6547 1547Z"/><text><tspan><tspan x="8497" y="1530"><tspan font-family="Liberation Sans,Arial" font-weight="400" font-size="282">pprev</tspan></tspan></tspan></text><text><tspan><tspan x="9997" y="1496"><tspan font-family="Liberation Sans,Arial" font-weight="400" font-size="246">next</tspan></tspan></tspan></text><text><tspan><tspan x="8497" y="6530"><tspan font-family="Liberation Sans,Arial" font-weight="400" font-size="282">pprev</tspan></tspan></tspan></text><text><tspan><tspan x="9747" y="6530"><tspan font-family="Liberation Sans,Arial" font-weight="400" font-size="282">next</tspan></tspan></tspan></text><text><tspan><tspan x="12497" y="6780"><tspan font-family="Liberation Sans,Arial" font-weight="400" font-size="282">pprev</tspan></tspan></tspan></text><text><tspan><tspan x="13442" y="6775"><tspan font-family="Liberation Sans,Arial" font-weight="400" font-size="282">next</tspan></tspan></tspan></text><text><tspan><tspan x="16497" y="7030"><tspan font-family="Liberation Sans,Arial" font-weight="400" font-size="282">pprev</tspan></tspan></tspan></text><text><tspan><tspan x="17497" y="7030"><tspan font-family="Liberation Sans,Arial" font-weight="400" font-size="282">next</tspan></tspan></tspan></text><path d="M8247 2147 10747 2147" stroke="#000000" fill="none"/><path d="M8247 7147 10747 7147" stroke="#000000" fill="none"/><path d="M12247 7397 14247 7397" stroke="#000000" fill="none"/><path d="M16247 7647 18247 7647" stroke="#000000" fill="none"/><path d="M247 647 1947 647" stroke="#000000" fill="none"/><path d="M1947 497 2247 647 1947 797 1947 497Z"/><text><tspan><tspan x="250" y="383"><tspan font-family="Liberation Sans,Arial" font-weight="400" font-size="282">dentry_hashtable</tspan></tspan></tspan></text></svg>