<svg width="702.992" height="377.953" viewBox="0 0 18600 10000" xmlns="http://www.w3.org/2000/svg" xmlns:xlink="http://www.w3.org/1999/xlink" stroke-width="28.222" stroke-linejoin="round" xml:space="preserve" overflow="hidden"><path d="M3501 2000 1501 2000 1501 1000 5501 1000 5501 2000 3501 2000Z" stroke="#000000" fill="none"/><text><tspan><tspan x="2619" y="1583"><tspan font-family="Liberation Sans,Arial" font-weight="400" font-size="212">mm_rb</tspan><tspan font-family="Noto Sans SC,Arial" font-weight="400" font-size="212">（根节点）</tspan></tspan></tspan></text><path d="M3501 3000 1501 3000 1501 2000 5501 2000 5501 3000 3501 3000Z" stroke="#000000" fill="none"/><text><tspan><tspan x="3207" y="2572"><tspan font-family="Liberation Sans,Arial" font-weight="400" font-size="212">mmap</tspan></tspan></tspan></text><path d="M3501 4000 1501 4000 1501 3000 5501 3000 5501 4000 3501 4000Z" stroke="#000000" fill="none"/><text><tspan><tspan x="3324" y="577"><tspan font-family="Liberation Sans,Arial" font-weight="400" font-size="212">mm</tspan></tspan></tspan></text><path d="M3516 8000 1516 8000 1516 7000 5516 7000 5516 8000 3516 8000Z" stroke="#000000" fill="none"/><path d="M3501 9000 1501 9000 1501 8000 5501 8000 5501 9000 3501 9000Z" stroke="#000000" fill="none"/><text><tspan><tspan x="3125" y="8572"><tspan font-family="Liberation Sans,Arial" font-weight="400" font-size="212">vm_mm</tspan></tspan></tspan></text><path d="M3501 10000 1501 10000 1501 9000 5501 9000 5501 10000 3501 10000Z" stroke="#000000" fill="none"/><text><tspan><tspan x="3301" y="6577"><tspan font-family="Liberation Sans,Arial" font-weight="400" font-size="212">vma</tspan></tspan></tspan></text><path d="M8993 3014 8485 3014 8485 2014 9500 2014 9500 3014 8993 3014Z" stroke="#000000" fill="none"/><text><tspan><tspan x="8793" y="2586"><tspan font-family="Liberation Sans,Arial" font-weight="400" font-size="212">vma</tspan></tspan></tspan></text><path d="M16001 5000 15501 5000 15501 4000 16501 4000 16501 5000 16001 5000Z" stroke="#3465A4" fill="none"/><text><tspan><tspan x="15801" y="4572"><tspan font-family="Liberation Sans,Arial" font-weight="400" font-size="212">vma</tspan></tspan></tspan></text><path d="M8001 5000 7501 5000 7501 4000 8501 4000 8501 5000 8001 5000Z" stroke="#3465A4" fill="none"/><text><tspan><tspan x="7801" y="4572"><tspan font-family="Liberation Sans,Arial" font-weight="400" font-size="212">vma</tspan></tspan></tspan></text><path d="M15001 2970 14501 2970 14501 1970 15501 1970 15501 2970 15001 2970Z" stroke="#000000" fill="none"/><text><tspan><tspan x="14801" y="2542"><tspan font-family="Liberation Sans,Arial" font-weight="400" font-size="212">vma</tspan></tspan></tspan></text><path d="M14001 5000 13501 5000 13501 4000 14501 4000 14501 5000 14001 5000Z" stroke="#3465A4" fill="none"/><text><tspan><tspan x="13801" y="4572"><tspan font-family="Liberation Sans,Arial" font-weight="400" font-size="212">vma</tspan></tspan></tspan></text><path d="M10001 5000 9501 5000 9501 4000 10501 4000 10501 5000 10001 5000Z" stroke="#3465A4" fill="none"/><text><tspan><tspan x="9801" y="4572"><tspan font-family="Liberation Sans,Arial" font-weight="400" font-size="212">vma</tspan></tspan></tspan></text><path d="M5501 1500 12001 1500" stroke="#000000" fill="none"/><path d="M12001 1500 9795 1941" stroke="#000000" fill="none"/><path d="M9825 2088 9501 2000 9766 1794 9825 2088Z"/><path d="M12001 1500 14207 1941" stroke="#000000" fill="none"/><path d="M14236 1794 14501 2000 14177 2088 14236 1794Z"/><path d="M9001 3000 8635 3732" stroke="#000000" fill="none"/><path d="M8769 3799 8501 4000 8501 3665 8769 3799Z"/><path d="M9001 3000 9367 3732" stroke="#000000" fill="none"/><path d="M9501 3665 9501 4000 9233 3799 9501 3665Z"/><path d="M15001 3000 14635 3732" stroke="#000000" fill="none"/><path d="M14769 3799 14501 4000 14501 3665 14769 3799Z"/><path d="M15001 3000 15367 3732" stroke="#000000" fill="none"/><path d="M15501 3665 15501 4000 15233 3799 15501 3665Z"/><path d="M1501 2500 501 2500" stroke="#000000" fill="none"/><path d="M501 2500 501 7000" stroke="#000000" fill="none"/><path d="M501 7000 1201 7000" stroke="#000000" fill="none"/><path d="M1201 6850 1501 7000 1201 7150 1201 6850Z"/><path d="M1501 8500 1 8500" stroke="#000000" fill="none"/><path d="M1 8500 1 1000" stroke="#000000" fill="none"/><path d="M1 1000 1201 1000" stroke="#000000" fill="none"/><path d="M1201 850 1501 1000 1201 1150 1201 850Z"/><path d="M9001 8000 7501 8000 7501 7000 10501 7000 10501 8000 9001 8000Z" stroke="#000000" fill="none"/><text><tspan><tspan x="7784" y="7572"><tspan font-family="Liberation Sans,Arial" font-weight="400" font-size="212">vm_prev              vm_next</tspan></tspan></tspan></text><path d="M14001 8000 12501 8000 12501 7000 15501 7000 15501 8000 14001 8000Z" stroke="#000000" fill="none"/><text><tspan><tspan x="12872" y="7572"><tspan font-family="Liberation Sans,Arial" font-weight="400" font-size="212">vm_prev           vm_next</tspan></tspan></tspan></text><text><tspan><tspan x="8801" y="6577"><tspan font-family="Liberation Sans,Arial" font-weight="400" font-size="212">vma</tspan></tspan></tspan></text><path d="M7501 7500 6501 7500" stroke="#000000" fill="none"/><path d="M6501 7500 6501 7000" stroke="#000000" fill="none"/><path d="M6501 7000 5801 7000" stroke="#000000" fill="none"/><path d="M5801 7150 5501 7000 5801 6850 5801 7150Z"/><path d="M12501 7500 10792 7073" stroke="#000000" fill="none"/><path d="M10756 7218 10501 7000 10828 6927 10756 7218Z"/><path d="M10501 7500 12210 7073" stroke="#000000" fill="none"/><path d="M12174 6927 12501 7000 12246 7218 12174 6927Z"/><path d="M15501 7500 17210 7073" stroke="#000000" fill="none"/><path d="M17174 6927 17501 7000 17246 7218 17174 6927Z"/><path d="M17501 7500 15792 7073" stroke="#000000" fill="none"/><path d="M15756 7218 15501 7000 15828 6927 15756 7218Z"/><text><tspan><tspan x="17751" y="7451"><tspan font-family="Liberation Sans,Arial" font-weight="400" font-size="635">…</tspan></tspan></tspan></text><text><tspan><tspan x="9001" y="837"><tspan font-family="Noto Sans SC,Arial" font-weight="400" font-size="212">由映射到同一块物理内存的所有的</tspan><tspan font-family="Liberation Sans,Arial" font-weight="400" font-size="212">vma</tspan><tspan font-family="Noto Sans SC,Arial" font-weight="400" font-size="212">构成的红黑树，</tspan></tspan></tspan><tspan><tspan x="9001" y="1096"><tspan font-family="Liberation Sans,Arial" font-weight="400" font-size="212">vma</tspan><tspan font-family="Noto Sans SC,Arial" font-weight="400" font-size="212">的</tspan><tspan font-family="Liberation Sans,Arial" font-weight="400" font-size="212">vm_rb</tspan><tspan font-family="Noto Sans SC,Arial" font-weight="400" font-size="212">为红黑树的节点。</tspan></tspan></tspan><tspan><tspan x="9001" y="1355"><tspan font-family="Noto Sans SC,Arial" font-weight="400" font-size="212">利用该树可以快速查找</tspan><tspan font-family="Liberation Sans,Arial" font-weight="400" font-size="212">vma</tspan></tspan></tspan></text><text><tspan><tspan x="9751" y="6337"><tspan font-family="Noto Sans SC,Arial" font-weight="400" font-size="212">由映射到</tspan><tspan font-family="Liberation Sans,Arial" font-weight="400" font-size="212">mm</tspan><tspan font-family="Noto Sans SC,Arial" font-weight="400" font-size="212">的所有</tspan><tspan font-family="Liberation Sans,Arial" font-weight="400" font-size="212">vma</tspan><tspan font-family="Noto Sans SC,Arial" font-weight="400" font-size="212">构成的链表</tspan></tspan></tspan></text><text><tspan><tspan x="11751" y="5239"><tspan font-family="Liberation Sans,Arial" font-weight="400" font-size="635">…</tspan></tspan></tspan></text><text><tspan><tspan x="13801" y="6572"><tspan font-family="Liberation Sans,Arial" font-weight="400" font-size="212">vma</tspan></tspan></tspan></text></svg>