<svg width="672.756" height="1020.47" viewBox="0 0 17800 27000" xmlns="http://www.w3.org/2000/svg" xmlns:xlink="http://www.w3.org/1999/xlink" stroke-width="28.222" stroke-linejoin="round" xml:space="preserve" overflow="hidden"><path d="M9017 3001 7017 3001 7017 2001 11017 2001 11017 3001 9017 3001Z" stroke="#000000" fill="none"/><text><tspan><tspan x="8080" y="2599"><tspan font-family="Noto Sans SC,Arial" font-weight="400" font-size="247">初始化</tspan><tspan font-family="Liberation Sans,Arial" font-weight="400" font-size="247">mmc</tspan><tspan font-family="Noto Sans SC,Arial" font-weight="400" font-size="247">器件</tspan></tspan></tspan></text><path d="M9017 5001 7017 5001 7017 4001 11017 4001 11017 5001 9017 5001Z" stroke="#000000" fill="none"/><text><tspan><tspan x="8176" y="4599"><tspan font-family="Noto Sans SC,Arial" font-weight="400" font-size="247">与</tspan><tspan font-family="Liberation Sans,Arial" font-weight="400" font-size="247">MMC</tspan><tspan font-family="Noto Sans SC,Arial" font-weight="400" font-size="247">卡握手</tspan></tspan></tspan></text><path d="M9017 7001 7017 7001 7017 6001 11017 6001 11017 7001 9017 7001Z" stroke="#000000" fill="none"/><text><tspan><tspan x="7421" y="6599"><tspan font-family="Noto Sans SC,Arial" font-weight="400" font-size="247">获取引导器件支持的引导模式</tspan></tspan></tspan></text><path d="M3502 15984 1002 15984 1002 14984 6002 14984 6002 15984 3502 15984Z" stroke="#000000" fill="none"/><text><tspan><tspan x="1453" y="15582"><tspan font-family="Noto Sans SC,Arial" font-weight="400" font-size="247">调用</tspan><tspan font-family="Liberation Sans,Arial" font-weight="400" font-size="247">spl_mmc_get_uboot_raw_sector</tspan></tspan></tspan></text><path d="M15032 17984 13032 17984 13032 16984 17032 16984 17032 17984 15032 17984Z" stroke="#000000" fill="none"/><text><tspan><tspan x="13436" y="17582"><tspan font-family="Noto Sans SC,Arial" font-weight="400" font-size="247">跳转到操作系统引导代码运行</tspan></tspan></tspan></text><path d="M15002 24968 13002 24968 13002 23968 17002 23968 17002 24968 15002 24968Z" stroke="#000000" fill="none"/><text><tspan><tspan x="13258" y="24417"><tspan font-family="Noto Sans SC,Arial" font-weight="400" font-size="247">调用</tspan><tspan font-family="Liberation Sans,Arial" font-weight="400" font-size="247">spl_mmc_do_fs_boot</tspan><tspan font-family="Noto Sans SC,Arial" font-weight="400" font-size="247">读取</tspan></tspan><tspan x="14354" y="24714"><tspan font-family="Liberation Sans,Arial" font-weight="400" font-size="247">u-booy</tspan><tspan font-family="Noto Sans SC,Arial" font-weight="400" font-size="247">镜像</tspan></tspan></tspan></text><path d="M4032 9986 2032 9986 2032 8986 6032 8986 6032 9986 4032 9986Z" stroke="#000000" fill="none"/><text><tspan><tspan x="2377" y="9435"><tspan font-family="Noto Sans SC,Arial" font-weight="400" font-size="247">获取</tspan><tspan font-family="Liberation Sans,Arial" font-weight="400" font-size="247">u-boot</tspan><tspan font-family="Noto Sans SC,Arial" font-weight="400" font-size="247">在</tspan><tspan font-family="Liberation Sans,Arial" font-weight="400" font-size="247">emmc</tspan><tspan font-family="Noto Sans SC,Arial" font-weight="400" font-size="247">上的分区</tspan></tspan><tspan x="2567" y="9732"><tspan font-family="Noto Sans SC,Arial" font-weight="400" font-size="247">（通常在</tspan><tspan font-family="Liberation Sans,Arial" font-weight="400" font-size="247">boot0</tspan><tspan font-family="Noto Sans SC,Arial" font-weight="400" font-size="247">或</tspan><tspan font-family="Liberation Sans,Arial" font-weight="400" font-size="247">boot1</tspan><tspan font-family="Noto Sans SC,Arial" font-weight="400" font-size="247">）</tspan></tspan></tspan></text><path d="M4017 12002 2017 12002 2017 11002 6017 11002 6017 12002 4017 12002Z" stroke="#000000" fill="none"/><text><tspan><tspan x="2573" y="11615"><tspan font-family="Noto Sans SC,Arial" font-weight="400" font-size="282">切换到</tspan><tspan font-family="Liberation Sans,Arial" font-weight="400" font-size="282">emmc</tspan><tspan font-family="Noto Sans SC,Arial" font-weight="400" font-size="282">引导分区</tspan></tspan></tspan></text><path d="M4002 19984 2002 19984 2002 18984 6002 18984 6002 19984 4002 19984Z" stroke="#000000" fill="none"/><text><tspan><tspan x="3727" y="19296"><tspan font-family="Noto Sans SC,Arial" font-weight="400" font-size="247">调用</tspan></tspan><tspan x="2252" y="19571"><tspan font-family="Liberation Sans,Arial" font-weight="400" font-size="247">mmc_load_image_raw_partition</tspan></tspan><tspan x="2399" y="19868"><tspan font-family="Noto Sans SC,Arial" font-weight="400" font-size="247">从</tspan><tspan font-family="Liberation Sans,Arial" font-weight="400" font-size="247">RAW</tspan><tspan font-family="Noto Sans SC,Arial" font-weight="400" font-size="247">分区读取</tspan><tspan font-family="Liberation Sans,Arial" font-weight="400" font-size="247">u-boot</tspan><tspan font-family="Noto Sans SC,Arial" font-weight="400" font-size="247">镜像</tspan></tspan></tspan></text><path d="M15017 13484 13017 13484 13017 12484 17017 12484 17017 13484 15017 13484Z" stroke="#000000" fill="none"/><text><tspan><tspan x="13298" y="12940"><tspan font-family="Liberation Sans,Arial" font-weight="400" font-size="212">SPL</tspan><tspan font-family="Noto Sans SC,Arial" font-weight="400" font-size="212">调用</tspan><tspan font-family="Liberation Sans,Arial" font-weight="400" font-size="212">mmc_load_image_raw_os</tspan></tspan><tspan x="13641" y="13199"><tspan font-family="Noto Sans SC,Arial" font-weight="400" font-size="212">直接从所在扇区读取操作系统</tspan></tspan></tspan></text><path d="M3009 24984 1 24984 1 23984 6016 23984 6016 24984 3009 24984Z" stroke="#000000" stroke-dasharray="216 81" fill="none"/><text><tspan><tspan x="270" y="24433"><tspan font-family="Noto Sans SC,Arial" font-weight="400" font-size="247">调用</tspan><tspan font-family="Liberation Sans,Arial" font-weight="400" font-size="247">mmc_load_image_raw_sector_dual_uboot</tspan><tspan font-family="Noto Sans SC,Arial" font-weight="400" font-size="247">读</tspan></tspan><tspan x="2235" y="24730"><tspan font-family="Noto Sans SC,Arial" font-weight="400" font-size="247">取</tspan><tspan font-family="Liberation Sans,Arial" font-weight="400" font-size="247">u-boot</tspan><tspan font-family="Noto Sans SC,Arial" font-weight="400" font-size="247">镜像</tspan></tspan></tspan></text><path d="M9002 24984 7002 24984 7002 23984 11002 23984 11002 24984 9002 24984Z" stroke="#000000" stroke-dasharray="216 81" fill="none"/><text><tspan><tspan x="8727" y="24296"><tspan font-family="Noto Sans SC,Arial" font-weight="400" font-size="247">调用</tspan></tspan><tspan x="7337" y="24571"><tspan font-family="Liberation Sans,Arial" font-weight="400" font-size="247">mmc_load_image_raw_sector</tspan></tspan><tspan x="8106" y="24868"><tspan font-family="Noto Sans SC,Arial" font-weight="400" font-size="247">读取</tspan><tspan font-family="Liberation Sans,Arial" font-weight="400" font-size="247">u-boot</tspan><tspan font-family="Noto Sans SC,Arial" font-weight="400" font-size="247">镜像</tspan></tspan></tspan></text><path d="M8168 25984 8169 25984C8140 25984 8111 25992 8085 26006 8060 26021 8039 26042 8024 26067 8010 26093 8002 26122 8002 26151L8002 26818 8002 26818C8002 26847 8010 26876 8024 26902 8039 26927 8060 26948 8085 26963 8111 26977 8140 26985 8169 26985L9836 26985 9836 26985C9865 26985 9894 26977 9920 26963 9945 26948 9966 26927 9981 26902 9995 26876 10003 26847 10003 26818L10003 26150 10003 26151 10003 26151C10003 26122 9995 26093 9981 26067 9966 26042 9945 26021 9920 26006 9894 25992 9865 25984 9836 25984L8168 25984Z" stroke="#000000" fill="none"/><text><tspan><tspan x="8757" y="26582"><tspan font-family="Noto Sans SC,Arial" font-weight="400" font-size="247">返回</tspan></tspan></tspan></text><path d="M8183 1 8184 1C8155 1 8126 9 8100 23 8075 38 8054 59 8039 84 8025 110 8017 139 8017 168L8017 835 8017 835C8017 864 8025 893 8039 919 8054 944 8075 965 8100 980 8126 994 8155 1002 8184 1002L9851 1002 9851 1002C9880 1002 9909 994 9935 980 9960 965 9981 944 9996 919 10010 893 10018 864 10018 835L10018 167 10018 168 10018 168C10018 139 10010 110 9996 84 9981 59 9960 38 9935 23 9909 9 9880 1 9851 1L8183 1Z" stroke="#000000" fill="none"/><text><tspan><tspan x="8772" y="599"><tspan font-family="Noto Sans SC,Arial" font-weight="400" font-size="247">开始</tspan></tspan></tspan></text><path d="M9002 21983 11002 22483 9002 22984 7002 22483 9002 21983 9002 21983Z" stroke="#000000" stroke-dasharray="216 81" fill="none"/><text><tspan><tspan x="8266" y="22581"><tspan font-family="Noto Sans SC,Arial" font-weight="400" font-size="247">双引导模式？</tspan></tspan></tspan></text><path d="M8972 19998 10972 20498 8972 20999 6972 20498 8972 19998 8972 19998Z" stroke="#000000" stroke-dasharray="216 81" fill="none"/><text><tspan><tspan x="8229" y="20447"><tspan font-family="Liberation Sans,Arial" font-weight="400" font-size="247">u-boot</tspan><tspan font-family="Noto Sans SC,Arial" font-weight="400" font-size="247">使用扇</tspan></tspan><tspan x="8727" y="20744"><tspan font-family="Noto Sans SC,Arial" font-weight="400" font-size="247">区？</tspan></tspan></tspan></text><path d="M9002 17983 11002 18483 9002 18984 7002 18483 9002 17983 9002 17983Z" stroke="#000000" stroke-dasharray="216 81" fill="none"/><text><tspan><tspan x="8259" y="18432"><tspan font-family="Liberation Sans,Arial" font-weight="400" font-size="247">u-boot</tspan><tspan font-family="Noto Sans SC,Arial" font-weight="400" font-size="247">使用分</tspan></tspan><tspan x="8757" y="18729"><tspan font-family="Noto Sans SC,Arial" font-weight="400" font-size="247">区？</tspan></tspan></tspan></text><path d="M15002 14984 17002 15484 15002 15985 13002 15484 15002 14984 15002 14984Z" stroke="#000000" fill="none"/><text><tspan><tspan x="14388" y="15582"><tspan font-family="Noto Sans SC,Arial" font-weight="400" font-size="247">读入成功？</tspan></tspan></tspan></text><path d="M9002 15983 11002 16483 9002 16984 7002 16483 9002 15983 9002 15983Z" stroke="#000000" fill="none"/><text><tspan><tspan x="8266" y="16581"><tspan font-family="Noto Sans SC,Arial" font-weight="400" font-size="247">双引导模式？</tspan></tspan></tspan></text><path d="M8972 14014 11002 14514 8972 15015 6942 14514 8972 14014 8972 14014Z" stroke="#000000" fill="none"/><text><tspan><tspan x="8220" y="14470"><tspan font-family="Liberation Sans,Arial" font-weight="400" font-size="212">SPL</tspan><tspan font-family="Noto Sans SC,Arial" font-weight="400" font-size="212">直接引导操</tspan></tspan><tspan x="8549" y="14729"><tspan font-family="Noto Sans SC,Arial" font-weight="400" font-size="212">作系统？</tspan></tspan></tspan></text><text><tspan><tspan x="4267" y="7694"><tspan font-family="Liberation Sans,Arial" font-weight="400" font-size="318">EMMC</tspan><tspan font-family="Noto Sans SC,Arial" font-weight="400" font-size="318">引导方式</tspan></tspan></tspan></text><text><tspan><tspan x="9253" y="8718"><tspan font-family="Liberation Sans,Arial" font-weight="400" font-size="282">RAW</tspan><tspan font-family="Noto Sans SC,Arial" font-weight="400" font-size="282">引导方式</tspan></tspan></tspan></text><text><tspan><tspan x="13017" y="7660"><tspan font-family="Liberation Sans,Arial" font-weight="400" font-size="282">FS</tspan><tspan font-family="Noto Sans SC,Arial" font-weight="400" font-size="282">引导方式</tspan></tspan></tspan></text><path d="M9017 1001 9017 1701" stroke="#000000" fill="none"/><path d="M9167 1701 9017 2001 8867 1701 9167 1701Z"/><path d="M9017 3001 9017 3701" stroke="#000000" fill="none"/><path d="M9167 3701 9017 4001 8867 3701 9167 3701Z"/><path d="M9017 5001 9017 5701" stroke="#000000" fill="none"/><path d="M9167 5701 9017 6001 8867 5701 9167 5701Z"/><path d="M9017 7001 9017 13701" stroke="#000000" fill="none"/><path d="M9167 13701 9017 14001 8867 13701 9167 13701Z"/><path d="M9017 8001 4017 8001" stroke="#000000" fill="none"/><path d="M4017 8001 4017 8701" stroke="#000000" fill="none"/><path d="M4167 8701 4017 9001 3867 8701 4167 8701Z"/><path d="M4017 10001 4017 10701" stroke="#000000" fill="none"/><path d="M4167 10701 4017 11001 3867 10701 4167 10701Z"/><path d="M4017 12001 4017 13001" stroke="#000000" fill="none"/><path d="M4017 13001 8717 13001" stroke="#000000" fill="none"/><path d="M8717 12851 9017 13001 8717 13151 8717 12851Z"/><path d="M11017 14501 12017 14501" stroke="#000000" fill="none"/><path d="M12017 14501 12002 11484" stroke="#000000" fill="none"/><path d="M12002 11484 15002 11484" stroke="#000000" fill="none"/><path d="M15002 11484 15002 12184" stroke="#000000" fill="none"/><path d="M15152 12184 15002 12484 14852 12184 15152 12184Z"/><path d="M9017 8001 17752 7984" stroke="#000000" fill="none"/><path d="M17752 7984 17752 18984" stroke="#000000" fill="none"/><text><tspan><tspan x="11267" y="14227"><tspan font-family="Liberation Sans,Arial" font-weight="400" font-size="388">Y</tspan></tspan></tspan></text><path d="M9017 15001 9007 15684" stroke="#000000" fill="none"/><path d="M9157 15686 9002 15984 8857 15682 9157 15686Z"/><path d="M9018 16983 9018 17683" stroke="#000000" fill="none"/><path d="M9168 17683 9018 17983 8868 17683 9168 17683Z"/><path d="M9018 18983 9018 19683" stroke="#000000" fill="none"/><path d="M9168 19683 9018 19983 8868 19683 9168 19683Z"/><path d="M9018 20983 9018 21683" stroke="#000000" fill="none"/><path d="M9168 21683 9018 21983 8868 21683 9168 21683Z"/><text><tspan><tspan x="8502" y="15427"><tspan font-family="Liberation Sans,Arial" font-weight="400" font-size="353">N</tspan></tspan></tspan></text><path d="M7002 16484 6502 16484" stroke="#000000" stroke-dasharray="216 81" fill="none"/><path d="M3355 13969 3355 14669" stroke="#000000" stroke-dasharray="216 81" fill="none"/><path d="M3505 14669 3355 14969 3205 14669 3505 14669Z"/><path d="M6502 16484 6502 13984" stroke="#000000" stroke-dasharray="216 81" fill="none"/><path d="M6502 13984 3502 13984" stroke="#000000" stroke-dasharray="216 81" fill="none"/><path d="M3252 15984 3252 17484" stroke="#000000" stroke-dasharray="216 81" fill="none"/><path d="M3252 17484 8702 17484" stroke="#000000" stroke-dasharray="216 81" fill="none"/><path d="M8702 17334 9002 17484 8702 17634 8702 17334Z"/><path d="M15002 13484 15002 14684" stroke="#000000" fill="none"/><path d="M15152 14684 15002 14984 14852 14684 15152 14684Z"/><path d="M13002 15484 9302 15484" stroke="#000000" fill="none"/><path d="M9302 15634 9002 15484 9302 15334 9302 15634Z"/><text><tspan><tspan x="12252" y="15960"><tspan font-family="Liberation Sans,Arial" font-weight="400" font-size="388">N</tspan></tspan></tspan></text><path d="M15002 15984 15002 16684" stroke="#000000" fill="none"/><path d="M15152 16684 15002 16984 14852 16684 15152 16684Z"/><text><tspan><tspan x="15502" y="16532"><tspan font-family="Liberation Sans,Arial" font-weight="400" font-size="353">Y</tspan></tspan></tspan></text><path d="M7002 18484 4002 18484" stroke="#000000" stroke-dasharray="216 81" fill="none"/><path d="M4002 18484 4002 18684" stroke="#000000" stroke-dasharray="216 81" fill="none"/><path d="M4152 18684 4002 18984 3852 18684 4152 18684Z"/><path d="M4002 19984 4002 21484" stroke="#000000" stroke-dasharray="216 81" fill="none"/><text><tspan><tspan x="11021" y="20397"><tspan font-family="Liberation Sans,Arial" font-weight="400" font-size="318">N</tspan></tspan></tspan></text><path d="M7002 22484 3002 22484" stroke="#000000" stroke-dasharray="216 81" fill="none"/><path d="M3002 22484 3002 23684" stroke="#000000" stroke-dasharray="216 81" fill="none"/><path d="M3152 23684 3002 23984 2852 23684 3152 23684Z"/><path d="M9002 22984 9002 23684" stroke="#000000" stroke-dasharray="216 81" fill="none"/><path d="M9152 23684 9002 23984 8852 23684 9152 23684Z"/><text><tspan><tspan x="6252" y="22397"><tspan font-family="Liberation Sans,Arial" font-weight="400" font-size="318">Y</tspan></tspan></tspan></text><text><tspan><tspan x="9252" y="23397"><tspan font-family="Liberation Sans,Arial" font-weight="400" font-size="318">N</tspan></tspan></tspan></text><path d="M17752 18984 15002 18984" stroke="#000000" fill="none"/><path d="M15002 18984 15002 23684" stroke="#000000" fill="none"/><path d="M15152 23684 15002 23984 14852 23684 15152 23684Z"/><path d="M9002 24984 9002 25684" stroke="#000000" fill="none"/><path d="M9152 25684 9002 25984 8852 25684 9152 25684Z"/><path d="M3002 24984 3002 25484" stroke="#000000" fill="none"/><path d="M3002 25484 8702 25484" stroke="#000000" fill="none"/><path d="M8702 25334 9002 25484 8702 25634 8702 25334Z"/><path d="M11002 20484 14702 20484" stroke="#000000" stroke-dasharray="216 81" fill="none"/><path d="M14702 20334 15002 20484 14702 20634 14702 20334Z"/><text><tspan><tspan x="9288" y="21397"><tspan font-family="Liberation Sans,Arial" font-weight="400" font-size="318">Y</tspan></tspan></tspan></text><text><tspan><tspan x="6502" y="18290"><tspan font-family="Liberation Sans,Arial" font-weight="400" font-size="318">Y</tspan></tspan></tspan></text><text><tspan><tspan x="9271" y="19397"><tspan font-family="Liberation Sans,Arial" font-weight="400" font-size="318">N</tspan></tspan></tspan></text><text><tspan><tspan x="9521" y="17397"><tspan font-family="Liberation Sans,Arial" font-weight="400" font-size="318">N</tspan></tspan></tspan></text><text><tspan><tspan x="6788" y="16147"><tspan font-family="Liberation Sans,Arial" font-weight="400" font-size="318">Y</tspan></tspan></tspan></text><path d="M4002 21484 8702 21484" stroke="#000000" stroke-dasharray="216 81" fill="none"/><path d="M8702 21334 9002 21484 8702 21634 8702 21334Z"/><path d="M15002 24984 15002 25484" stroke="#000000" fill="none"/><path d="M15002 25484 9302 25484" stroke="#000000" fill="none"/><path d="M9302 25634 9002 25484 9302 25334 9302 25634Z"/><text><tspan><tspan x="13252" y="3143"><tspan font-family="Noto Sans SC,Arial" font-weight="400" font-size="282">虚线框内的功能模块通过编译开关</tspan></tspan></tspan><tspan><tspan x="13252" y="3482"><tspan font-family="Noto Sans SC,Arial" font-weight="400" font-size="282">而不是条件判断语句选择</tspan></tspan></tspan></text></svg>