<svg width="377.953" height="434.646" viewBox="0 0 10000 11500" xmlns="http://www.w3.org/2000/svg" xmlns:xlink="http://www.w3.org/1999/xlink" stroke-width="28.222" stroke-linejoin="round" xml:space="preserve" overflow="hidden"><path d="M5001 1001 4001 1001 4001 1 6001 1 6001 1001 5001 1001Z" stroke="#000000" fill="none"/><text><tspan><tspan x="4305" y="588"><tspan font-family="Liberation Sans,Arial" font-weight="400" font-size="246">request_irq()</tspan></tspan></tspan></text><path d="M5001 11501 1 11501 1 1501 10001 1501 10001 11501 5001 11501Z" stroke="#000000" stroke-linecap="round" stroke-dasharray="189 108" fill="none"/><text><tspan><tspan x="8504" y="1817"><tspan font-family="Liberation Sans,Arial" font-weight="400" font-size="211">__setup_irq()</tspan></tspan></tspan></text><path d="M5001 3001 4001 3001 4001 2001 6001 2001 6001 3001 5001 3001Z" stroke="#000000" fill="none"/><text><tspan><tspan x="4365" y="2584"><tspan font-family="Noto Sans SC,Arial" font-weight="400" font-size="211">获取</tspan><tspan font-family="Liberation Sans,Arial" font-weight="400" font-size="211">irq_desc</tspan></tspan></tspan></text><path d="M5001 5001 4001 5001 4001 4001 6001 4001 6001 5001 5001 5001Z" stroke="#000000" fill="none"/><text><tspan><tspan x="4365" y="4584"><tspan font-family="Noto Sans SC,Arial" font-weight="400" font-size="211">分配</tspan><tspan font-family="Liberation Sans,Arial" font-weight="400" font-size="211">irqaction</tspan></tspan></tspan></text><path d="M5001 7001 3001 7001 3001 6001 7001 6001 7001 7001 5001 7001Z" stroke="#000000" fill="none"/><text><tspan><tspan x="3927" y="6584"><tspan font-family="Noto Sans SC,Arial" font-weight="400" font-size="211">挂入</tspan><tspan font-family="Liberation Sans,Arial" font-weight="400" font-size="211">desc-&gt;action</tspan><tspan font-family="Noto Sans SC,Arial" font-weight="400" font-size="211">链表</tspan></tspan></tspan></text><path d="M5001 9001 4001 9001 4001 8001 6001 8001 6001 9001 5001 9001Z" stroke="#000000" fill="none"/><text><tspan><tspan x="4366" y="8586"><tspan font-family="Noto Sans SC,Arial" font-weight="400" font-size="211">设置触发方式</tspan></tspan></tspan></text><path d="M5001 11001 4001 11001 4001 10001 6001 10001 6001 11001 5001 11001Z" stroke="#000000" fill="none"/><text><tspan><tspan x="4578" y="10586"><tspan font-family="Noto Sans SC,Arial" font-weight="400" font-size="211">启用中断</tspan></tspan></tspan></text><path d="M5001 1001 5001 1701" stroke="#000000" fill="none"/><path d="M5151 1701 5001 2001 4851 1701 5151 1701Z"/><path d="M5001 3001 5001 3701" stroke="#000000" fill="none"/><path d="M5151 3701 5001 4001 4851 3701 5151 3701Z"/><path d="M5001 5001 5001 5701" stroke="#000000" fill="none"/><path d="M5151 5701 5001 6001 4851 5701 5151 5701Z"/><path d="M5001 7001 5001 7701" stroke="#000000" fill="none"/><path d="M5151 7701 5001 8001 4851 7701 5151 7701Z"/><path d="M5001 9001 5001 9701" stroke="#000000" fill="none"/><path d="M5151 9701 5001 10001 4851 9701 5151 9701Z"/></svg>