<svg width="453.543" height="907.087" viewBox="0 0 12000 24000" xmlns="http://www.w3.org/2000/svg" xmlns:xlink="http://www.w3.org/1999/xlink" stroke-width="28.222" stroke-linejoin="round" xml:space="preserve" overflow="hidden"><path d="M6001 1000 3001 1000 3001 1 9001 1 9001 1000 6001 1000Z" stroke="#000000" fill="none"/><path d="M6001 3000 3001 3000 3001 2001 9001 2001 9001 3000 6001 3000Z" stroke="#000000" fill="none"/><path d="M6001 5027 1501 5027 1501 4028 10501 4028 10501 5027 6001 5027Z" stroke="#000000" fill="none"/><path d="M6001 7000 2001 7000 2001 6001 10001 6001 10001 7000 6001 7000Z" stroke="#000000" fill="none"/><path d="M6001 9000 1501 9000 1501 8001 10501 8001 10501 9000 6001 9000Z" stroke="#000000" fill="none"/><path d="M6001 11000 1001 11000 1001 10001 11001 10001 11001 11000 6001 11000Z" stroke="#000000" fill="none"/><text><tspan><tspan x="4363" y="702"><tspan font-family="Liberation Sans,Arial" font-weight="400" font-size="635">kernel_init()</tspan></tspan></tspan></text><text><tspan><tspan x="3460" y="2702"><tspan font-family="Liberation Sans,Arial" font-weight="400" font-size="635">run_init_process()</tspan></tspan></tspan></text><text><tspan><tspan x="3742" y="4681"><tspan font-family="Liberation Sans,Arial" font-weight="400" font-size="635">kernel_execve()</tspan></tspan></tspan></text><text><tspan><tspan x="3965" y="6632"><tspan font-family="Liberation Sans,Arial" font-weight="400" font-size="635">bprm_execve()</tspan></tspan></tspan></text><text><tspan><tspan x="4192" y="8676"><tspan font-family="Liberation Sans,Arial" font-weight="400" font-size="635">exec_bprm()</tspan></tspan></tspan></text><text><tspan><tspan x="2559" y="10681"><tspan font-family="Liberation Sans,Arial" font-weight="400" font-size="635">search_binary_handler()</tspan></tspan></tspan></text><path d="M6001 15001 1 15001 1 12001 12001 12001 12001 15001 6001 15001Z" stroke="#000000" fill="none"/><path d="M6001 16999 1 16999 1 16000 12001 16000 12001 16999 6001 16999Z" stroke="#000000" fill="none"/><path d="M6001 21001 1 21001 1 18001 12001 18001 12001 21001 6001 21001Z" stroke="#000000" fill="none"/><text><tspan><tspan x="1913" y="13366"><tspan font-family="Liberation Sans,Arial" font-weight="400" font-size="635">load_binary()[</tspan><tspan font-family="Noto Sans SC,Arial" font-weight="400" font-size="635">对</tspan><tspan font-family="Liberation Sans,Arial" font-weight="400" font-size="635">ELF</tspan><tspan font-family="Noto Sans SC,Arial" font-weight="400" font-size="635">格式，</tspan></tspan><tspan x="1230" y="14136"><tspan font-family="Liberation Sans,Arial" font-weight="400" font-size="635">load_binary()</tspan><tspan font-family="Noto Sans SC,Arial" font-weight="400" font-size="635">为</tspan><tspan font-family="Liberation Sans,Arial" font-weight="400" font-size="635">load_elf_binary()]</tspan></tspan></tspan></text><text><tspan><tspan x="773" y="16761"><tspan font-family="Noto Sans SC,Arial" font-weight="400" font-size="635">调用</tspan><tspan font-family="Liberation Sans,Arial" font-weight="400" font-size="635">start_thread()</tspan><tspan font-family="Noto Sans SC,Arial" font-weight="400" font-size="635">伪造用户态上下文</tspan></tspan></tspan></text><path d="M6001 24000 1 24000 1 22001 12001 22001 12001 24000 6001 24000Z" stroke="#000000" fill="none"/><text><tspan><tspan x="520" y="22761"><tspan font-family="Liberation Sans,Arial" font-weight="400" font-size="635">ld.so</tspan><tspan font-family="Noto Sans SC,Arial" font-weight="400" font-size="635">辅助初始化</tspan><tspan font-family="Liberation Sans,Arial" font-weight="400" font-size="635">init</tspan><tspan font-family="Noto Sans SC,Arial" font-weight="400" font-size="635">（</tspan><tspan font-family="Liberation Sans,Arial" font-weight="400" font-size="635">systemd</tspan><tspan font-family="Noto Sans SC,Arial" font-weight="400" font-size="635">），正</tspan></tspan><tspan x="2908" y="23531"><tspan font-family="Noto Sans SC,Arial" font-weight="400" font-size="635">式运行用户态</tspan><tspan font-family="Liberation Sans,Arial" font-weight="400" font-size="635">init</tspan><tspan font-family="Noto Sans SC,Arial" font-weight="400" font-size="635">程序</tspan></tspan></tspan></text><path d="M6001 1001 6001 1701" stroke="#000000" fill="none"/><path d="M6151 1701 6001 2001 5851 1701 6151 1701Z"/><path d="M6001 3001 6001 3701" stroke="#000000" fill="none"/><path d="M6151 3701 6001 4001 5851 3701 6151 3701Z"/><path d="M6001 5001 6001 5701" stroke="#000000" fill="none"/><path d="M6151 5701 6001 6001 5851 5701 6151 5701Z"/><path d="M6001 7001 6001 7701" stroke="#000000" fill="none"/><path d="M6151 7701 6001 8001 5851 7701 6151 7701Z"/><path d="M6001 9001 6001 9701" stroke="#000000" fill="none"/><path d="M6151 9701 6001 10001 5851 9701 6151 9701Z"/><path d="M6001 11001 6001 11701" stroke="#000000" fill="none"/><path d="M6151 11701 6001 12001 5851 11701 6151 11701Z"/><path d="M6001 15001 6001 15701" stroke="#000000" fill="none"/><path d="M6151 15701 6001 16001 5851 15701 6151 15701Z"/><path d="M6001 17001 6001 17701" stroke="#000000" fill="none"/><path d="M6151 17701 6001 18001 5851 17701 6151 17701Z"/><path d="M6001 21001 6001 21701" stroke="#000000" fill="none"/><path d="M6151 21701 6001 22001 5851 21701 6151 21701Z"/><text><tspan><tspan x="390" y="18985"><tspan font-family="Liberation Sans,Arial" font-weight="400" font-size="635">load_elf_binary()</tspan><tspan font-family="Noto Sans SC,Arial" font-weight="400" font-size="635">沿伪造的上下文返回路</tspan></tspan><tspan x="303" y="19755"><tspan font-family="Noto Sans SC,Arial" font-weight="400" font-size="635">径返回，此时</tspan><tspan font-family="Liberation Sans,Arial" font-weight="400" font-size="635">PC</tspan><tspan font-family="Noto Sans SC,Arial" font-weight="400" font-size="635">指向用户态</tspan><tspan font-family="Liberation Sans,Arial" font-weight="400" font-size="635">ld.so</tspan><tspan font-family="Noto Sans SC,Arial" font-weight="400" font-size="635">，</tspan><tspan font-family="Liberation Sans,Arial" font-weight="400" font-size="635">sp</tspan></tspan><tspan x="3779" y="20525"><tspan font-family="Noto Sans SC,Arial" font-weight="400" font-size="635">指向用户态堆栈</tspan></tspan></tspan></text></svg>