<svg width="642.52" height="529.134" viewBox="0 0 17000 14000" xmlns="http://www.w3.org/2000/svg" xmlns:xlink="http://www.w3.org/1999/xlink" stroke-width="28.222" stroke-linejoin="round" xml:space="preserve" overflow="hidden"><path d="M1 3001 11001 3001" stroke="#000000" fill="none"/><path d="M12001 4001 11001 4001 11001 2001 13001 2001 13001 4001 12001 4001Z" stroke="#000000" fill="none"/><text><tspan><tspan x="11389" y="3073"><tspan font-family="Liberation Sans,Arial" font-weight="400" font-size="211">anon_vma_0</tspan></tspan></tspan></text><path d="M16001 14001 15001 14001 15001 1001 17001 1001 17001 14001 16001 14001Z" stroke="#000000" fill="none"/><path d="M1 6001 11001 6001" stroke="#000000" fill="none"/><path d="M12001 7001 11001 7001 11001 5001 13001 5001 13001 7001 12001 7001Z" stroke="#000000" fill="none"/><text><tspan><tspan x="11389" y="6073"><tspan font-family="Liberation Sans,Arial" font-weight="400" font-size="211">anon_vma_1</tspan></tspan></tspan></text><path d="M1 13001 11001 13001" stroke="#000000" fill="none"/><path d="M12001 14001 11001 14001 11001 12001 13001 12001 13001 14001 12001 14001Z" stroke="#000000" fill="none"/><text><tspan><tspan x="11360" y="13073"><tspan font-family="Liberation Sans,Arial" font-weight="400" font-size="211">anon_vma_M</tspan></tspan></tspan></text><path d="M9001 2001 9001 14001" stroke="#000000" fill="none"/><path d="M9001 2001 8001 2001 8001 1 10001 1 10001 2001 9001 2001Z" stroke="#000000" fill="none"/><text><tspan><tspan x="8742" y="1073"><tspan font-family="Liberation Sans,Arial" font-weight="400" font-size="211">vma0</tspan></tspan></tspan></text><path d="M5001 2001 4001 2001 4001 1 6001 1 6001 2001 5001 2001Z" stroke="#000000" fill="none"/><text><tspan><tspan x="4742" y="1073"><tspan font-family="Liberation Sans,Arial" font-weight="400" font-size="211">vma1</tspan></tspan></tspan></text><path d="M5001 14001 5001 2001" stroke="#000000" fill="none"/><path d="M1001 2001 1 2001 1 1 2001 1 2001 2001 1001 2001Z" stroke="#000000" fill="none"/><text><tspan><tspan x="725" y="1073"><tspan font-family="Liberation Sans,Arial" font-weight="400" font-size="211">vmaN</tspan></tspan></tspan></text><path d="M1001 2001 1001 14001" stroke="#000000" fill="none"/><text><tspan><tspan x="15472" y="839"><tspan font-family="Noto Sans SC,Arial" font-weight="400" font-size="211">物理内存页</tspan></tspan></tspan></text><path d="M13001 3001 15001 3001" stroke="#000000" fill="none"/><path d="M13001 6001 15001 6001" stroke="#000000" fill="none"/><path d="M13001 13001 15001 13001" stroke="#000000" fill="none"/><text><tspan><tspan x="8445" y="3364"><tspan font-family="Liberation Sans,Arial" font-weight="400" font-size="211">avc</tspan></tspan></tspan></text><text><tspan><tspan x="4251" y="3317"><tspan font-family="Liberation Sans,Arial" font-weight="400" font-size="211">avc</tspan></tspan></tspan></text><text><tspan><tspan x="8501" y="5817"><tspan font-family="Liberation Sans,Arial" font-weight="400" font-size="211">avc</tspan></tspan></tspan></text><text><tspan><tspan x="4501" y="5817"><tspan font-family="Liberation Sans,Arial" font-weight="400" font-size="211">avc</tspan></tspan></tspan></text><text><tspan><tspan x="1317" y="3415"><tspan font-family="Liberation Sans,Arial" font-weight="400" font-size="211">avc</tspan></tspan></tspan></text><text><tspan><tspan x="5251" y="12817"><tspan font-family="Liberation Sans,Arial" font-weight="400" font-size="211">avc</tspan></tspan></tspan></text><text><tspan><tspan x="1251" y="12817"><tspan font-family="Liberation Sans,Arial" font-weight="400" font-size="211">avc</tspan></tspan></tspan></text><path d="M9502 3002C9502 3133 9294 3263 8899 3377 8504 3491 7936 3586 7252 3651 6568 3717 5792 3752 5002 3752 4211 3752 3435 3717 2751 3651 2067 3586 1499 3491 1104 3377 709 3263 501 3133 501 3002 501 2870 709 2740 1104 2626 1499 2512 2067 2417 2751 2352 3435 2286 4211 2251 5001 2251 5792 2251 6568 2286 7252 2352 7936 2417 8504 2512 8899 2626 9294 2740 9502 2870 9502 3001L9502 3002Z" stroke="#FF3838" fill="none"/><text><tspan><tspan x="3625" y="2807"><tspan font-family="Liberation Sans,Arial" font-weight="400" font-size="211">anon_vma_0</tspan><tspan font-family="Noto Sans SC,Arial" font-weight="400" font-size="211">上的区间二叉树</tspan></tspan></tspan></text><path d="M9714 5467C9714 6000 9679 6523 9613 6984 9548 7445 9453 7828 9339 8095 9225 8361 9095 8501 8964 8501 8832 8501 8702 8361 8588 8095 8474 7828 8379 7445 8314 6984 8248 6523 8213 6000 8213 5467 8213 4934 8248 4411 8314 3950 8379 3489 8474 3106 8588 2839 8702 2573 8832 2433 8964 2433 9095 2433 9225 2573 9339 2839 9453 3106 9548 3489 9613 3950 9679 4411 9714 4934 9714 5467L9714 5467Z" stroke="#F10D0C" fill="none"/><text><tspan><tspan x="9084" y="4436"><tspan font-family="Liberation Sans,Arial" font-weight="400" font-size="211">v</tspan></tspan></tspan><tspan><tspan x="9049" y="4674"><tspan font-family="Liberation Sans,Arial" font-weight="400" font-size="211">m</tspan></tspan></tspan><tspan><tspan x="9078" y="4912"><tspan font-family="Liberation Sans,Arial" font-weight="400" font-size="211">0</tspan></tspan></tspan><tspan><tspan x="9031" y="5171"><tspan font-family="Noto Sans SC,Arial" font-weight="400" font-size="211">上</tspan></tspan></tspan><tspan><tspan x="9078" y="5404"><tspan font-family="Liberation Sans,Arial" font-weight="400" font-size="211">a</tspan></tspan></tspan><tspan><tspan x="9084" y="5642"><tspan font-family="Liberation Sans,Arial" font-weight="400" font-size="211">v</tspan></tspan></tspan><tspan><tspan x="9084" y="5880"><tspan font-family="Liberation Sans,Arial" font-weight="400" font-size="211">c</tspan></tspan></tspan><tspan><tspan x="9031" y="6139"><tspan font-family="Noto Sans SC,Arial" font-weight="400" font-size="211">的</tspan></tspan></tspan><tspan><tspan x="9031" y="6393"><tspan font-family="Noto Sans SC,Arial" font-weight="400" font-size="211">链</tspan></tspan></tspan><tspan><tspan x="9032" y="6647"><tspan font-family="Noto Sans SC,Arial" font-weight="400" font-size="211">表</tspan></tspan></tspan></text></svg>