<svg width="642.52" height="151.181" viewBox="0 0 17000 4000" xmlns="http://www.w3.org/2000/svg" xmlns:xlink="http://www.w3.org/1999/xlink" stroke-width="28.222" stroke-linejoin="round" xml:space="preserve" overflow="hidden"><path d="M1501 2000 1 2000 1 1000 3001 1000 3001 2000 1501 2000Z" stroke="#000000" fill="none"/><text><tspan><tspan x="695" y="1445"><tspan font-family="Liberation Sans,Arial" font-weight="400" font-size="211">anon_vma_chain</tspan></tspan></tspan><tspan><tspan x="972" y="1704"><tspan font-family="Noto Sans SC,Arial" font-weight="400" font-size="211">（链表头）</tspan></tspan></tspan></text><text><tspan><tspan x="1960" y="838"><tspan font-family="Liberation Sans,Arial" font-weight="400" font-size="211">vma</tspan><tspan font-family="Noto Sans SC,Arial" font-weight="400" font-size="211">结构体</tspan></tspan></tspan></text><path d="M6001 2000 5001 2000 5001 1000 7001 1000 7001 2000 6001 2000Z" stroke="#000000" fill="none"/><path d="M6001 3000 5001 3000 5001 2000 7001 2000 7001 3000 6001 3000Z" stroke="#000000" fill="none"/><text><tspan><tspan x="5484" y="2572"><tspan font-family="Liberation Sans,Arial" font-weight="400" font-size="211">same_vma</tspan></tspan></tspan></text><path d="M6001 4000 5001 4000 5001 3000 7001 3000 7001 4000 6001 4000Z" stroke="#000000" fill="none"/><text><tspan><tspan x="5995" y="828"><tspan font-family="Liberation Sans,Arial" font-weight="400" font-size="211">avc</tspan><tspan font-family="Noto Sans SC,Arial" font-weight="400" font-size="211">结构体</tspan></tspan></tspan></text><path d="M10001 2000 9001 2000 9001 1000 11001 1000 11001 2000 10001 2000Z" stroke="#000000" fill="none"/><path d="M10001 3000 9001 3000 9001 2000 11001 2000 11001 3000 10001 3000Z" stroke="#000000" fill="none"/><text><tspan><tspan x="9484" y="2572"><tspan font-family="Liberation Sans,Arial" font-weight="400" font-size="211">same_vma</tspan></tspan></tspan></text><path d="M10001 4000 9001 4000 9001 3000 11001 3000 11001 4000 10001 4000Z" stroke="#000000" fill="none"/><path d="M15999 1985 15001 1985 15001 985 16997 985 16997 1985 15999 1985Z" stroke="#000000" fill="none"/><path d="M15999 2985 15001 2985 15001 1985 16997 1985 16997 2985 15999 2985Z" stroke="#000000" fill="none"/><text><tspan><tspan x="15482" y="2557"><tspan font-family="Liberation Sans,Arial" font-weight="400" font-size="211">same_vma</tspan></tspan></tspan></text><path d="M15999 3985 15001 3985 15001 2985 16997 2985 16997 3985 15999 3985Z" stroke="#000000" fill="none"/><path d="M7001 2500 8701 2500" stroke="#000000" fill="none"/><path d="M8701 2350 9001 2500 8701 2650 8701 2350Z"/><path d="M11001 2500 11701 2500" stroke="#000000" fill="none"/><path d="M11701 2350 12001 2500 11701 2650 11701 2350Z"/><path d="M14001 2500 14701 2500" stroke="#000000" fill="none"/><path d="M14701 2350 15001 2500 14701 2650 14701 2350Z"/><text><tspan><tspan x="9495" y="828"><tspan font-family="Liberation Sans,Arial" font-weight="400" font-size="211">avc</tspan><tspan font-family="Noto Sans SC,Arial" font-weight="400" font-size="211">结构体</tspan></tspan></tspan></text><text><tspan><tspan x="15495" y="828"><tspan font-family="Liberation Sans,Arial" font-weight="400" font-size="211">avc</tspan><tspan font-family="Noto Sans SC,Arial" font-weight="400" font-size="211">结构体</tspan></tspan></tspan></text><path d="M3001 1500 4001 1500" stroke="#000000" fill="none"/><path d="M4001 1500 4001 2500" stroke="#000000" fill="none"/><path d="M4001 2500 4701 2500" stroke="#000000" fill="none"/><path d="M4701 2350 5001 2500 4701 2650 4701 2350Z"/></svg>