<svg width="604.724" height="453.543" viewBox="0 0 16000 12000" xmlns="http://www.w3.org/2000/svg" xmlns:xlink="http://www.w3.org/1999/xlink" stroke-width="28.222" stroke-linejoin="round" xml:space="preserve" overflow="hidden"><path d="M2001 2000 1001 2000 1001 1000 3001 1000 3001 2000 2001 2000Z" stroke="#000000" fill="none"/><text><tspan><tspan x="1998" y="1572"><tspan font-family="Liberation Sans,Arial" font-weight="400" font-size="211">i_mmap</tspan></tspan></tspan></text><path d="M2001 3000 1001 3000 1001 2000 3001 2000 3001 3000 2001 3000Z" stroke="#000000" fill="none"/><text><tspan><tspan x="1283" y="817"><tspan font-family="Liberation Sans,Arial" font-weight="400" font-size="211">address_space</tspan></tspan></tspan></text><path d="M8001 3000 7001 3000 7001 2000 9001 2000 9001 3000 8001 3000Z" stroke="#000000" fill="none"/><path d="M8001 4000 7001 4000 7001 3000 9001 3000 9001 4000 8001 4000Z" stroke="#000000" fill="none"/><text><tspan><tspan x="7554" y="3572"><tspan font-family="Liberation Sans,Arial" font-weight="400" font-size="211">shared.rb</tspan></tspan></tspan></text><path d="M3001 1500 8001 1500" stroke="#000000" fill="none"/><path d="M8001 1500 8001 1700" stroke="#000000" fill="none"/><path d="M8151 1700 8001 2000 7851 1700 8151 1700Z"/><text><tspan><tspan x="8251" y="1816"><tspan font-family="Liberation Sans,Arial" font-weight="400" font-size="211">vma</tspan></tspan></tspan></text><path d="M4001 6000 3001 6000 3001 5000 5001 5000 5001 6000 4001 6000Z" stroke="#000000" fill="none"/><path d="M12001 6000 11001 6000 11001 5000 13001 5000 13001 6000 12001 6000Z" stroke="#000000" fill="none"/><path d="M4001 7000 3001 7000 3001 6000 5001 6000 5001 7000 4001 7000Z" stroke="#000000" fill="none"/><text><tspan><tspan x="3483" y="6587"><tspan font-family="Liberation Sans,Arial" font-weight="400" font-size="246">shared.rb</tspan></tspan></tspan></text><path d="M12001 7000 11001 7000 11001 6000 13001 6000 13001 7000 12001 7000Z" stroke="#000000" fill="none"/><text><tspan><tspan x="11402" y="6599"><tspan font-family="Liberation Sans,Arial" font-weight="400" font-size="282">shared.rb</tspan></tspan></tspan></text><text><tspan><tspan x="7251" y="8701"><tspan font-family="Liberation Sans,Arial" font-weight="400" font-size="635">…</tspan></tspan></tspan></text><path d="M8001 4000 4292 4927" stroke="#000000" fill="none"/><path d="M4328 5073 4001 5000 4256 4782 4328 5073Z"/><path d="M8001 4000 11710 4927" stroke="#000000" fill="none"/><path d="M11746 4782 12001 5000 11674 5073 11746 4782Z"/><path d="M4001 7000 3213 7788" stroke="#000000" fill="none"/><path d="M3319 7894 3001 8000 3107 7682 3319 7894Z"/><path d="M4001 7000 4789 7788" stroke="#000000" fill="none"/><path d="M4895 7682 5001 8000 4683 7894 4895 7682Z"/><path d="M12001 7000 11213 7788" stroke="#000000" fill="none"/><path d="M11319 7894 11001 8000 11107 7682 11319 7894Z"/><path d="M12001 7000 12789 7788" stroke="#000000" fill="none"/><path d="M12895 7682 13001 8000 12683 7894 12895 7682Z"/><path d="M1001 11000 1 11000 1 10000 2001 10000 2001 11000 1001 11000Z" stroke="#000000" fill="none"/><path d="M15001 11000 14001 11000 14001 10000 16001 10000 16001 11000 15001 11000Z" stroke="#000000" fill="none"/><path d="M1001 12000 1 12000 1 11000 2001 11000 2001 12000 1001 12000Z" stroke="#000000" fill="none"/><text><tspan><tspan x="554" y="11572"><tspan font-family="Liberation Sans,Arial" font-weight="400" font-size="211">shared.rb</tspan></tspan></tspan></text><path d="M15001 12000 14001 12000 14001 11000 16001 11000 16001 12000 15001 12000Z" stroke="#000000" fill="none"/><text><tspan><tspan x="14483" y="11587"><tspan font-family="Liberation Sans,Arial" font-weight="400" font-size="246">shared.rb</tspan></tspan></tspan></text><path d="M2001 9000 1213 9788" stroke="#000000" fill="none"/><path d="M1319 9894 1001 10000 1107 9682 1319 9894Z"/><path d="M14001 9000 14789 9788" stroke="#000000" fill="none"/><path d="M14895 9682 15001 10000 14683 9894 14895 9682Z"/><text><tspan><tspan x="3501" y="4816"><tspan font-family="Liberation Sans,Arial" font-weight="400" font-size="211">vma</tspan></tspan></tspan></text><text><tspan><tspan x="12251" y="4816"><tspan font-family="Liberation Sans,Arial" font-weight="400" font-size="211">vma</tspan></tspan></tspan></text><text><tspan><tspan x="251" y="9849"><tspan font-family="Liberation Sans,Arial" font-weight="400" font-size="246">vma</tspan></tspan></tspan></text><text><tspan><tspan x="15251" y="9849"><tspan font-family="Liberation Sans,Arial" font-weight="400" font-size="246">vma</tspan></tspan></tspan></text></svg>