<svg width="340.157" height="264.567" viewBox="0 0 9000 7000" xmlns="http://www.w3.org/2000/svg" xmlns:xlink="http://www.w3.org/1999/xlink" stroke-width="28.222" stroke-linejoin="round" xml:space="preserve" overflow="hidden"><path d="M9002 3501C9002 3588 8956 3675 8868 3751 8780 3827 8654 3890 8502 3934 8350 3978 8177 4001 8002 4001 7826 4001 7653 3978 7501 3934 7349 3890 7223 3827 7135 3751 7047 3675 7001 3588 7001 3501 7001 3413 7047 3326 7135 3250 7223 3174 7349 3111 7501 3067 7653 3023 7826 3000 8002 3000 8177 3000 8350 3023 8502 3067 8654 3111 8780 3174 8868 3250 8956 3326 9002 3413 9002 3500L9002 3501Z" stroke="#000000" fill="none"/><text><tspan><tspan x="7642" y="3572"><tspan font-family="Liberation Sans,Arial" font-weight="400" font-size="211">Inode A</tspan></tspan></tspan></text><path d="M4001 4000 3001 4000 3001 3000 5001 3000 5001 4000 4001 4000Z" stroke="#000000" fill="none"/><text><tspan><tspan x="3590" y="3572"><tspan font-family="Liberation Sans,Arial" font-weight="400" font-size="211">Dentry B</tspan></tspan></tspan></text><path d="M4001 2000 3001 2000 3001 1000 5001 1000 5001 2000 4001 2000Z" stroke="#000000" fill="none"/><text><tspan><tspan x="3595" y="1572"><tspan font-family="Liberation Sans,Arial" font-weight="400" font-size="211">Dentry A</tspan></tspan></tspan></text><path d="M1001 2000 1 2000 1 1000 2001 1000 2001 2000 1001 2000Z" stroke="#000000" fill="none"/><text><tspan><tspan x="301" y="1572"><tspan font-family="Liberation Sans,Arial" font-weight="400" font-size="211">/usr/home/a.txt</tspan></tspan></tspan></text><path d="M1001 4000 1 4000 1 3000 2001 3000 2001 4000 1001 4000Z" stroke="#000000" fill="none"/><text><tspan><tspan x="348" y="3572"><tspan font-family="Liberation Sans,Arial" font-weight="400" font-size="211">/usr/alias/b.txt</tspan></tspan></tspan></text><path d="M9002 6501C9002 6588 8956 6675 8868 6751 8780 6827 8654 6890 8502 6934 8350 6978 8177 7001 8002 7001 7826 7001 7653 6978 7501 6934 7349 6890 7223 6827 7135 6751 7047 6675 7001 6588 7001 6501 7001 6413 7047 6326 7135 6250 7223 6174 7349 6111 7501 6067 7653 6023 7826 6000 8002 6000 8177 6000 8350 6023 8502 6067 8654 6111 8780 6174 8868 6250 8956 6326 9002 6413 9002 6501Z" stroke="#000000" fill="none"/><text><tspan><tspan x="7636" y="6572"><tspan font-family="Liberation Sans,Arial" font-weight="400" font-size="211">Inode B</tspan></tspan></tspan></text><path d="M4001 7000 3001 7000 3001 6000 5001 6000 5001 7000 4001 7000Z" stroke="#000000" fill="none"/><text><tspan><tspan x="3584" y="6572"><tspan font-family="Liberation Sans,Arial" font-weight="400" font-size="211">Dentry C</tspan></tspan></tspan></text><path d="M1001 7000 1 7000 1 6000 2001 6000 2001 7000 1001 7000Z" stroke="#000000" fill="none"/><text><tspan><tspan x="631" y="6599"><tspan font-family="Liberation Sans,Arial" font-weight="400" font-size="282">/bin/ls</tspan></tspan></tspan></text><text><tspan><tspan x="683" y="585"><tspan font-family="Noto Sans SC,Arial" font-weight="400" font-size="211">文件名</tspan></tspan></tspan></text><text><tspan><tspan x="3683" y="585"><tspan font-family="Noto Sans SC,Arial" font-weight="400" font-size="211">目录项</tspan></tspan></tspan></text><text><tspan><tspan x="7578" y="2456"><tspan font-family="Noto Sans SC,Arial" font-weight="400" font-size="211">物理文件</tspan></tspan><tspan x="7481" y="2710"><tspan font-family="Noto Sans SC,Arial" font-weight="400" font-size="211">（</tspan><tspan font-family="Liberation Sans,Arial" font-weight="400" font-size="211">inode</tspan><tspan font-family="Noto Sans SC,Arial" font-weight="400" font-size="211">）</tspan></tspan></tspan></text><path d="M5001 1500 6775 3052" stroke="#000000" fill="none"/><path d="M6874 2940 7001 3250 6676 3165 6874 2940Z"/><path d="M5001 3500 6701 3500" stroke="#000000" fill="none"/><path d="M6701 3350 7001 3500 6701 3650 6701 3350Z"/><path d="M2001 1500 2701 1500" stroke="#000000" fill="none"/><path d="M2701 1350 3001 1500 2701 1650 2701 1350Z"/><path d="M2001 3500 2701 3500" stroke="#000000" fill="none"/><path d="M2701 3350 3001 3500 2701 3650 2701 3350Z"/><path d="M2001 6500 2701 6500" stroke="#000000" fill="none"/><path d="M2701 6350 3001 6500 2701 6650 2701 6350Z"/><path d="M5001 6500 6701 6500" stroke="#000000" fill="none"/><path d="M6701 6350 7001 6500 6701 6650 6701 6350Z"/><path d="M1001 2300 1001 2700" stroke="#000000" fill="none"/><path d="M851 2300 1001 2000 1151 2300 851 2300Z"/><path d="M1151 2700 1001 3000 851 2700 1151 2700Z"/><text><tspan><tspan x="1308" y="2588"><tspan font-family="Noto Sans SC,Arial" font-weight="400" font-size="211">硬链接</tspan></tspan></tspan></text></svg>