<svg width="702.992" height="1001.57" viewBox="0 0 18600 26500" xmlns="http://www.w3.org/2000/svg" xmlns:xlink="http://www.w3.org/1999/xlink" stroke-width="28.222" stroke-linejoin="round" xml:space="preserve" overflow="hidden"><path d="M10001 1500 8001 1500 8001 500 12001 500 12001 1500 10001 1500Z" stroke="#000000" fill="none"/><path d="M10016 3498 8016 3498 8016 2498 12016 2498 12016 3498 10016 3498Z" stroke="#000000" fill="none"/><text><tspan><tspan x="6251" y="383"><tspan font-family="Liberation Sans,Arial" font-weight="400" font-size="282">_main</tspan></tspan></tspan></text><path d="M7001 500 7701 500" stroke="#000000" fill="none"/><path d="M7701 350 8001 500 7701 650 7701 350Z"/><text><tspan><tspan x="8368" y="949"><tspan font-family="Noto Sans SC,Arial" font-weight="400" font-size="247">依据</tspan><tspan font-family="Liberation Sans,Arial" font-weight="400" font-size="247">u-boot</tspan><tspan font-family="Noto Sans SC,Arial" font-weight="400" font-size="247">引导方式设置栈地</tspan></tspan><tspan x="9878" y="1246"><tspan font-family="Noto Sans SC,Arial" font-weight="400" font-size="247">址</tspan></tspan></tspan></text><text><tspan><tspan x="8286" y="2801"><tspan font-family="Noto Sans SC,Arial" font-weight="400" font-size="247">调用</tspan><tspan font-family="Liberation Sans,Arial" font-weight="400" font-size="247">board_init_f_alloc_reserve</tspan></tspan></tspan><tspan><tspan x="8256" y="3098"><tspan font-family="Noto Sans SC,Arial" font-weight="400" font-size="247">为</tspan><tspan font-family="Liberation Sans,Arial" font-weight="400" font-size="247">global_data</tspan><tspan font-family="Noto Sans SC,Arial" font-weight="400" font-size="247">结构体（</tspan><tspan font-family="Liberation Sans,Arial" font-weight="400" font-size="247">gd</tspan><tspan font-family="Noto Sans SC,Arial" font-weight="400" font-size="247">）保</tspan></tspan><tspan x="9633" y="3395"><tspan font-family="Noto Sans SC,Arial" font-weight="400" font-size="247">留内存</tspan></tspan></tspan></text><path d="M10001 5500 8001 5500 8001 4500 12001 4500 12001 5500 10001 5500Z" stroke="#000000" fill="none"/><path d="M10001 7500 8001 7500 8001 6500 12001 6500 12001 7500 10001 7500Z" stroke="#000000" fill="none"/><text><tspan><tspan x="8251" y="4871"><tspan font-family="Noto Sans SC,Arial" font-weight="400" font-size="247">调用</tspan><tspan font-family="Liberation Sans,Arial" font-weight="400" font-size="247">board_init_f_init_reserve</tspan></tspan><tspan x="8251" y="5168"><tspan font-family="Noto Sans SC,Arial" font-weight="400" font-size="247">初始化</tspan><tspan font-family="Liberation Sans,Arial" font-weight="400" font-size="247">gd</tspan><tspan font-family="Noto Sans SC,Arial" font-weight="400" font-size="247">指针，</tspan><tspan font-family="Liberation Sans,Arial" font-weight="400" font-size="247">global_data</tspan><tspan font-family="Noto Sans SC,Arial" font-weight="400" font-size="247">清</tspan></tspan><tspan x="8251" y="5465"><tspan font-family="Noto Sans SC,Arial" font-weight="400" font-size="247">零，初始化早期</tspan><tspan font-family="Liberation Sans,Arial" font-weight="400" font-size="247">malloc</tspan><tspan font-family="Noto Sans SC,Arial" font-weight="400" font-size="247">指针</tspan></tspan></tspan></text><text><tspan><tspan x="8443" y="7098"><tspan font-family="Noto Sans SC,Arial" font-weight="400" font-size="247">调用</tspan><tspan font-family="Liberation Sans,Arial" font-weight="400" font-size="247">board_init_f</tspan><tspan font-family="Noto Sans SC,Arial" font-weight="400" font-size="247">初始化硬件</tspan></tspan></tspan></text><text><tspan><tspan x="13501" y="6808"><tspan font-family="Liberation Sans,Arial" font-weight="400" font-size="212">SPL, TPL</tspan><tspan font-family="Noto Sans SC,Arial" font-weight="400" font-size="212">和</tspan><tspan font-family="Liberation Sans,Arial" font-weight="400" font-size="212">proper</tspan><tspan font-family="Noto Sans SC,Arial" font-weight="400" font-size="212">分别采用不同的</tspan></tspan><tspan x="13501" y="7067"><tspan font-family="Liberation Sans,Arial" font-weight="400" font-size="212">board_init_f</tspan><tspan font-family="Noto Sans SC,Arial" font-weight="400" font-size="212">函数，由板级初始化函数提供</tspan></tspan></tspan><tspan><tspan x="13501" y="7326"><tspan font-family="Noto Sans SC,Arial" font-weight="400" font-size="212">对</tspan><tspan font-family="Liberation Sans,Arial" font-weight="400" font-size="212">proper</tspan><tspan font-family="Noto Sans SC,Arial" font-weight="400" font-size="212">方式，函数位于</tspan><tspan font-family="Liberation Sans,Arial" font-weight="400" font-size="212">common/board_f.c</tspan></tspan></tspan></text><path d="M2986 9486 986 9486 986 8486 4986 8486 4986 9486 2986 9486Z" stroke="#000000" fill="none"/><path d="M2986 11486 986 11486 986 10486 4986 10486 4986 11486 2986 11486Z" stroke="#000000" fill="none"/><path d="M2986 13486 986 13486 986 12486 4986 12486 4986 13486 2986 13486Z" stroke="#000000" fill="none"/><path d="M2986 15486 986 15486 986 14486 4986 14486 4986 15486 2986 15486Z" stroke="#000000" fill="none"/><path d="M2986 17486 986 17486 986 16486 4986 16486 4986 17486 2986 17486Z" stroke="#000000" fill="none"/><text><tspan><tspan x="1542" y="9084"><tspan font-family="Noto Sans SC,Arial" font-weight="400" font-size="246">将栈从</tspan><tspan font-family="Liberation Sans,Arial" font-weight="400" font-size="246">SRAM</tspan><tspan font-family="Noto Sans SC,Arial" font-weight="400" font-size="246">切换到</tspan><tspan font-family="Liberation Sans,Arial" font-weight="400" font-size="246">DDR</tspan></tspan></tspan></text><text><tspan><tspan x="1290" y="10935"><tspan font-family="Noto Sans SC,Arial" font-weight="400" font-size="246">重新设置</tspan><tspan font-family="Liberation Sans,Arial" font-weight="400" font-size="246">gd</tspan><tspan font-family="Noto Sans SC,Arial" font-weight="400" font-size="246">指针，使其指向在</tspan></tspan><tspan x="2195" y="11232"><tspan font-family="Liberation Sans,Arial" font-weight="400" font-size="246">RAM</tspan><tspan font-family="Noto Sans SC,Arial" font-weight="400" font-size="246">的新位置</tspan></tspan></tspan></text><text><tspan><tspan x="1306" y="12935"><tspan font-family="Noto Sans SC,Arial" font-weight="400" font-size="246">计算代码返回时在</tspan><tspan font-family="Liberation Sans,Arial" font-weight="400" font-size="246">RAM</tspan><tspan font-family="Noto Sans SC,Arial" font-weight="400" font-size="246">的绝对</tspan></tspan><tspan x="1456" y="13232"><tspan font-family="Noto Sans SC,Arial" font-weight="400" font-size="246">地址（</tspan><tspan font-family="Liberation Sans,Arial" font-weight="400" font-size="246">here</tspan><tspan font-family="Noto Sans SC,Arial" font-weight="400" font-size="246">标签的新地址）</tspan></tspan></tspan></text><text><tspan><tspan x="1536" y="14787"><tspan font-family="Noto Sans SC,Arial" font-weight="400" font-size="246">将代码从</tspan><tspan font-family="Liberation Sans,Arial" font-weight="400" font-size="246">SRAM</tspan><tspan font-family="Noto Sans SC,Arial" font-weight="400" font-size="246">移到</tspan><tspan font-family="Liberation Sans,Arial" font-weight="400" font-size="246">RAM</tspan></tspan></tspan><tspan><tspan x="1440" y="15084"><tspan font-family="Noto Sans SC,Arial" font-weight="400" font-size="246">（目标地址在</tspan><tspan font-family="Liberation Sans,Arial" font-weight="400" font-size="246">r0</tspan><tspan font-family="Noto Sans SC,Arial" font-weight="400" font-size="246">，源地址在</tspan></tspan><tspan x="2727" y="15381"><tspan font-family="Liberation Sans,Arial" font-weight="400" font-size="246">r9</tspan><tspan font-family="Noto Sans SC,Arial" font-weight="400" font-size="246">）</tspan></tspan></tspan></text><text><tspan><tspan x="1412" y="17084"><tspan font-family="Noto Sans SC,Arial" font-weight="400" font-size="246">将向量表从</tspan><tspan font-family="Liberation Sans,Arial" font-weight="400" font-size="246">SRAM</tspan><tspan font-family="Noto Sans SC,Arial" font-weight="400" font-size="246">移到</tspan><tspan font-family="Liberation Sans,Arial" font-weight="400" font-size="246">RAM</tspan></tspan></tspan></text><path d="M2986 19500 986 19500 986 18486 4986 18486 4986 19500 2986 19500Z" stroke="#000000" fill="none"/><text><tspan><tspan x="1264" y="18794"><tspan font-family="Noto Sans SC,Arial" font-weight="400" font-size="246">调用</tspan><tspan font-family="Liberation Sans,Arial" font-weight="400" font-size="246">c_runtime_cpu_setup</tspan><tspan font-family="Noto Sans SC,Arial" font-weight="400" font-size="246">，如</tspan></tspan><tspan x="1268" y="19091"><tspan font-family="Noto Sans SC,Arial" font-weight="400" font-size="246">果启用了命令缓存，作废缓存区</tspan></tspan><tspan x="1415" y="19388"><tspan font-family="Noto Sans SC,Arial" font-weight="400" font-size="246">内容，返回</tspan><tspan font-family="Liberation Sans,Arial" font-weight="400" font-size="246">here(</tspan><tspan font-family="Noto Sans SC,Arial" font-weight="400" font-size="246">新的位置）</tspan></tspan></tspan></text><path d="M2986 9486 2986 10186" stroke="#000000" fill="none"/><path d="M3136 10186 2986 10486 2836 10186 3136 10186Z"/><path d="M2986 11486 2986 12186" stroke="#000000" fill="none"/><path d="M3136 12186 2986 12486 2836 12186 3136 12186Z"/><path d="M2986 13486 2986 14186" stroke="#000000" fill="none"/><path d="M3136 14186 2986 14486 2836 14186 3136 14186Z"/><path d="M2986 15486 2986 16186" stroke="#000000" fill="none"/><path d="M3136 16186 2986 16486 2836 16186 3136 16186Z"/><path d="M2986 17486 2986 18186" stroke="#000000" fill="none"/><path d="M3136 18186 2986 18486 2836 18186 3136 18186Z"/><path d="M3001 25500 1 25500 1 7500 6001 7500 6001 25500 3001 25500Z" stroke="#000000" stroke-dasharray="216 81" fill="none"/><text><tspan><tspan x="1053" y="24776"><tspan font-family="Noto Sans SC,Arial" font-weight="400" font-size="246">如果没有设置</tspan><tspan font-family="Liberation Sans,Arial" font-weight="400" font-size="246">CONFIG_SPL_BUILD</tspan></tspan></tspan><tspan><tspan x="1633" y="25073"><tspan font-family="Noto Sans SC,Arial" font-weight="400" font-size="246">即代码只用于</tspan><tspan font-family="Liberation Sans,Arial" font-weight="400" font-size="246">proper</tspan><tspan font-family="Noto Sans SC,Arial" font-weight="400" font-size="246">方式</tspan></tspan></tspan></text><path d="M10001 1500 10001 2200" stroke="#000000" fill="none"/><path d="M10151 2200 10001 2500 9851 2200 10151 2200Z"/><path d="M10001 3500 10001 4200" stroke="#000000" fill="none"/><path d="M10151 4200 10001 4500 9851 4200 10151 4200Z"/><path d="M10001 5500 10001 6200" stroke="#000000" fill="none"/><path d="M10151 6200 10001 6500 9851 6200 10151 6200Z"/><path d="M16001 21500 14001 21500 14001 21000 18001 21000 18001 21500 16001 21500Z" stroke="#000000" fill="none"/><text><tspan><tspan x="15470" y="21333"><tspan font-family="Liberation Sans,Arial" font-weight="400" font-size="211">BSS</tspan><tspan font-family="Noto Sans SC,Arial" font-weight="400" font-size="211">段清零</tspan></tspan></tspan></text><path d="M16001 22500 14001 22500 14001 22000 18001 22000 18001 22500 16001 22500Z" stroke="#000000" fill="none"/><path d="M10001 26500 8001 26500 8001 26000 12001 26000 12001 26500 10001 26500Z" stroke="#000000" fill="none"/><text><tspan><tspan x="9206" y="26333"><tspan font-family="Noto Sans SC,Arial" font-weight="400" font-size="211">调用</tspan><tspan font-family="Liberation Sans,Arial" font-weight="400" font-size="211">board_init_r</tspan></tspan></tspan></text><path d="M9971 25500 7971 25500 7971 24500 11971 24500 11971 25500 9971 25500Z" stroke="#000000" fill="none"/><text><tspan><tspan x="8224" y="24949"><tspan font-family="Noto Sans SC,Arial" font-weight="400" font-size="246">将新的</tspan><tspan font-family="Liberation Sans,Arial" font-weight="400" font-size="246">gd</tspan><tspan font-family="Noto Sans SC,Arial" font-weight="400" font-size="246">地址存入</tspan><tspan font-family="Liberation Sans,Arial" font-weight="400" font-size="246">r0</tspan><tspan font-family="Noto Sans SC,Arial" font-weight="400" font-size="246">，</tspan><tspan font-family="Liberation Sans,Arial" font-weight="400" font-size="246">u-boot</tspan></tspan><tspan x="9342" y="25246"><tspan font-family="Noto Sans SC,Arial" font-weight="400" font-size="246">地址存入</tspan><tspan font-family="Liberation Sans,Arial" font-weight="400" font-size="246">r1</tspan></tspan></tspan></text><text><tspan><tspan x="14857" y="22333"><tspan font-family="Noto Sans SC,Arial" font-weight="400" font-size="211">将栈从</tspan><tspan font-family="Liberation Sans,Arial" font-weight="400" font-size="211">SRAM</tspan><tspan font-family="Noto Sans SC,Arial" font-weight="400" font-size="211">移到</tspan><tspan font-family="Liberation Sans,Arial" font-weight="400" font-size="211">RAM</tspan></tspan></tspan></text><path d="M3001 23750 1001 23750 1001 23250 5001 23250 5001 23750 3001 23750Z" stroke="#000000" fill="none"/><text><tspan><tspan x="2487" y="23598"><tspan font-family="Noto Sans SC,Arial" font-weight="400" font-size="246">点亮</tspan><tspan font-family="Liberation Sans,Arial" font-weight="400" font-size="246">LED</tspan></tspan></tspan></text><path d="M10001 7500 10001 24200" stroke="#000000" fill="none"/><path d="M10151 24200 10001 24500 9851 24200 10151 24200Z"/><text><tspan><tspan x="13868" y="25504"><tspan font-family="Noto Sans SC,Arial" font-weight="400" font-size="246">用于</tspan><tspan font-family="Liberation Sans,Arial" font-weight="400" font-size="246">proper</tspan><tspan font-family="Noto Sans SC,Arial" font-weight="400" font-size="246">方式或开启了</tspan><tspan font-family="Liberation Sans,Arial" font-weight="400" font-size="246">SPL/xPL</tspan><tspan font-family="Noto Sans SC,Arial" font-weight="400" font-size="246">框架</tspan></tspan></tspan></text><path d="M3016 19559 3001 20000" stroke="#000000" fill="none"/><path d="M3001 20000 9701 20000" stroke="#000000" stroke-dasharray="216 81" fill="none"/><path d="M9701 19850 10001 20000 9701 20150 9701 19850Z"/><path d="M16001 25750 13501 25750 13501 20000 18501 20000 18501 25750 16001 25750Z" stroke="#000000" stroke-linecap="round" stroke-dasharray="189 108" fill="none"/><path d="M10001 20500 16001 20500" stroke="#000000" stroke-dasharray="216 81" fill="none"/><path d="M16001 20500 16001 20700" stroke="#000000" stroke-linecap="round" stroke-dasharray="189 108" fill="none"/><path d="M16151 20700 16001 21000 15851 20700 16151 20700Z"/><path d="M10001 8000 3001 8000" stroke="#000000" stroke-linecap="round" stroke-dasharray="189 108" fill="none"/><path d="M3001 8000 3001 8200" stroke="#000000" stroke-linecap="round" stroke-dasharray="189 108" fill="none"/><path d="M3151 8200 3001 8500 2851 8200 3151 8200Z"/><path d="M10001 22750 3001 22750" stroke="#000000" stroke-linecap="round" stroke-dasharray="189 108" fill="none"/><path d="M3001 22750 3001 22950" stroke="#000000" fill="none"/><path d="M3151 22950 3001 23250 2851 22950 3151 22950Z"/><path d="M3001 23750 3001 24000" stroke="#000000" fill="none"/><path d="M3001 24000 9701 24000" stroke="#000000" stroke-linecap="round" stroke-dasharray="189 108" fill="none"/><path d="M9701 23850 10001 24000 9701 24150 9701 23850Z"/><path d="M10001 25500 10001 25700" stroke="#000000" fill="none"/><path d="M10151 25700 10001 26000 9851 25700 10151 25700Z"/><path d="M16001 23250 13751 23250 13751 21750 18251 21750 18251 23250 16001 23250Z" stroke="#3465A4" stroke-dasharray="108 81" fill="none"/><text><tspan><tspan x="16501" y="23066"><tspan font-family="Noto Sans SC,Arial" font-weight="400" font-size="190">用于</tspan><tspan font-family="Liberation Sans,Arial" font-weight="400" font-size="190">SPL/TPL</tspan></tspan></tspan></text><path d="M16001 22500 16001 22750" stroke="#000000" stroke-dasharray="216 81" fill="none"/><path d="M16001 22750 13001 22750" stroke="#000000" stroke-dasharray="216 81" fill="none"/><path d="M13001 22750 13001 22000" stroke="#000000" stroke-dasharray="216 81" fill="none"/><path d="M13001 22000 10301 22000" stroke="#000000" stroke-dasharray="216 81" fill="none"/><path d="M10301 22150 10001 22000 10301 21850 10301 22150Z"/><path d="M16001 21500 16001 21700" stroke="#000000" fill="none"/><path d="M16151 21700 16001 22000 15851 21700 16151 21700Z"/></svg>